SplineFontDB: 3.0
FontName: Radley
FullName: Radley
FamilyName: Radley
Weight: Book
Copyright: Copyright (c) 2011 by vernon adams. All rights reserved.
Version: 1.000
ItalicAngle: 0
UnderlinePosition: -205
UnderlineWidth: 102
Ascent: 1638
Descent: 410
sfntRevision: 0x00010000
LayerCount: 2
Layer: 0 1 "Back"  1
Layer: 1 1 "Fore"  0
XUID: [1021 14 500265001 4382341]
FSType: 0
OS2Version: 4
OS2_WeightWidthSlopeOnly: 0
OS2_UseTypoMetrics: 1
CreationTime: 1313747145
ModificationTime: 1313747246
PfmFamily: 17
TTFWeight: 400
TTFWidth: 5
LineGap: 0
VLineGap: 0
Panose: 2 0 5 3 0 0 0 2 0 3
OS2TypoAscent: 314
OS2TypoAOffset: 1
OS2TypoDescent: -205
OS2TypoDOffset: 1
OS2TypoLinegap: 0
OS2WinAscent: 0
OS2WinAOffset: 1
OS2WinDescent: 0
OS2WinDOffset: 1
HheadAscent: 0
HheadAOffset: 1
HheadDescent: 0
HheadDOffset: 1
OS2SubXSize: 1331
OS2SubYSize: 1228
OS2SubXOff: 0
OS2SubYOff: 153
OS2SupXSize: 1331
OS2SupYSize: 1228
OS2SupXOff: 0
OS2SupYOff: 716
OS2StrikeYSize: 102
OS2StrikeYPos: 539
OS2Vendor: 'newt'
OS2CodePages: 00000001.00000000
OS2UnicodeRanges: 00000007.00000000.00000000.00000000
Lookup: 4 0 1 "'liga' Standard Ligatures lookup 0"  {"'liga' Standard Ligatures lookup 0 subtable"  } ['liga' ('DFLT' <'dflt' > ) ]
Lookup: 258 0 0 "'kern' Horizontal Kerning lookup 0"  {"'kern' Horizontal Kerning lookup 0 subtable"  } ['kern' ('DFLT' <'dflt' > ) ]
MarkAttachClasses: 1
DEI: 91125
KernClass2: 2+ 2 "'kern' Horizontal Kerning lookup 0 subtable" 
 1 T
 5 V W Y
 288 a c d e o q agrave aacute acircumflex atilde adieresis aring ae ccedilla egrave eacute ecircumflex edieresis eth ograve oacute ocircumflex otilde odieresis oslash amacron abreve aogonek cacute cdotaccent ccaron dcaron dcroat emacron eogonek ecaron omacron obreve ohungarumlaut oe c_k.liga
 0 {} -184 {} 0 {} -162 {}
TtTable: prep
PUSHW_2
 2048
 2048
MUL
DUP
PUSHB_1
 10
SWAP
WS
DUP
PUSHB_1
 0
SWAP
WCVTF
PUSHB_1
 16
RCVT
DUP
DUP
PUSHB_1
 40
ADD
FLOOR
DUP
ROLL
NEQ
IF
PUSHB_1
 10
RS
MUL
SWAP
DIV
PUSHB_1
 9
SWAP
WS
PUSHB_4
 5
 6
 3

StartChar: exclam
Encoding: 33 33 4
Width: 567
GlyphClass: 2
Flags: W
LayerCount: 2
Fore
SplineSet
279 1312 m 0,0,1
 337 1312 337 1312 373 1284 c 128,-1,2
 409 1256 409 1256 409 1199 c 0,3,4
 409 1138 409 1138 397 1028.5 c 128,-1,5
 385 919 385 919 374 841.5 c 128,-1,6
 363 764 363 764 341.5 625 c 128,-1,7
 320 486 320 486 317 466 c 0,8,9
 316 463 316 463 315 448 c 128,-1,10
 314 433 314 433 312 419 c 128,-1,11
 310 405 310 405 306.5 389.5 c 128,-1,12
 303 374 303 374 297 365 c 128,-1,13
 291 356 291 356 283 356 c 0,14,15
 273 356 273 356 266.5 363 c 128,-1,16
 260 370 260 370 256.5 383 c 128,-1,17
 253 396 253 396 251.5 406.5 c 128,-1,18
 250 417 250 417 249 431.5 c 128,-1,19
 248 446 248 446 248 450 c 0,20,21
 241 506 241 506 214 674 c 128,-1,22
 187 842 187 842 170 979 c 128,-1,23
 153 1116 153 1116 153 1201 c 0,24,25
 153 1312 153 1312 279 1312 c 0,0,1
162 92 m 0,26,27
 162 143 162 143 197 179.5 c 128,-1,28
 232 216 232 216 283 216 c 128,-1,29
 334 216 334 216 370.5 179.5 c 128,-1,30
 407 143 407 143 407 92 c 128,-1,31
 407 41 407 41 370.5 6 c 128,-1,32
 334 -29 334 -29 283 -29 c 0,33,34
 233 -29 233 -29 197.5 6.5 c 128,-1,35
 162 42 162 42 162 92 c 0,26,27
EndSplineSet
EndChar

StartChar: quotedbl
Encoding: 34 34 5
Width: 748
GlyphClass: 2
Flags: W
LayerCount: 2
Fore
SplineSet
519 753 m 1,0,1
 496 807 496 807 463 978 c 128,-1,2
 430 1149 430 1149 430 1200 c 0,3,4
 430 1248 430 1248 457 1275 c 128,-1,5
 484 1302 484 1302 532 1302 c 128,-1,6
 580 1302 580 1302 607 1275 c 128,-1,7
 634 1248 634 1248 634 1200 c 0,8,9
 634 1174 634 1174 619 1070.5 c 128,-1,10
 604 967 604 967 575.5 859.5 c 128,-1,11
 547 752 547 752 519 753 c 1,0,1
203 753 m 1,12,13
 180 803 180 803 146.5 976.5 c 128,-1,14
 113 1150 113 1150 113 1200 c 0,15,16
 113 1248 113 1248 140 1275 c 128,-1,17
 167 1302 167 1302 215 1302 c 128,-1,18
 263 1302 263 1302 290 1275 c 128,-1,19
 317 1248 317 1248 317 1200 c 0,20,21
 317 1111 317 1111 278 931.5 c 128,-1,22
 239 752 239 752 203 753 c 1,12,13
EndSplineSet
EndChar

StartChar: numbersign
Encoding: 35 35 6
Width: 1136
GlyphClass: 2
Flags: W
LayerCount: 2
Fore
SplineSet
643 390 m 1,0,-1
 370 390 l 1,1,2
 344 285 344 285 302.5 88 c 128,-1,3
 261 -109 261 -109 252 -151 c 0,4,5
 243 -192 243 -192 224.5 -215.5 c 128,-1,6
 206 -239 206 -239 169 -239 c 0,7,8
 141 -239 141 -239 122.5 -209 c 128,-1,9
 104 -179 104 -179 104 -150 c 0,10,11
 104 -138 104 -138 117 -86 c 128,-1,12
 130 -34 130 -34 151 40 c 128,-1,13
 172 114 172 114 191 180.5 c 128,-1,14
 210 247 210 247 229.5 313 c 128,-1,15
 249 379 249 379 252 390 c 1,16,17
 244 390 244 390 218 388.5 c 128,-1,18
 192 387 192 387 176 387 c 0,19,20
 67 387 67 387 67 447 c 0,21,22
 67 504 67 504 195 504 c 0,23,24
 215 504 215 504 245.5 502.5 c 128,-1,25
 276 501 276 501 283 501 c 1,26,-1
 331 674 l 1,27,28
 322 674 322 674 290.5 672 c 128,-1,29
 259 670 259 670 240 670 c 0,30,31
 122 670 122 670 122 731 c 0,32,33
 122 789 122 789 260 789 c 0,34,35
 284 789 284 789 320 787 c 128,-1,36
 356 785 356 785 362 785 c 1,37,38
 371 816 371 816 392 887.5 c 128,-1,39
 413 959 413 959 424 998.5 c 128,-1,40
 435 1038 435 1038 450 1098 c 128,-1,41
 465 1158 465 1158 474.5 1211 c 128,-1,42
 484 1264 484 1264 490 1316 c 0,43,44
 493 1340 493 1340 519.5 1351 c 128,-1,45
 546 1362 546 1362 574 1362 c 0,46,47
 616 1362 616 1362 628.5 1343 c 128,-1,48
 641 1324 641 1324 641 1280 c 0,49,50
 641 1266 641 1266 604.5 1156.5 c 128,-1,51
 568 1047 568 1047 525.5 924 c 128,-1,52
 483 801 483 801 478 785 c 1,53,-1
 747 785 l 1,54,55
 754 812 754 812 770.5 879 c 128,-1,56
 787 946 787 946 795.5 982.5 c 128,-1,57
 804 1019 804 1019 816.5 1075 c 128,-1,58
 829 1131 829 1131 838.5 1179.5 c 128,-1,59
 848 1228 848 1228 855 1275 c 128,-1,60
 862 1322 862 1322 880.5 1342 c 128,-1,61
 899 1362 899 1362 946 1362 c 0,62,63
 1023 1362 1023 1362 1023 1280 c 0,64,65
 1023 1263 1023 1263 990 1156.5 c 128,-1,66
 957 1050 957 1050 914.5 921.5 c 128,-1,67
 872 793 872 793 869 785 c 1,68,69
 876 785 876 785 903 786 c 128,-1,70
 930 787 930 787 949 787 c 0,71,72
 1075 787 1075 787 1075 732 c 0,73,74
 1075 669 1075 669 944 669 c 0,75,76
 920 669 920 669 882 671.5 c 128,-1,77
 844 674 844 674 836 674 c 1,78,-1
 788 501 l 1,79,80
 795 501 795 501 826 502.5 c 128,-1,81
 857 504 857 504 878 504 c 0,82,83
 1021 504 1021 504 1021 441 c 0,84,85
 1021 384 1021 384 884 384 c 0,86,87
 855 384 855 384 811 387 c 128,-1,88
 767 390 767 390 760 390 c 1,89,90
 740 310 740 310 720.5 220.5 c 128,-1,91
 701 131 701 131 678.5 20.5 c 128,-1,92
 656 -90 656 -90 643 -149 c 0,93,94
 623 -239 623 -239 551 -239 c 0,95,96
 523 -239 523 -239 504.5 -209 c 128,-1,97
 486 -179 486 -179 486 -150 c 0,98,99
 486 -132 486 -132 519 -18.5 c 128,-1,100
 552 95 552 95 596.5 240 c 128,-1,101
 641 385 641 385 643 390 c 1,0,-1
719 674 m 1,102,-1
 445 674 l 1,103,-1
 398 501 l 1,104,-1
 674 501 l 1,105,-1
 719 674 l 1,102,-1
EndSplineSet
EndChar

StartChar: dollar
Encoding: 36 36 7
Width: 1072
GlyphClass: 2
Flags: W
LayerCount: 2
Fore
SplineSet
439 -141 m 1,0,-1
 441 -26 l 1,1,2
 225 -13 225 -13 73 80 c 1,3,-1
 94 366 l 1,4,5
 112 371 112 371 115 371 c 0,6,7
 146 371 146 371 159 282 c 0,8,9
 171 193 171 193 253 129.5 c 128,-1,10
 335 66 335 66 449 45 c 1,11,-1
 449 502 l 1,12,-1
 310 581 l 1,13,14
 95 702 95 702 95 886 c 0,15,16
 95 947 95 947 114.5 997.5 c 128,-1,17
 134 1048 134 1048 167.5 1083.5 c 128,-1,18
 201 1119 201 1119 247.5 1144 c 128,-1,19
 294 1169 294 1169 347 1182.5 c 128,-1,20
 400 1196 400 1196 460 1200 c 1,21,22
 459 1232 459 1232 459 1285 c 0,23,24
 459 1363 459 1363 468.5 1392.5 c 128,-1,25
 478 1422 478 1422 507 1422 c 0,26,27
 530 1422 530 1422 541 1393 c 128,-1,28
 552 1364 552 1364 552 1278 c 0,29,30
 552 1226 552 1226 551 1201 c 1,31,32
 705 1193 705 1193 831 1138 c 1,33,-1
 861 881 l 1,34,35
 841 876 841 876 834 876 c 0,36,37
 816 876 816 876 799.5 904 c 128,-1,38
 783 932 783 932 777 961 c 0,39,40
 761 1035 761 1035 699 1079 c 128,-1,41
 637 1123 637 1123 550 1136 c 1,42,43
 545 988 545 988 541 732 c 1,44,-1
 695 641 l 2,45,46
 834 559 834 559 882.5 491 c 128,-1,47
 931 423 931 423 931 319 c 0,48,49
 931 233 931 233 899.5 166.5 c 128,-1,50
 868 100 868 100 812 60 c 128,-1,51
 756 20 756 20 687 -1.5 c 128,-1,52
 618 -23 618 -23 536 -27 c 1,53,-1
 536 -125 l 2,54,55
 536 -179 536 -179 520 -203.5 c 128,-1,56
 504 -228 504 -228 484 -228 c 0,57,58
 468 -228 468 -228 454 -204 c 128,-1,59
 440 -180 440 -180 439 -141 c 1,0,-1
538 452 m 1,60,61
 536 218 536 218 536 36 c 1,62,63
 632 36 632 36 694.5 83.5 c 128,-1,64
 757 131 757 131 757 222 c 0,65,66
 757 290 757 290 710.5 335 c 128,-1,67
 664 380 664 380 538 452 c 1,60,61
454 785 m 1,68,-1
 454 1138 l 1,69,70
 371 1132 371 1132 311.5 1091.5 c 128,-1,71
 252 1051 252 1051 252 990 c 0,72,73
 252 906 252 906 359 842 c 2,74,-1
 454 785 l 1,68,-1
EndSplineSet
EndChar

StartChar: percent
Encoding: 37 37 8
Width: 1772
GlyphClass: 2
Flags: W
LayerCount: 2
Fore
SplineSet
1502 337 m 0,0,1
 1502 495 1502 495 1460.5 586 c 128,-1,2
 1419 677 1419 677 1338 677 c 0,3,4
 1264 677 1264 677 1226 593.5 c 128,-1,5
 1188 510 1188 510 1188 363 c 0,6,7
 1188 214 1188 214 1230 127.5 c 128,-1,8
 1272 41 1272 41 1354 41 c 0,9,10
 1427 41 1427 41 1464.5 120 c 128,-1,11
 1502 199 1502 199 1502 337 c 0,0,1
1035 358 m 0,12,13
 1035 517 1035 517 1119.5 626 c 128,-1,14
 1204 735 1204 735 1342 735 c 0,15,16
 1481 735 1481 735 1568 622.5 c 128,-1,17
 1655 510 1655 510 1655 349 c 0,18,19
 1655 194 1655 194 1572.5 87.5 c 128,-1,20
 1490 -19 1490 -19 1354 -22 c 1,21,22
 1210 -22 1210 -22 1122.5 88 c 128,-1,23
 1035 198 1035 198 1035 358 c 0,12,13
491 -138 m 1,24,25
 445 -138 445 -138 410 -108 c 1,26,27
 434 -64 434 -64 491 34 c 1,28,-1
 1020 1017 l 1,29,30
 1043 1056 1043 1056 1082 1143 c 128,-1,31
 1121 1230 1121 1230 1158.5 1295 c 128,-1,32
 1196 1360 1196 1360 1239 1396 c 1,33,34
 1289 1396 1289 1396 1332 1368 c 1,35,-1
 1255 1238 l 2,36,37
 1245 1220 1245 1220 1167.5 1086.5 c 128,-1,38
 1090 953 1090 953 1041.5 866.5 c 128,-1,39
 993 780 993 780 913.5 633.5 c 128,-1,40
 834 487 834 487 758 332.5 c 128,-1,41
 682 178 682 178 611 18 c 1,42,43
 575 -54 575 -54 491 -138 c 1,24,25
115 950 m 128,-1,45
 115 1109 115 1109 199.5 1218 c 128,-1,46
 284 1327 284 1327 423 1327 c 128,-1,47
 562 1327 562 1327 649 1214.5 c 128,-1,48
 736 1102 736 1102 736 941 c 0,49,50
 736 787 736 787 653.5 680 c 128,-1,51
 571 573 571 573 435 571 c 1,52,53
 291 571 291 571 203 681 c 128,-1,44
 115 791 115 791 115 950 c 128,-1,45
583 929 m 0,54,55
 583 1087 583 1087 541.5 1178.5 c 128,-1,56
 500 1270 500 1270 419 1270 c 0,57,58
 345 1270 345 1270 306.5 1186.5 c 128,-1,59
 268 1103 268 1103 268 956 c 0,60,61
 268 807 268 807 310 720 c 128,-1,62
 352 633 352 633 434 633 c 0,63,64
 508 633 508 633 545.5 712 c 128,-1,65
 583 791 583 791 583 929 c 0,54,55
EndSplineSet
EndChar

StartChar: ampersand
Encoding: 38 38 9
Width: 1468
GlyphClass: 2
Flags: W
LayerCount: 2
Fore
SplineSet
984 886 m 1,0,-1
 1393 886 l 1,1,2
 1394 868 1394 868 1394 835 c 1,3,4
 1386 828 1386 828 1330 812.5 c 128,-1,5
 1274 797 1274 797 1261 776 c 0,6,7
 1224 717 1224 717 1154.5 558 c 128,-1,8
 1085 399 1085 399 1020 296 c 1,9,10
 1072 231 1072 231 1113 198 c 128,-1,11
 1154 165 1154 165 1197 165 c 0,12,13
 1283 165 1283 165 1387 318 c 1,14,-1
 1446 275 l 1,15,16
 1409 122 1409 122 1339 47 c 128,-1,17
 1269 -28 1269 -28 1180 -28 c 0,18,19
 1106 -28 1106 -28 1030.5 20 c 128,-1,20
 955 68 955 68 896 152 c 1,21,22
 798 57 798 57 703 15.5 c 128,-1,23
 608 -26 608 -26 488 -26 c 0,24,25
 298 -26 298 -26 185.5 74.5 c 128,-1,26
 73 175 73 175 73 319 c 0,27,28
 73 387 73 387 93 443.5 c 128,-1,29
 113 500 113 500 158.5 552.5 c 128,-1,30
 204 605 204 605 262 651.5 c 128,-1,31
 320 698 320 698 411 758 c 1,32,33
 264 921 264 921 264 1042 c 0,34,35
 264 1158 264 1158 378 1241 c 1,36,37
 483 1316 483 1316 617 1322 c 0,38,39
 760 1328 760 1328 835 1247 c 0,40,41
 892 1185 892 1185 892 1085 c 0,42,43
 892 1046 892 1046 875 1012.5 c 128,-1,44
 858 979 858 979 814 942 c 128,-1,45
 770 905 770 905 728 877.5 c 128,-1,46
 686 850 686 850 602 799 c 1,47,48
 657 737 657 737 782 583 c 128,-1,49
 907 429 907 429 969 357 c 1,50,51
 1058 513 1058 513 1098 692 c 1,52,53
 1110 722 1110 722 1110 741 c 0,54,55
 1110 791 1110 791 984 832 c 1,56,57
 982 848 982 848 982 858 c 0,58,59
 982 864 982 864 984 886 c 1,0,-1
266 435 m 0,60,61
 266 298 266 298 364 200 c 128,-1,62
 462 102 462 102 611 102 c 0,63,64
 675 102 675 102 728.5 126.5 c 128,-1,65
 782 151 782 151 845 209 c 1,66,67
 590 538 590 538 457 702 c 1,68,69
 358 634 358 634 312 570 c 128,-1,70
 266 506 266 506 266 435 c 0,60,61
427 1104 m 0,71,72
 427 1010 427 1010 558 849 c 1,73,74
 654 904 654 904 701.5 956.5 c 128,-1,75
 749 1009 749 1009 749 1071 c 0,76,77
 749 1135 749 1135 704.5 1192.5 c 128,-1,78
 660 1250 660 1250 597 1250 c 0,79,80
 525 1250 525 1250 476 1207 c 128,-1,81
 427 1164 427 1164 427 1104 c 0,71,72
EndSplineSet
EndChar

StartChar: quotesingle
Encoding: 39 39 10
Width: 370
GlyphClass: 2
Flags: W
LayerCount: 2
Fore
SplineSet
172 753 m 1,0,1
 149 806 149 806 116 978 c 128,-1,2
 83 1150 83 1150 83 1200 c 0,3,4
 83 1248 83 1248 110 1275 c 128,-1,5
 137 1302 137 1302 185 1302 c 128,-1,6
 233 1302 233 1302 259.5 1275 c 128,-1,7
 286 1248 286 1248 286 1200 c 0,8,9
 286 1171 286 1171 279.5 1117.5 c 128,-1,10
 273 1064 273 1064 261.5 1001.5 c 128,-1,11
 250 939 250 939 236.5 883 c 128,-1,12
 223 827 223 827 205.5 790 c 128,-1,13
 188 753 188 753 172 753 c 1,0,1
EndSplineSet
EndChar

StartChar: parenleft
Encoding: 40 40 11
Width: 687
GlyphClass: 2
Flags: W
LayerCount: 2
Fore
SplineSet
666 -208 m 1,0,-1
 613 -268 l 1,1,2
 494 -214 494 -214 403 -123 c 128,-1,3
 312 -32 312 -32 257 80 c 128,-1,4
 202 192 202 192 174.5 315.5 c 128,-1,5
 147 439 147 439 147 571 c 128,-1,6
 147 703 147 703 174.5 826.5 c 128,-1,7
 202 950 202 950 256.5 1062 c 128,-1,8
 311 1174 311 1174 402.5 1264.5 c 128,-1,9
 494 1355 494 1355 613 1409 c 1,10,-1
 666 1350 l 1,11,12
 565 1291 565 1291 489 1203.5 c 128,-1,13
 413 1116 413 1116 368 1013.5 c 128,-1,14
 323 911 323 911 301 800.5 c 128,-1,15
 279 690 279 690 279 571 c 128,-1,16
 279 452 279 452 301 341.5 c 128,-1,17
 323 231 323 231 368 129 c 128,-1,18
 413 27 413 27 489 -60 c 128,-1,19
 565 -147 565 -147 666 -208 c 1,0,-1
EndSplineSet
EndChar

StartChar: parenright
Encoding: 41 41 12
Width: 687
GlyphClass: 2
Flags: W
LayerCount: 2
Fore
SplineSet
21 1350 m 1,0,1
 31 1376 31 1376 74 1409 c 1,2,3
 193 1355 193 1355 284 1264.5 c 128,-1,4
 375 1174 375 1174 430 1062 c 128,-1,5
 485 950 485 950 512.5 826.5 c 128,-1,6
 540 703 540 703 540 571 c 128,-1,7
 540 439 540 439 512.5 315.5 c 128,-1,8
 485 192 485 192 430 80 c 128,-1,9
 375 -32 375 -32 284 -123 c 128,-1,10
 193 -214 193 -214 74 -268 c 1,11,12
 32 -236 32 -236 21 -208 c 1,13,14
 218 -84 218 -84 313 120 c 128,-1,15
 408 324 408 324 408 571 c 128,-1,16
 408 818 408 818 313 1023 c 128,-1,17
 218 1228 218 1228 21 1350 c 1,0,1
EndSplineSet
EndChar

StartChar: asterisk
Encoding: 42 42 13
Width: 1218
GlyphClass: 2
Flags: W
LayerCount: 2
Fore
SplineSet
700 1221 m 0,0,1
 700 1165 700 1165 691.5 1096.5 c 128,-1,2
 683 1028 683 1028 669 944 c 128,-1,3
 655 860 655 860 650 820 c 1,4,5
 662 826 662 826 728 862 c 128,-1,6
 794 898 794 898 848.5 927.5 c 128,-1,7
 903 957 903 957 961.5 983 c 128,-1,8
 1020 1009 1020 1009 1040 1009 c 0,9,10
 1078 1009 1078 1009 1104.5 979.5 c 128,-1,11
 1131 950 1131 950 1131 911 c 0,12,13
 1131 880 1131 880 1110 855.5 c 128,-1,14
 1089 831 1089 831 1058 824 c 2,15,-1
 678 741 l 1,16,17
 687 731 687 731 741.5 674.5 c 128,-1,18
 796 618 796 618 839.5 571.5 c 128,-1,19
 883 525 883 525 921.5 470.5 c 128,-1,20
 960 416 960 416 960 389 c 0,21,22
 960 352 960 352 930.5 323.5 c 128,-1,23
 901 295 901 295 863 295 c 0,24,25
 838 295 838 295 815.5 309 c 128,-1,26
 793 323 793 323 782 346 c 2,27,-1
 609 695 l 1,28,-1
 435 346 l 2,29,30
 424 323 424 323 402 309 c 128,-1,31
 380 295 380 295 354 295 c 0,32,33
 316 295 316 295 286.5 323.5 c 128,-1,34
 257 352 257 352 257 389 c 0,35,36
 257 416 257 416 295.5 470.5 c 128,-1,37
 334 525 334 525 377.5 571.5 c 128,-1,38
 421 618 421 618 475.5 674.5 c 128,-1,39
 530 731 530 731 539 741 c 1,40,-1
 159 824 l 2,41,42
 128 831 128 831 107 855.5 c 128,-1,43
 86 880 86 880 86 911 c 0,44,45
 86 950 86 950 112.5 979.5 c 128,-1,46
 139 1009 139 1009 177 1009 c 0,47,48
 197 1009 197 1009 255.5 983 c 128,-1,49
 314 957 314 957 368.5 927.5 c 128,-1,50
 423 898 423 898 489 862 c 128,-1,51
 555 826 555 826 567 820 c 1,52,53
 562 860 562 860 547 946 c 128,-1,54
 532 1032 532 1032 523.5 1100.5 c 128,-1,55
 515 1169 515 1169 515 1226 c 0,56,57
 515 1262 515 1262 543.5 1285.5 c 128,-1,58
 572 1309 572 1309 609 1309 c 0,59,60
 647 1309 647 1309 673.5 1283.5 c 128,-1,61
 700 1258 700 1258 700 1221 c 0,0,1
EndSplineSet
EndChar

StartChar: plus
Encoding: 43 43 14
Width: 1099
GlyphClass: 2
Flags: W
LayerCount: 2
Fore
SplineSet
107 618 m 1,0,1
 161 639 161 639 291 639 c 2,2,-1
 482 639 l 1,3,-1
 482 828 l 2,4,5
 482 956 482 956 490 1012 c 1,6,7
 517 1015 517 1015 550 1015 c 0,8,9
 590 1015 590 1015 608 1012 c 1,10,11
 617 950 617 950 617 830 c 2,12,-1
 617 639 l 1,13,-1
 806 639 l 2,14,15
 920 639 920 639 990 629 c 1,16,17
 993 602 993 602 993 570 c 0,18,19
 993 539 993 539 990 512 c 1,20,21
 933 505 933 505 806 505 c 2,22,-1
 617 505 l 1,23,-1
 617 315 l 2,24,25
 617 202 617 202 607 132 c 1,26,27
 578 129 578 129 548 129 c 0,28,29
 516 129 516 129 489 132 c 1,30,31
 482 189 482 189 482 315 c 2,32,-1
 482 505 l 1,33,-1
 159 505 l 1,34,35
 125 526 125 526 116 550 c 128,-1,36
 107 574 107 574 107 618 c 1,0,1
EndSplineSet
EndChar

StartChar: comma
Encoding: 44 44 15
Width: 563
GlyphClass: 2
Flags: W
LayerCount: 2
Fore
SplineSet
116 -268 m 1,0,1
 98 -238 98 -238 98 -208 c 1,2,3
 108 -205 108 -205 137 -196 c 128,-1,4
 166 -187 166 -187 177 -183 c 128,-1,5
 188 -179 188 -179 212.5 -169 c 128,-1,6
 237 -159 237 -159 247.5 -151.5 c 128,-1,7
 258 -144 258 -144 275 -130 c 128,-1,8
 292 -116 292 -116 299 -101.5 c 128,-1,9
 306 -87 306 -87 312 -67 c 128,-1,10
 318 -47 318 -47 318 -23 c 1,11,12
 290 43 290 43 216 56 c 1,13,14
 169 63 169 63 143.5 94.5 c 128,-1,15
 118 126 118 126 118 174 c 0,16,17
 118 233 118 233 156.5 272 c 128,-1,18
 195 311 195 311 258 311 c 0,19,20
 341 311 341 311 396 240.5 c 128,-1,21
 451 170 451 170 451 45 c 0,22,23
 451 -102 451 -102 354.5 -184 c 128,-1,24
 258 -266 258 -266 116 -268 c 1,0,1
EndSplineSet
EndChar

StartChar: hyphen
Encoding: 45 45 16
Width: 772
GlyphClass: 2
Flags: W
LayerCount: 2
Fore
SplineSet
691 402 m 1,0,-1
 89 402 l 1,1,-1
 89 530 l 1,2,-1
 691 530 l 1,3,-1
 691 402 l 1,0,-1
EndSplineSet
EndChar

StartChar: period
Encoding: 46 46 17
Width: 556
GlyphClass: 2
Flags: W
LayerCount: 2
Fore
SplineSet
277 251 m 128,-1,1
 334 251 334 251 374.5 211 c 128,-1,2
 415 171 415 171 415 116 c 128,-1,3
 415 61 415 61 374.5 20.5 c 128,-1,4
 334 -20 334 -20 277 -20 c 128,-1,5
 220 -20 220 -20 180 20 c 128,-1,6
 140 60 140 60 140 116 c 0,7,8
 140 171 140 171 180 211 c 128,-1,0
 220 251 220 251 277 251 c 128,-1,1
EndSplineSet
EndChar

StartChar: slash
Encoding: 47 47 18
Width: 673
GlyphClass: 2
Flags: W
LayerCount: 2
Fore
SplineSet
655 1378 m 1,0,1
 589 1143 589 1143 411 689 c 128,-1,2
 233 235 233 235 183 89 c 0,3,4
 156 11 156 11 121 -65 c 1,5,6
 101 -70 101 -70 73 -70 c 2,7,-1
 45 -70 l 1,8,9
 40 -50 40 -50 40 -21 c 0,10,11
 40 33 40 33 69 109 c 2,12,-1
 438 1089 l 2,13,14
 442 1099 442 1099 469 1186.5 c 128,-1,15
 496 1274 496 1274 522 1331 c 128,-1,16
 548 1388 548 1388 575 1402 c 1,17,18
 621 1402 621 1402 655 1378 c 1,0,1
EndSplineSet
EndChar

StartChar: zero
Encoding: 48 48 19
Width: 1127
GlyphClass: 2
Flags: W
LayerCount: 2
Fore
SplineSet
557 846 m 0,0,1
 469 846 469 846 406.5 792 c 128,-1,2
 344 738 344 738 316.5 657.5 c 128,-1,3
 289 577 289 577 289 479 c 0,4,5
 289 374 289 374 320.5 281.5 c 128,-1,6
 352 189 352 189 418.5 126.5 c 128,-1,7
 485 64 485 64 572 64 c 0,8,9
 627 64 627 64 671.5 83 c 128,-1,10
 716 102 716 102 747 134.5 c 128,-1,11
 778 167 778 167 799 212 c 128,-1,12
 820 257 820 257 829.5 307.5 c 128,-1,13
 839 358 839 358 839 413 c 0,14,15
 839 519 839 519 806 617 c 128,-1,16
 773 715 773 715 707 780.5 c 128,-1,17
 641 846 641 846 557 846 c 0,0,1
566 -17 m 0,18,19
 449 -17 449 -17 355 22.5 c 128,-1,20
 261 62 261 62 203 127.5 c 128,-1,21
 145 193 145 193 114.5 274.5 c 128,-1,22
 84 356 84 356 84 444 c 0,23,24
 84 513 84 513 102.5 579 c 128,-1,25
 121 645 121 645 160.5 703.5 c 128,-1,26
 200 762 200 762 255.5 806.5 c 128,-1,27
 311 851 311 851 390 876.5 c 128,-1,28
 469 902 469 902 562 902 c 0,29,30
 678 902 678 902 772 862.5 c 128,-1,31
 866 823 866 823 924 757.5 c 128,-1,32
 982 692 982 692 1013 610.5 c 128,-1,33
 1044 529 1044 529 1044 441 c 0,34,35
 1044 372 1044 372 1025.5 306 c 128,-1,36
 1007 240 1007 240 967.5 181.5 c 128,-1,37
 928 123 928 123 872.5 78.5 c 128,-1,38
 817 34 817 34 738 8.5 c 128,-1,39
 659 -17 659 -17 566 -17 c 0,18,19
EndSplineSet
EndChar

StartChar: one
Encoding: 49 49 20
Width: 684
GlyphClass: 2
Flags: W
LayerCount: 2
Fore
SplineSet
465 833 m 2,0,-1
 465 129 l 2,1,2
 465 90 465 90 497 72.5 c 128,-1,3
 529 55 529 55 567.5 55 c 128,-1,4
 606 55 606 55 638 47.5 c 128,-1,5
 670 40 670 40 670 19 c 0,6,7
 670 17 670 17 665 0 c 1,8,-1
 77 0 l 1,9,10
 73 12 73 12 73 17 c 0,11,12
 73 36 73 36 104 44.5 c 128,-1,13
 135 53 135 53 172.5 55.5 c 128,-1,14
 210 58 210 58 241 76 c 128,-1,15
 272 94 272 94 272 130 c 2,16,-1
 272 710 l 2,17,18
 272 744 272 744 241 763.5 c 128,-1,19
 210 783 210 783 172 787 c 128,-1,20
 134 791 134 791 103 800.5 c 128,-1,21
 72 810 72 810 72 828 c 0,22,23
 72 833 72 833 77 846 c 1,24,-1
 443 846 l 2,25,26
 465 846 465 846 465 833 c 2,0,-1
EndSplineSet
EndChar

StartChar: two
Encoding: 50 50 21
Width: 766
GlyphClass: 2
Flags: W
LayerCount: 2
Fore
SplineSet
230 84 m 1,0,-1
 520 97 l 2,1,2
 564 99 564 99 587.5 125 c 128,-1,3
 611 151 611 151 614.5 180.5 c 128,-1,4
 618 210 618 210 627.5 234.5 c 128,-1,5
 637 259 637 259 657 259 c 1,6,-1
 671 256 l 1,7,-1
 654 0 l 1,8,-1
 76 0 l 1,9,-1
 65 38 l 1,10,11
 123 99 123 99 180 167 c 128,-1,12
 237 235 237 235 301.5 324.5 c 128,-1,13
 366 414 366 414 406 502.5 c 128,-1,14
 446 591 446 591 446 657 c 0,15,16
 446 734 446 734 405.5 780.5 c 128,-1,17
 365 827 365 827 289 827 c 0,18,19
 252 827 252 827 220.5 816.5 c 128,-1,20
 189 806 189 806 151.5 786.5 c 128,-1,21
 114 767 114 767 91 759 c 1,22,-1
 78 779 l 1,23,-1
 80 791 l 1,24,25
 112 842 112 842 201.5 872 c 128,-1,26
 291 902 291 902 364 902 c 0,27,28
 487 902 487 902 572.5 834.5 c 128,-1,29
 658 767 658 767 658 647 c 0,30,31
 658 582 658 582 612.5 500 c 128,-1,32
 567 418 567 418 492.5 336.5 c 128,-1,33
 418 255 418 255 356.5 196.5 c 128,-1,34
 295 138 295 138 230 84 c 1,0,-1
EndSplineSet
EndChar

StartChar: three
Encoding: 51 51 22
Width: 890
GlyphClass: 2
Flags: W
LayerCount: 2
Fore
SplineSet
353 -278 m 0,0,1
 477 -278 477 -278 549.5 -191.5 c 128,-1,2
 622 -105 622 -105 622 21 c 0,3,4
 622 82 622 82 607.5 135 c 128,-1,5
 593 188 593 188 564 231 c 128,-1,6
 535 274 535 274 486 299 c 128,-1,7
 437 324 437 324 373 324 c 0,8,9
 327 324 327 324 273 311 c 1,10,-1
 228 363 l 1,11,12
 273 378 273 378 316 396.5 c 128,-1,13
 359 415 359 415 408 444 c 128,-1,14
 457 473 457 473 493.5 505.5 c 128,-1,15
 530 538 530 538 554 582.5 c 128,-1,16
 578 627 578 627 578 674 c 0,17,18
 578 740 578 740 541 773.5 c 128,-1,19
 504 807 504 807 436 807 c 0,20,21
 383 807 383 807 336.5 791.5 c 128,-1,22
 290 776 290 776 233.5 747 c 128,-1,23
 177 718 177 718 145 706 c 1,24,25
 128 715 128 715 128 733 c 1,26,-1
 131 749 l 1,27,28
 187 821 187 821 276 861 c 128,-1,29
 365 901 365 901 459 901 c 0,30,31
 573 901 573 901 652.5 844 c 128,-1,32
 732 787 732 787 732 678 c 0,33,34
 732 558 732 558 641 477.5 c 128,-1,35
 550 397 550 397 427 387 c 1,36,37
 612 387 612 387 717 296.5 c 128,-1,38
 822 206 822 206 822 24 c 0,39,40
 822 -47 822 -47 796.5 -107 c 128,-1,41
 771 -167 771 -167 728 -208.5 c 128,-1,42
 685 -250 685 -250 627.5 -278.5 c 128,-1,43
 570 -307 570 -307 506.5 -320.5 c 128,-1,44
 443 -334 443 -334 376 -334 c 0,45,46
 335 -334 335 -334 291 -329 c 128,-1,47
 247 -324 247 -324 196.5 -310 c 128,-1,48
 146 -296 146 -296 107 -275 c 128,-1,49
 68 -254 68 -254 42 -217.5 c 128,-1,50
 16 -181 16 -181 16 -135 c 0,51,52
 16 -94 16 -94 47.5 -61.5 c 128,-1,53
 79 -29 79 -29 120 -29 c 0,54,55
 155 -29 155 -29 183 -56.5 c 128,-1,56
 211 -84 211 -84 211 -119 c 0,57,58
 211 -134 211 -134 201 -161 c 128,-1,59
 191 -188 191 -188 191 -202 c 0,60,61
 191 -237 191 -237 250.5 -257.5 c 128,-1,62
 310 -278 310 -278 353 -278 c 0,0,1
EndSplineSet
EndChar

StartChar: four
Encoding: 52 52 23
Width: 921
GlyphClass: 2
Flags: W
LayerCount: 2
Fore
SplineSet
500 -168 m 2,0,-1
 500 0 l 1,1,-1
 29 0 l 1,2,-1
 15 47 l 1,3,-1
 489 850 l 1,4,5
 570 867 570 867 693 867 c 1,6,-1
 693 113 l 1,7,-1
 826 113 l 2,8,9
 856 113 856 113 856 53 c 0,10,11
 856 33 856 33 851.5 16.5 c 128,-1,12
 847 0 847 0 841 0 c 2,13,-1
 694 0 l 1,14,-1
 694 -173 l 2,15,16
 694 -201 694 -201 721 -216.5 c 128,-1,17
 748 -232 748 -232 780.5 -235 c 128,-1,18
 813 -238 813 -238 840 -245.5 c 128,-1,19
 867 -253 867 -253 867 -267 c 0,20,21
 867 -276 867 -276 863 -283 c 1,22,-1
 325 -283 l 1,23,24
 321 -272 321 -272 321 -267 c 0,25,26
 321 -250 321 -250 349 -241.5 c 128,-1,27
 377 -233 377 -233 410.5 -230.5 c 128,-1,28
 444 -228 444 -228 472 -212.5 c 128,-1,29
 500 -197 500 -197 500 -168 c 2,0,-1
500 113 m 1,30,-1
 500 713 l 1,31,-1
 126 113 l 1,32,-1
 500 113 l 1,30,-1
EndSplineSet
EndChar

StartChar: five
Encoding: 53 53 24
Width: 910
GlyphClass: 2
Flags: W
LayerCount: 2
Fore
SplineSet
404 303 m 0,0,1
 339 303 339 303 250 263 c 128,-1,2
 161 223 161 223 127 220 c 1,3,4
 118 221 118 221 109.5 227.5 c 128,-1,5
 101 234 101 234 101 243 c 2,6,-1
 101 868 l 1,7,-1
 758 868 l 1,8,-1
 722 733 l 1,9,-1
 177 733 l 1,10,-1
 177 324 l 1,11,12
 304 402 304 402 460 402 c 0,13,14
 644 402 644 402 755 306 c 128,-1,15
 866 210 866 210 866 30 c 0,16,17
 866 -60 866 -60 829 -135 c 128,-1,18
 792 -210 792 -210 729.5 -258.5 c 128,-1,19
 667 -307 667 -307 587 -333.5 c 128,-1,20
 507 -360 507 -360 420 -360 c 0,21,22
 379 -360 379 -360 335 -355 c 128,-1,23
 291 -350 291 -350 240.5 -336 c 128,-1,24
 190 -322 190 -322 151 -301 c 128,-1,25
 112 -280 112 -280 86 -243.5 c 128,-1,26
 60 -207 60 -207 60 -161 c 0,27,28
 60 -120 60 -120 91.5 -87.5 c 128,-1,29
 123 -55 123 -55 164 -55 c 0,30,31
 199 -55 199 -55 227 -82.5 c 128,-1,32
 255 -110 255 -110 255 -145 c 0,33,34
 255 -160 255 -160 245 -187 c 128,-1,35
 235 -214 235 -214 235 -228 c 0,36,37
 235 -263 235 -263 294.5 -283.5 c 128,-1,38
 354 -304 354 -304 397 -304 c 0,39,40
 481 -304 481 -304 544 -253.5 c 128,-1,41
 607 -203 607 -203 636.5 -129 c 128,-1,42
 666 -55 666 -55 666 27 c 0,43,44
 666 154 666 154 598 228.5 c 128,-1,45
 530 303 530 303 404 303 c 0,0,1
EndSplineSet
EndChar

StartChar: six
Encoding: 54 54 25
Width: 994
GlyphClass: 2
Flags: W
LayerCount: 2
Fore
SplineSet
652 1247 m 1,0,1
 667 1251 667 1251 689 1251 c 0,2,3
 705 1251 705 1251 710.5 1245.5 c 128,-1,4
 716 1240 716 1240 716 1223 c 0,5,6
 716 1204 716 1204 696 1197 c 0,7,8
 578 1150 578 1150 468 1020 c 128,-1,9
 358 890 358 890 320 731 c 1,10,11
 430 783 430 783 547 783 c 0,12,13
 721 783 721 783 832.5 678 c 128,-1,14
 944 573 944 573 944 389 c 0,15,16
 944 272 944 272 882.5 177.5 c 128,-1,17
 821 83 821 83 723.5 33 c 128,-1,18
 626 -17 626 -17 516 -17 c 0,19,20
 426 -17 426 -17 353 7 c 128,-1,21
 280 31 280 31 230.5 73.5 c 128,-1,22
 181 116 181 116 147.5 175 c 128,-1,23
 114 234 114 234 98.5 302 c 128,-1,24
 83 370 83 370 83 447 c 0,25,26
 83 575 83 575 125.5 709 c 128,-1,27
 168 843 168 843 240.5 956.5 c 128,-1,28
 313 1070 313 1070 421.5 1150 c 128,-1,29
 530 1230 530 1230 652 1247 c 1,0,1
744 396 m 0,30,31
 744 555 744 555 677.5 636 c 128,-1,32
 611 717 611 717 495 717 c 0,33,34
 406 717 406 717 311 662 c 1,35,36
 287 539 287 539 287 459 c 0,37,38
 287 262 287 262 355.5 157 c 128,-1,39
 424 52 424 52 535 52 c 0,40,41
 624 52 624 52 684 142 c 128,-1,42
 744 232 744 232 744 396 c 0,30,31
EndSplineSet
EndChar

StartChar: seven
Encoding: 55 55 26
Width: 856
GlyphClass: 2
Flags: W
LayerCount: 2
Fore
SplineSet
457 -334 m 1,0,-1
 247 -334 l 1,1,2
 459 416 459 416 688 763 c 1,3,-1
 256 735 l 2,4,5
 214 732 214 732 186 714.5 c 128,-1,6
 158 697 158 697 146 673 c 128,-1,7
 134 649 134 649 126 621.5 c 128,-1,8
 118 594 118 594 114 571 c 128,-1,9
 110 548 110 548 99.5 532.5 c 128,-1,10
 89 517 89 517 71 517 c 0,11,12
 68 517 68 517 64.5 517.5 c 128,-1,13
 61 518 61 518 56.5 519.5 c 128,-1,14
 52 521 52 521 51 521 c 2,15,-1
 74 856 l 1,16,-1
 84 867 l 1,17,-1
 817 867 l 1,18,-1
 832 815 l 1,19,20
 618 382 618 382 457 -334 c 1,0,-1
EndSplineSet
EndChar

StartChar: eight
Encoding: 56 56 27
Width: 1013
GlyphClass: 2
Flags: W
LayerCount: 2
Fore
SplineSet
82 275 m 0,0,1
 82 330 82 330 102.5 379.5 c 128,-1,2
 123 429 123 429 164.5 472.5 c 128,-1,3
 206 516 206 516 247 549 c 128,-1,4
 288 582 288 582 349 623 c 1,5,6
 302 658 302 658 267.5 689.5 c 128,-1,7
 233 721 233 721 201.5 761 c 128,-1,8
 170 801 170 801 153.5 847 c 128,-1,9
 137 893 137 893 137 943 c 0,10,11
 137 1058 137 1058 237 1132.5 c 128,-1,12
 337 1207 337 1207 516 1207 c 0,13,14
 601 1207 601 1207 667 1184.5 c 128,-1,15
 733 1162 733 1162 769 1126 c 128,-1,16
 805 1090 805 1090 823 1050.5 c 128,-1,17
 841 1011 841 1011 841 972 c 0,18,19
 841 880 841 880 791.5 814.5 c 128,-1,20
 742 749 742 749 642 673 c 1,21,22
 694 640 694 640 730 614 c 128,-1,23
 766 588 766 588 808 549 c 128,-1,24
 850 510 850 510 875.5 471 c 128,-1,25
 901 432 901 432 918 378 c 128,-1,26
 935 324 935 324 935 264 c 0,27,28
 935 220 935 220 922.5 180 c 128,-1,29
 910 140 910 140 877.5 101 c 128,-1,30
 845 62 845 62 796 34 c 128,-1,31
 747 6 747 6 668 -11 c 128,-1,32
 589 -28 589 -28 489 -28 c 0,33,34
 307 -28 307 -28 194.5 59 c 128,-1,35
 82 146 82 146 82 275 c 0,0,1
504 41 m 0,36,37
 568 41 568 41 615 62.5 c 128,-1,38
 662 84 662 84 687 119.5 c 128,-1,39
 712 155 712 155 723.5 194.5 c 128,-1,40
 735 234 735 234 735 277 c 0,41,42
 735 308 735 308 720.5 338.5 c 128,-1,43
 706 369 706 369 688 391 c 128,-1,44
 670 413 670 413 632 443 c 128,-1,45
 594 473 594 473 569.5 489.5 c 128,-1,46
 545 506 545 506 494 539 c 2,47,-1
 474 552 l 1,48,49
 410 511 410 511 373 485 c 128,-1,50
 336 459 336 459 294 422.5 c 128,-1,51
 252 386 252 386 233 350.5 c 128,-1,52
 214 315 214 315 214 277 c 0,53,54
 214 167 214 167 288.5 104 c 128,-1,55
 363 41 363 41 504 41 c 0,36,37
315 997 m 0,56,57
 315 923 315 923 369 866 c 128,-1,58
 423 809 423 809 526 746 c 1,59,60
 591 788 591 788 627.5 819 c 128,-1,61
 664 850 664 850 688.5 890.5 c 128,-1,62
 713 931 713 931 713 978 c 0,63,64
 713 1144 713 1144 516 1144 c 0,65,66
 420 1144 420 1144 367.5 1105 c 128,-1,67
 315 1066 315 1066 315 997 c 0,56,57
EndSplineSet
EndChar

StartChar: nine
Encoding: 57 57 28
Width: 1019
GlyphClass: 2
Flags: W
LayerCount: 2
Fore
SplineSet
380 -363 m 1,0,1
 365 -367 365 -367 343 -367 c 0,2,3
 327 -367 327 -367 321.5 -361.5 c 128,-1,4
 316 -356 316 -356 316 -339 c 0,5,6
 316 -321 316 -321 336 -313 c 0,7,8
 454 -267 454 -267 564 -136.5 c 128,-1,9
 674 -6 674 -6 712 153 c 1,10,11
 602 101 602 101 485 101 c 0,12,13
 311 101 311 101 199.5 206 c 128,-1,14
 88 311 88 311 88 495 c 0,15,16
 88 612 88 612 149.5 706.5 c 128,-1,17
 211 801 211 801 308.5 851 c 128,-1,18
 406 901 406 901 516 901 c 0,19,20
 606 901 606 901 679 877 c 128,-1,21
 752 853 752 853 801.5 810.5 c 128,-1,22
 851 768 851 768 884.5 709 c 128,-1,23
 918 650 918 650 933.5 582 c 128,-1,24
 949 514 949 514 949 437 c 0,25,26
 949 309 949 309 906.5 175 c 128,-1,27
 864 41 864 41 791.5 -72.5 c 128,-1,28
 719 -186 719 -186 610.5 -266 c 128,-1,29
 502 -346 502 -346 380 -363 c 1,0,1
288 488 m 0,30,31
 288 329 288 329 354.5 248 c 128,-1,32
 421 167 421 167 537 167 c 0,33,34
 626 167 626 167 721 222 c 1,35,36
 745 345 745 345 745 425 c 0,37,38
 745 622 745 622 676.5 727 c 128,-1,39
 608 832 608 832 497 832 c 0,40,41
 408 832 408 832 348 742 c 128,-1,42
 288 652 288 652 288 488 c 0,30,31
EndSplineSet
EndChar

StartChar: colon
Encoding: 58 58 29
Width: 590
GlyphClass: 2
Flags: W
LayerCount: 2
Fore
SplineSet
294 251 m 128,-1,1
 351 251 351 251 392 211 c 128,-1,2
 433 171 433 171 433 116 c 128,-1,3
 433 61 433 61 392 20.5 c 128,-1,4
 351 -20 351 -20 294 -20 c 128,-1,5
 237 -20 237 -20 197 20 c 128,-1,6
 157 60 157 60 157 116 c 0,7,8
 157 171 157 171 197 211 c 128,-1,0
 237 251 237 251 294 251 c 128,-1,1
294 1039 m 0,9,10
 351 1039 351 1039 392 998.5 c 128,-1,11
 433 958 433 958 433 904 c 0,12,13
 433 849 433 849 392 808.5 c 128,-1,14
 351 768 351 768 294 768 c 128,-1,15
 237 768 237 768 197 808 c 128,-1,16
 157 848 157 848 157 904 c 0,17,18
 157 958 157 958 197.5 998.5 c 128,-1,19
 238 1039 238 1039 294 1039 c 0,9,10
EndSplineSet
EndChar

StartChar: semicolon
Encoding: 59 59 30
Width: 594
GlyphClass: 2
Flags: W
LayerCount: 2
Fore
SplineSet
294 1039 m 0,0,1
 351 1039 351 1039 392 998.5 c 128,-1,2
 433 958 433 958 433 904 c 0,3,4
 433 849 433 849 392 808.5 c 128,-1,5
 351 768 351 768 294 768 c 128,-1,6
 237 768 237 768 197 808 c 128,-1,7
 157 848 157 848 157 904 c 0,8,9
 157 958 157 958 197.5 998.5 c 128,-1,10
 238 1039 238 1039 294 1039 c 0,0,1
133 -268 m 1,11,12
 116 -240 116 -240 116 -208 c 1,13,14
 125 -205 125 -205 154.5 -196 c 128,-1,15
 184 -187 184 -187 195 -183 c 128,-1,16
 206 -179 206 -179 230.5 -169 c 128,-1,17
 255 -159 255 -159 265.5 -151.5 c 128,-1,18
 276 -144 276 -144 292.5 -130 c 128,-1,19
 309 -116 309 -116 316 -101.5 c 128,-1,20
 323 -87 323 -87 329 -67 c 128,-1,21
 335 -47 335 -47 335 -23 c 1,22,23
 307 43 307 43 233 56 c 1,24,25
 187 63 187 63 161 94.5 c 128,-1,26
 135 126 135 126 135 174 c 0,27,28
 135 234 135 234 173.5 272.5 c 128,-1,29
 212 311 212 311 276 311 c 0,30,31
 358 311 358 311 413 240 c 128,-1,32
 468 169 468 169 468 45 c 0,33,34
 468 -103 468 -103 372.5 -184 c 128,-1,35
 277 -265 277 -265 133 -268 c 1,11,12
EndSplineSet
EndChar

StartChar: less
Encoding: 60 60 31
Width: 626
GlyphClass: 2
Flags: W
LayerCount: 2
Fore
SplineSet
479 18 m 0,0,1
 452 18 452 18 435.5 27 c 128,-1,2
 419 36 419 36 403 59 c 2,3,-1
 64 553 l 1,4,5
 80 574 80 574 174.5 709.5 c 128,-1,6
 269 845 269 845 345 940.5 c 128,-1,7
 421 1036 421 1036 469 1068 c 1,8,9
 496 1068 496 1068 519 1052 c 128,-1,10
 542 1036 542 1036 542 1009 c 1,11,12
 511 940 511 940 453 862.5 c 128,-1,13
 395 785 395 785 309 687 c 128,-1,14
 223 589 223 589 195 553 c 1,15,-1
 294 425 l 2,16,17
 393 297 393 297 458.5 199.5 c 128,-1,18
 524 102 524 102 524 69 c 0,19,20
 524 48 524 48 512 33 c 128,-1,21
 500 18 500 18 479 18 c 0,0,1
EndSplineSet
EndChar

StartChar: equal
Encoding: 61 61 32
Width: 845
GlyphClass: 2
Flags: W
LayerCount: 2
Fore
SplineSet
578 729 m 2,0,1
 580 729 580 729 592 729 c 128,-1,2
 604 729 604 729 610 729 c 128,-1,3
 616 729 616 729 629 728.5 c 128,-1,4
 642 728 642 728 649.5 726.5 c 128,-1,5
 657 725 657 725 668.5 723 c 128,-1,6
 680 721 680 721 686.5 717 c 128,-1,7
 693 713 693 713 700 708 c 128,-1,8
 707 703 707 703 710 695.5 c 128,-1,9
 713 688 713 688 713 679 c 0,10,11
 713 663 713 663 703.5 653 c 128,-1,12
 694 643 694 643 675 640 c 128,-1,13
 656 637 656 637 642 636 c 128,-1,14
 628 635 628 635 604.5 636 c 128,-1,15
 581 637 581 637 578 637 c 2,16,-1
 266 637 l 2,17,18
 261 637 261 637 246.5 636.5 c 128,-1,19
 232 636 232 636 222 636 c 128,-1,20
 212 636 212 636 197 637 c 128,-1,21
 182 638 182 638 171.5 641 c 128,-1,22
 161 644 161 644 151 649 c 128,-1,23
 141 654 141 654 136 663 c 128,-1,24
 131 672 131 672 131 684 c 0,25,26
 131 695 131 695 136 703.5 c 128,-1,27
 141 712 141 712 151.5 716.5 c 128,-1,28
 162 721 162 721 171.5 724 c 128,-1,29
 181 727 181 727 196.5 728 c 128,-1,30
 212 729 212 729 221 729.5 c 128,-1,31
 230 730 230 730 245 729.5 c 128,-1,32
 260 729 260 729 263 729 c 2,33,-1
 578 729 l 2,0,1
578 487 m 2,34,35
 580 487 580 487 592 487 c 128,-1,36
 604 487 604 487 610 487 c 128,-1,37
 616 487 616 487 629 486.5 c 128,-1,38
 642 486 642 486 649.5 484.5 c 128,-1,39
 657 483 657 483 668.5 481 c 128,-1,40
 680 479 680 479 686.5 475 c 128,-1,41
 693 471 693 471 700 466 c 128,-1,42
 707 461 707 461 710 453.5 c 128,-1,43
 713 446 713 446 713 437 c 0,44,45
 713 421 713 421 703.5 411 c 128,-1,46
 694 401 694 401 675 398 c 128,-1,47
 656 395 656 395 642 394 c 128,-1,48
 628 393 628 393 604.5 394 c 128,-1,49
 581 395 581 395 578 395 c 2,50,-1
 266 395 l 2,51,52
 261 395 261 395 246.5 394.5 c 128,-1,53
 232 394 232 394 222 394 c 128,-1,54
 212 394 212 394 197 395 c 128,-1,55
 182 396 182 396 171.5 399 c 128,-1,56
 161 402 161 402 151 407 c 128,-1,57
 141 412 141 412 136 421 c 128,-1,58
 131 430 131 430 131 442 c 0,59,60
 131 453 131 453 136 461.5 c 128,-1,61
 141 470 141 470 151.5 474.5 c 128,-1,62
 162 479 162 479 171.5 482 c 128,-1,63
 181 485 181 485 196.5 486 c 128,-1,64
 212 487 212 487 221 487.5 c 128,-1,65
 230 488 230 488 245 487.5 c 128,-1,66
 260 487 260 487 263 487 c 2,67,-1
 578 487 l 2,34,35
EndSplineSet
EndChar

StartChar: greater
Encoding: 62 62 33
Width: 626
GlyphClass: 2
Flags: W
LayerCount: 2
Fore
SplineSet
147 18 m 0,0,1
 126 18 126 18 114 33 c 128,-1,2
 102 48 102 48 102 69 c 0,3,4
 102 103 102 103 167.5 200.5 c 128,-1,5
 233 298 233 298 330.5 423.5 c 128,-1,6
 428 549 428 549 431 553 c 1,7,8
 403 589 403 589 317 687 c 128,-1,9
 231 785 231 785 173 862.5 c 128,-1,10
 115 940 115 940 84 1009 c 1,11,12
 84 1036 84 1036 107 1052 c 128,-1,13
 130 1068 130 1068 157 1068 c 1,14,15
 205 1036 205 1036 281 940.5 c 128,-1,16
 357 845 357 845 451.5 709.5 c 128,-1,17
 546 574 546 574 562 553 c 1,18,-1
 223 59 l 2,19,20
 207 36 207 36 190.5 27 c 128,-1,21
 174 18 174 18 147 18 c 0,0,1
EndSplineSet
EndChar

StartChar: question
Encoding: 63 63 34
Width: 806
GlyphClass: 2
Flags: W
LayerCount: 2
Fore
SplineSet
304 236 m 128,-1,1
 355 236 355 236 392.5 199 c 128,-1,2
 430 162 430 162 430 111 c 128,-1,3
 430 60 430 60 392.5 23.5 c 128,-1,4
 355 -13 355 -13 304 -13 c 0,5,6
 254 -13 254 -13 217.5 24 c 128,-1,7
 181 61 181 61 181 111 c 0,8,9
 181 162 181 162 217 199 c 128,-1,0
 253 236 253 236 304 236 c 128,-1,1
338 358 m 1,10,-1
 257 358 l 1,11,12
 254 386 254 386 239.5 460 c 128,-1,13
 225 534 225 534 225 576 c 0,14,15
 225 602 225 602 252.5 630 c 128,-1,16
 280 658 280 658 320.5 681.5 c 128,-1,17
 361 705 361 705 409 737 c 128,-1,18
 457 769 457 769 497.5 802 c 128,-1,19
 538 835 538 835 565.5 882.5 c 128,-1,20
 593 930 593 930 593 984 c 0,21,22
 593 1078 593 1078 519.5 1148 c 128,-1,23
 446 1218 446 1218 352 1218 c 0,24,25
 328 1218 328 1218 305.5 1205.5 c 128,-1,26
 283 1193 283 1193 265.5 1175 c 128,-1,27
 248 1157 248 1157 230.5 1139 c 128,-1,28
 213 1121 213 1121 190.5 1108.5 c 128,-1,29
 168 1096 168 1096 144 1096 c 0,30,31
 112 1096 112 1096 90 1121.5 c 128,-1,32
 68 1147 68 1147 68 1179 c 0,33,34
 68 1220 68 1220 92.5 1250.5 c 128,-1,35
 117 1281 117 1281 157 1297.5 c 128,-1,36
 197 1314 197 1314 239 1321.5 c 128,-1,37
 281 1329 281 1329 324 1329 c 0,38,39
 420 1329 420 1329 514 1280 c 128,-1,40
 608 1231 608 1231 669 1146.5 c 128,-1,41
 730 1062 730 1062 730 970 c 0,42,43
 730 898 730 898 708.5 840 c 128,-1,44
 687 782 687 782 652.5 744 c 128,-1,45
 618 706 618 706 576 674.5 c 128,-1,46
 534 643 534 643 492 615.5 c 128,-1,47
 450 588 450 588 415.5 559 c 128,-1,48
 381 530 381 530 359.5 489 c 128,-1,49
 338 448 338 448 338 397 c 2,50,-1
 338 358 l 1,10,-1
EndSplineSet
EndChar

StartChar: at
Encoding: 64 64 35
Width: 1697
GlyphClass: 2
Flags: W
LayerCount: 2
Fore
SplineSet
947 1328 m 128,-1,1
 1090 1328 1090 1328 1214.5 1287.5 c 128,-1,2
 1339 1247 1339 1247 1433.5 1170.5 c 128,-1,3
 1528 1094 1528 1094 1582.5 975.5 c 128,-1,4
 1637 857 1637 857 1637 710 c 0,5,6
 1637 654 1637 654 1624.5 590 c 128,-1,7
 1612 526 1612 526 1588.5 461 c 128,-1,8
 1565 396 1565 396 1528.5 337 c 128,-1,9
 1492 278 1492 278 1447.5 232 c 128,-1,10
 1403 186 1403 186 1344.5 158.5 c 128,-1,11
 1286 131 1286 131 1223 131 c 0,12,13
 1146 131 1146 131 1096 186 c 128,-1,14
 1046 241 1046 241 1028 322 c 1,15,16
 976 257 976 257 900 220 c 128,-1,17
 824 183 824 183 741 183 c 0,18,19
 603 183 603 183 529 276 c 128,-1,20
 455 369 455 369 455 510 c 0,21,22
 455 612 455 612 491 710 c 128,-1,23
 527 808 527 808 589.5 885 c 128,-1,24
 652 962 652 962 744.5 1009.5 c 128,-1,25
 837 1057 837 1057 942 1057 c 0,26,27
 1022 1057 1022 1057 1077.5 1030.5 c 128,-1,28
 1133 1004 1133 1004 1162.5 954.5 c 128,-1,29
 1192 905 1192 905 1204.5 846.5 c 128,-1,30
 1217 788 1217 788 1217 711 c 0,31,32
 1217 642 1217 642 1201.5 506 c 128,-1,33
 1186 370 1186 370 1186 302 c 0,34,35
 1186 181 1186 181 1251 181 c 0,36,37
 1301 181 1301 181 1340 241 c 128,-1,38
 1379 301 1379 301 1399 387 c 128,-1,39
 1419 473 1419 473 1429 548 c 128,-1,40
 1439 623 1439 623 1439 673 c 0,41,42
 1439 768 1439 768 1420.5 855.5 c 128,-1,43
 1402 943 1402 943 1362 1020 c 128,-1,44
 1322 1097 1322 1097 1264 1153.5 c 128,-1,45
 1206 1210 1206 1210 1122.5 1242.5 c 128,-1,46
 1039 1275 1039 1275 938 1275 c 0,47,48
 813 1275 813 1275 704 1227 c 128,-1,49
 595 1179 595 1179 518 1098 c 128,-1,50
 441 1017 441 1017 385.5 911.5 c 128,-1,51
 330 806 330 806 303.5 690 c 128,-1,52
 277 574 277 574 277 457 c 0,53,54
 277 -26 277 -26 760 -26 c 0,55,56
 880 -26 880 -26 1005 10 c 1,57,-1
 998 -63 l 1,58,59
 845 -112 845 -112 696 -112 c 0,60,61
 568 -112 568 -112 454 -74 c 128,-1,62
 340 -36 340 -36 253 34 c 128,-1,63
 166 104 166 104 115 212.5 c 128,-1,64
 64 321 64 321 64 453 c 0,65,66
 64 597 64 597 109 731 c 128,-1,67
 154 865 154 865 236 972.5 c 128,-1,68
 318 1080 318 1080 426.5 1160.5 c 128,-1,69
 535 1241 535 1241 669.5 1284.5 c 128,-1,0
 804 1328 804 1328 947 1328 c 128,-1,1
1059 739 m 0,70,71
 1059 783 1059 783 1054.5 822.5 c 128,-1,72
 1050 862 1050 862 1037.5 910.5 c 128,-1,73
 1025 959 1025 959 995 988.5 c 128,-1,74
 965 1018 965 1018 921 1018 c 0,75,76
 846 1018 846 1018 785 964.5 c 128,-1,77
 724 911 724 911 689 831 c 128,-1,78
 654 751 654 751 635.5 669 c 128,-1,79
 617 587 617 587 617 519 c 0,80,81
 617 473 617 473 624 431 c 128,-1,82
 631 389 631 389 647.5 346 c 128,-1,83
 664 303 664 303 698 277 c 128,-1,84
 732 251 732 251 781 251 c 0,85,86
 901 251 901 251 1025 358 c 1,87,88
 1028 387 1028 387 1038.5 474.5 c 128,-1,89
 1049 562 1049 562 1054 622 c 128,-1,90
 1059 682 1059 682 1059 739 c 0,70,71
EndSplineSet
EndChar

StartChar: A
Encoding: 65 65 36
Width: 1366
GlyphClass: 2
Flags: W
LayerCount: 2
Fore
SplineSet
427 620 m 1,0,-1
 807 620 l 1,1,-1
 610 1112 l 1,2,-1
 427 620 l 1,0,-1
965 180 m 0,3,4
 965 196 965 196 948.5 248 c 128,-1,5
 932 300 932 300 913.5 349.5 c 128,-1,6
 895 399 895 399 871.5 460.5 c 128,-1,7
 848 522 848 522 844 532 c 1,8,-1
 393 532 l 1,9,10
 390 524 390 524 367 466 c 128,-1,11
 344 408 344 408 326.5 360.5 c 128,-1,12
 309 313 309 313 293 257.5 c 128,-1,13
 277 202 277 202 277 175 c 0,14,15
 277 156 277 156 284.5 140.5 c 128,-1,16
 292 125 292 125 307.5 113.5 c 128,-1,17
 323 102 323 102 337 94 c 128,-1,18
 351 86 351 86 375.5 79 c 128,-1,19
 400 72 400 72 412.5 69 c 128,-1,20
 425 66 425 66 449 61 c 2,21,-1
 468 57 l 1,22,-1
 468 0 l 1,23,-1
 -4 0 l 1,24,-1
 -4 52 l 1,25,26
 16 69 16 69 50 81.5 c 128,-1,27
 84 94 84 94 111 111.5 c 128,-1,28
 138 129 138 129 156 163 c 0,29,30
 163 176 163 176 202 273 c 1,31,-1
 576 1231 l 2,32,33
 580 1241 580 1241 582.5 1275.5 c 128,-1,34
 585 1310 585 1310 595 1324 c 1,35,36
 689 1324 689 1324 751 1277 c 1,37,-1
 1210 176 l 2,38,39
 1223 144 1223 144 1243.5 123.5 c 128,-1,40
 1264 103 1264 103 1282 95 c 128,-1,41
 1300 87 1300 87 1332 74.5 c 128,-1,42
 1364 62 1364 62 1383 52 c 1,43,-1
 1381 0 l 1,44,-1
 799 0 l 1,45,-1
 797 52 l 1,46,47
 824 60 824 60 838.5 65 c 128,-1,48
 853 70 853 70 881 82 c 128,-1,49
 909 94 909 94 924 106 c 128,-1,50
 939 118 939 118 952 137.5 c 128,-1,51
 965 157 965 157 965 180 c 0,3,4
EndSplineSet
EndChar

StartChar: B
Encoding: 66 66 37
Width: 1380
GlyphClass: 2
Flags: W
LayerCount: 2
Fore
SplineSet
279 221 m 2,0,-1
 279 1023 l 2,1,2
 279 1076 279 1076 273 1110 c 128,-1,3
 267 1144 267 1144 258 1162.5 c 128,-1,4
 249 1181 249 1181 228.5 1193.5 c 128,-1,5
 208 1206 208 1206 189 1211 c 128,-1,6
 170 1216 170 1216 132 1227 c 128,-1,7
 94 1238 94 1238 63 1251 c 1,8,-1
 65 1302 l 1,9,-1
 633 1302 l 2,10,11
 696 1302 696 1302 740 1300.5 c 128,-1,12
 784 1299 784 1299 851.5 1292.5 c 128,-1,13
 919 1286 919 1286 965.5 1273.5 c 128,-1,14
 1012 1261 1012 1261 1065 1236.5 c 128,-1,15
 1118 1212 1118 1212 1150.5 1178.5 c 128,-1,16
 1183 1145 1183 1145 1204.5 1093 c 128,-1,17
 1226 1041 1226 1041 1226 975 c 0,18,19
 1226 730 1226 730 865 669 c 1,20,21
 924 666 924 666 981.5 654 c 128,-1,22
 1039 642 1039 642 1096 617 c 128,-1,23
 1153 592 1153 592 1196 556.5 c 128,-1,24
 1239 521 1239 521 1265.5 467.5 c 128,-1,25
 1292 414 1292 414 1292 349 c 0,26,27
 1292 272 1292 272 1260 210 c 128,-1,28
 1228 148 1228 148 1177 110 c 128,-1,29
 1126 72 1126 72 1058 46 c 128,-1,30
 990 20 990 20 922.5 10 c 128,-1,31
 855 0 855 0 785 0 c 2,32,-1
 65 0 l 1,33,-1
 63 52 l 1,34,35
 74 55 74 55 104 63 c 128,-1,36
 134 71 134 71 148 76 c 128,-1,37
 162 81 162 81 187 90.5 c 128,-1,38
 212 100 212 100 224.5 110.5 c 128,-1,39
 237 121 237 121 252 137 c 128,-1,40
 267 153 267 153 273 174 c 128,-1,41
 279 195 279 195 279 221 c 2,0,-1
519 630 m 1,42,43
 494 608 494 608 494 542 c 2,44,-1
 494 274 l 2,45,46
 494 232 494 232 501.5 193.5 c 128,-1,47
 509 155 509 155 535.5 121 c 128,-1,48
 562 87 562 87 604 87 c 2,49,-1
 766 87 l 2,50,51
 884 87 884 87 963 154 c 128,-1,52
 1042 221 1042 221 1042 336 c 0,53,54
 1042 383 1042 383 1030.5 422.5 c 128,-1,55
 1019 462 1019 462 1001 490.5 c 128,-1,56
 983 519 983 519 952.5 541.5 c 128,-1,57
 922 564 922 564 894 578.5 c 128,-1,58
 866 593 866 593 823.5 603 c 128,-1,59
 781 613 781 613 749.5 618.5 c 128,-1,60
 718 624 718 624 670 626.5 c 128,-1,61
 622 629 622 629 593.5 629.5 c 128,-1,62
 565 630 565 630 519 630 c 1,42,43
494 1227 m 1,63,-1
 494 730 l 1,64,65
 528 700 528 700 574 700 c 2,66,-1
 707 700 l 2,67,68
 1027 700 1027 700 1027 943 c 0,69,70
 1027 1001 1027 1001 1009.5 1047 c 128,-1,71
 992 1093 992 1093 968 1122.5 c 128,-1,72
 944 1152 944 1152 900 1172.5 c 128,-1,73
 856 1193 856 1193 821 1203.5 c 128,-1,74
 786 1214 786 1214 727 1219.5 c 128,-1,75
 668 1225 668 1225 634.5 1226 c 128,-1,76
 601 1227 601 1227 540 1227 c 2,77,-1
 494 1227 l 1,63,-1
EndSplineSet
EndChar

StartChar: C
Encoding: 67 67 38
Width: 1438
GlyphClass: 2
Flags: W
LayerCount: 2
Fore
SplineSet
1279 1245 m 1,0,-1
 1320 943 l 1,1,-1
 1273 941 l 1,2,3
 1254 960 1254 960 1215 1028 c 128,-1,4
 1176 1096 1176 1096 1155 1117 c 0,5,6
 1022 1250 1022 1250 835 1250 c 0,7,8
 738 1250 738 1250 650.5 1212 c 128,-1,9
 563 1174 563 1174 494.5 1103.5 c 128,-1,10
 426 1033 426 1033 385.5 923.5 c 128,-1,11
 345 814 345 814 345 680 c 0,12,13
 345 406 345 406 490 243.5 c 128,-1,14
 635 81 635 81 877 81 c 0,15,16
 1013 81 1013 81 1118.5 137.5 c 128,-1,17
 1224 194 1224 194 1282 304 c 1,18,-1
 1331 297 l 1,19,-1
 1322 108 l 1,20,21
 1213 47 1213 47 1070.5 10.5 c 128,-1,22
 928 -26 928 -26 805 -26 c 0,23,24
 609 -26 609 -26 452 53 c 128,-1,25
 295 132 295 132 203 285 c 128,-1,26
 111 438 111 438 111 640 c 0,27,28
 111 783 111 783 164.5 908.5 c 128,-1,29
 218 1034 218 1034 314 1127 c 128,-1,30
 410 1220 410 1220 552.5 1273.5 c 128,-1,31
 695 1327 695 1327 863 1327 c 0,32,33
 1068 1327 1068 1327 1279 1245 c 1,0,-1
EndSplineSet
EndChar

StartChar: D
Encoding: 68 68 39
Width: 1597
GlyphClass: 2
Flags: W
LayerCount: 2
Fore
SplineSet
665 1225 m 2,0,-1
 497 1225 l 1,1,-1
 497 271 l 2,2,3
 497 86 497 86 645 80 c 0,4,5
 701 77 701 77 760 77 c 0,6,7
 860 77 860 77 944.5 107.5 c 128,-1,8
 1029 138 1029 138 1087 190 c 128,-1,9
 1145 242 1145 242 1185.5 311 c 128,-1,10
 1226 380 1226 380 1245 455 c 128,-1,11
 1264 530 1264 530 1264 609 c 0,12,13
 1264 741 1264 741 1228.5 851 c 128,-1,14
 1193 961 1193 961 1122 1046 c 128,-1,15
 1051 1131 1051 1131 934.5 1178 c 128,-1,16
 818 1225 818 1225 665 1225 c 2,0,-1
282 219 m 2,17,-1
 282 1010 l 2,18,19
 282 1069 282 1069 272 1131 c 0,20,21
 268 1154 268 1154 252 1172 c 128,-1,22
 236 1190 236 1190 210 1201.5 c 128,-1,23
 184 1213 184 1213 161.5 1220.5 c 128,-1,24
 139 1228 139 1228 106 1237 c 128,-1,25
 73 1246 73 1246 58 1251 c 1,26,-1
 60 1302 l 1,27,-1
 652 1302 l 2,28,29
 799 1302 799 1302 923.5 1280.5 c 128,-1,30
 1048 1259 1048 1259 1156.5 1210.5 c 128,-1,31
 1265 1162 1265 1162 1340.5 1088.5 c 128,-1,32
 1416 1015 1416 1015 1459 905.5 c 128,-1,33
 1502 796 1502 796 1502 658 c 0,34,35
 1502 556 1502 556 1473 460.5 c 128,-1,36
 1444 365 1444 365 1384.5 281 c 128,-1,37
 1325 197 1325 197 1240.5 134.5 c 128,-1,38
 1156 72 1156 72 1037 36 c 128,-1,39
 918 0 918 0 779 0 c 2,40,-1
 60 0 l 1,41,-1
 58 52 l 1,42,43
 74 57 74 57 116.5 66.5 c 128,-1,44
 159 76 159 76 180.5 84 c 128,-1,45
 202 92 202 92 229.5 108.5 c 128,-1,46
 257 125 257 125 269.5 152.5 c 128,-1,47
 282 180 282 180 282 219 c 2,17,-1
EndSplineSet
EndChar

StartChar: E
Encoding: 69 69 40
Width: 1360
GlyphClass: 2
Flags: W
LayerCount: 2
Fore
SplineSet
1236 342 m 1,0,-1
 1299 342 l 1,1,-1
 1233 -9 l 1,2,3
 1216 -12 1216 -12 1201 -12 c 0,4,5
 1182 -12 1182 -12 1144 -6 c 128,-1,6
 1106 0 1106 0 1086 0 c 2,7,-1
 60 0 l 1,8,-1
 58 49 l 1,9,10
 94 69 94 69 134.5 78.5 c 128,-1,11
 175 88 175 88 196 91 c 128,-1,12
 217 94 217 94 236.5 108.5 c 128,-1,13
 256 123 256 123 263.5 160 c 128,-1,14
 271 197 271 197 271 267 c 2,15,-1
 271 1024 l 2,16,17
 271 1074 271 1074 265 1106.5 c 128,-1,18
 259 1139 259 1139 251 1158 c 128,-1,19
 243 1177 243 1177 222 1190 c 128,-1,20
 201 1203 201 1203 183 1209 c 128,-1,21
 165 1215 165 1215 126.5 1227 c 128,-1,22
 88 1239 88 1239 58 1251 c 1,23,-1
 60 1302 l 1,24,-1
 1080 1302 l 2,25,26
 1098 1302 1098 1302 1134 1307 c 128,-1,27
 1170 1312 1170 1312 1188 1312 c 0,28,29
 1209 1312 1209 1312 1225 1308 c 1,30,-1
 1225 997 l 1,31,-1
 1173 995 l 1,32,33
 1153 1015 1153 1015 1136.5 1049.5 c 128,-1,34
 1120 1084 1120 1084 1110 1112.5 c 128,-1,35
 1100 1141 1100 1141 1078 1168.5 c 128,-1,36
 1056 1196 1056 1196 1023 1207 c 0,37,38
 938 1235 938 1235 692 1235 c 0,39,40
 564 1235 564 1235 490 1226 c 1,41,42
 486 1181 486 1181 486 1123 c 2,43,-1
 486 717 l 1,44,-1
 774 717 l 2,45,46
 814 717 814 717 841.5 719 c 128,-1,47
 869 721 869 721 892 730 c 128,-1,48
 915 739 915 739 928 746.5 c 128,-1,49
 941 754 941 754 957.5 775 c 128,-1,50
 974 796 974 796 983 812 c 128,-1,51
 992 828 992 828 1012 864 c 2,52,-1
 1027 891 l 1,53,-1
 1084 891 l 1,54,-1
 1084 462 l 1,55,-1
 1027 459 l 1,56,57
 995 545 995 545 945.5 593 c 128,-1,58
 896 641 896 641 813 641 c 2,59,-1
 486 641 l 1,60,-1
 486 304 l 2,61,62
 486 250 486 250 492 211.5 c 128,-1,63
 498 173 498 173 512 147.5 c 128,-1,64
 526 122 526 122 543 106 c 128,-1,65
 560 90 560 90 588.5 82.5 c 128,-1,66
 617 75 617 75 644 72.5 c 128,-1,67
 671 70 671 70 714 70 c 2,68,-1
 812 70 l 2,69,70
 870 70 870 70 914.5 74.5 c 128,-1,71
 959 79 959 79 1011 93 c 128,-1,72
 1063 107 1063 107 1102.5 137.5 c 128,-1,73
 1142 168 1142 168 1165 215 c 0,74,75
 1170 225 1170 225 1183.5 255.5 c 128,-1,76
 1197 286 1197 286 1209 306 c 128,-1,77
 1221 326 1221 326 1236 342 c 1,0,-1
EndSplineSet
EndChar

StartChar: F
Encoding: 70 70 41
Width: 1274
GlyphClass: 2
Flags: W
LayerCount: 2
Fore
SplineSet
1075 901 m 1,0,-1
 1075 466 l 1,1,2
 1046 463 1046 463 1018 463 c 1,3,4
 989 522 989 522 970 553.5 c 128,-1,5
 951 585 951 585 931.5 609 c 128,-1,6
 912 633 912 633 884.5 641.5 c 128,-1,7
 857 650 857 650 828 653.5 c 128,-1,8
 799 657 799 657 745 657 c 2,9,-1
 496 657 l 1,10,-1
 496 258 l 2,11,12
 496 204 496 204 504 169.5 c 128,-1,13
 512 135 512 135 525 118 c 128,-1,14
 538 101 538 101 562 92 c 128,-1,15
 586 83 586 83 609 80.5 c 128,-1,16
 632 78 632 78 670 70.5 c 128,-1,17
 708 63 708 63 740 52 c 1,18,-1
 740 0 l 1,19,-1
 66 0 l 1,20,-1
 64 52 l 1,21,22
 99 68 99 68 140 77 c 128,-1,23
 181 86 181 86 202.5 90 c 128,-1,24
 224 94 224 94 244.5 109.5 c 128,-1,25
 265 125 265 125 273 161 c 128,-1,26
 281 197 281 197 281 261 c 2,27,-1
 281 1021 l 2,28,29
 281 1073 281 1073 274.5 1107 c 128,-1,30
 268 1141 268 1141 259.5 1160.5 c 128,-1,31
 251 1180 251 1180 228.5 1193 c 128,-1,32
 206 1206 206 1206 187.5 1212 c 128,-1,33
 169 1218 169 1218 129 1229 c 128,-1,34
 89 1240 89 1240 58 1251 c 1,35,-1
 58 1302 l 1,36,37
 224 1302 224 1302 558 1303.5 c 128,-1,38
 892 1305 892 1305 1059 1305 c 2,39,-1
 1227 1305 l 1,40,-1
 1227 995 l 1,41,-1
 1182 993 l 1,42,43
 1159 1018 1159 1018 1129 1077.5 c 128,-1,44
 1099 1137 1099 1137 1066 1175.5 c 128,-1,45
 1033 1214 1033 1214 982 1222 c 0,46,47
 912 1232 912 1232 769 1232 c 2,48,-1
 577 1232 l 2,49,50
 524 1232 524 1232 510 1221 c 128,-1,51
 496 1210 496 1210 496 1160 c 2,52,-1
 496 733 l 1,53,54
 538 733 538 733 608 731 c 128,-1,55
 678 729 678 729 709 729 c 0,56,57
 827 729 827 729 903 749 c 0,58,59
 934 757 934 757 953.5 781 c 128,-1,60
 973 805 973 805 990.5 847.5 c 128,-1,61
 1008 890 1008 890 1016 903 c 1,62,-1
 1075 901 l 1,0,-1
EndSplineSet
EndChar

StartChar: G
Encoding: 71 71 42
Width: 1558
GlyphClass: 2
Flags: W
LayerCount: 2
Fore
SplineSet
1365 463 m 2,0,-1
 1365 95 l 1,1,2
 1260 40 1260 40 1124 7 c 128,-1,3
 988 -26 988 -26 849 -26 c 0,4,5
 507 -26 507 -26 299 156 c 128,-1,6
 91 338 91 338 91 638 c 0,7,8
 91 791 91 791 155 921 c 128,-1,9
 219 1051 219 1051 327.5 1139.5 c 128,-1,10
 436 1228 436 1228 581 1277.5 c 128,-1,11
 726 1327 726 1327 886 1327 c 0,12,13
 1004 1327 1004 1327 1102.5 1309 c 128,-1,14
 1201 1291 1201 1291 1325 1247 c 1,15,-1
 1355 945 l 1,16,17
 1324 942 1324 942 1297 942 c 1,18,19
 1277 960 1277 960 1244.5 1022 c 128,-1,20
 1212 1084 1212 1084 1199 1100 c 0,21,22
 1073 1250 1073 1250 860 1250 c 0,23,24
 708 1250 708 1250 586.5 1175 c 128,-1,25
 465 1100 465 1100 397.5 968.5 c 128,-1,26
 330 837 330 837 330 675 c 0,27,28
 330 408 330 408 479.5 235 c 128,-1,29
 629 62 629 62 866 62 c 0,30,31
 1028 62 1028 62 1133 127 c 1,32,33
 1145 229 1145 229 1145 381 c 0,34,35
 1145 476 1145 476 1117 553 c 0,36,37
 1106 583 1106 583 1073 597 c 128,-1,38
 1040 611 1040 611 993 618 c 128,-1,39
 946 625 946 625 929 632 c 1,40,-1
 931 684 l 1,41,-1
 1531 684 l 1,42,43
 1533 648 1533 648 1533 632 c 1,44,45
 1525 629 1525 629 1499 620 c 128,-1,46
 1473 611 1473 611 1463.5 606.5 c 128,-1,47
 1454 602 1454 602 1433.5 592 c 128,-1,48
 1413 582 1413 582 1404.5 571.5 c 128,-1,49
 1396 561 1396 561 1384.5 545.5 c 128,-1,50
 1373 530 1373 530 1369 509.5 c 128,-1,51
 1365 489 1365 489 1365 463 c 2,0,-1
EndSplineSet
EndChar

StartChar: H
Encoding: 72 72 43
Width: 1695
GlyphClass: 2
Flags: W
LayerCount: 2
Fore
SplineSet
1204 625 m 1,0,-1
 490 625 l 1,1,-1
 490 255 l 2,2,3
 490 193 490 193 498.5 158 c 128,-1,4
 507 123 507 123 528 107.5 c 128,-1,5
 549 92 549 92 571 87.5 c 128,-1,6
 593 83 593 83 635 74.5 c 128,-1,7
 677 66 677 66 712 52 c 1,8,-1
 710 0 l 1,9,-1
 66 0 l 1,10,11
 63 51 63 51 63 52 c 0,12,13
 100 68 100 68 142 77.5 c 128,-1,14
 184 87 184 87 204 91.5 c 128,-1,15
 224 96 224 96 243 112.5 c 128,-1,16
 262 129 262 129 268.5 164.5 c 128,-1,17
 275 200 275 200 275 265 c 2,18,-1
 275 1038 l 2,19,20
 275 1099 275 1099 267.5 1133.5 c 128,-1,21
 260 1168 260 1168 240 1185 c 128,-1,22
 220 1202 220 1202 200 1208 c 128,-1,23
 180 1214 180 1214 139 1225 c 128,-1,24
 98 1236 98 1236 64 1251 c 1,25,-1
 66 1302 l 1,26,-1
 709 1302 l 1,27,-1
 711 1250 l 1,28,29
 677 1234 677 1234 635 1224.5 c 128,-1,30
 593 1215 593 1215 571 1209.5 c 128,-1,31
 549 1204 549 1204 528 1187.5 c 128,-1,32
 507 1171 507 1171 498.5 1135.5 c 128,-1,33
 490 1100 490 1100 490 1037 c 2,34,-1
 490 712 l 1,35,-1
 1204 712 l 1,36,-1
 1204 1047 l 2,37,38
 1204 1103 1204 1103 1196 1136 c 128,-1,39
 1188 1169 1188 1169 1168.5 1185 c 128,-1,40
 1149 1201 1149 1201 1129 1207.5 c 128,-1,41
 1109 1214 1109 1214 1070.5 1225 c 128,-1,42
 1032 1236 1032 1236 1001 1251 c 1,43,-1
 1003 1302 l 1,44,-1
 1630 1302 l 1,45,-1
 1632 1250 l 1,46,47
 1605 1240 1605 1240 1572 1231 c 128,-1,48
 1539 1222 1539 1222 1521.5 1217.5 c 128,-1,49
 1504 1213 1504 1213 1483.5 1204.5 c 128,-1,50
 1463 1196 1463 1196 1453.5 1184.5 c 128,-1,51
 1444 1173 1444 1173 1434.5 1153 c 128,-1,52
 1425 1133 1425 1133 1422 1103 c 128,-1,53
 1419 1073 1419 1073 1419 1030 c 2,54,-1
 1419 267 l 2,55,56
 1419 214 1419 214 1424.5 181 c 128,-1,57
 1430 148 1430 148 1438.5 129.5 c 128,-1,58
 1447 111 1447 111 1467 100.5 c 128,-1,59
 1487 90 1487 90 1505.5 85.5 c 128,-1,60
 1524 81 1524 81 1562 72 c 128,-1,61
 1600 63 1600 63 1632 52 c 1,62,-1
 1632 0 l 1,63,-1
 1003 0 l 1,64,-1
 1001 52 l 1,65,66
 1032 69 1032 69 1069 77.5 c 128,-1,67
 1106 86 1106 86 1127 90 c 128,-1,68
 1148 94 1148 94 1167.5 108 c 128,-1,69
 1187 122 1187 122 1195.5 156 c 128,-1,70
 1204 190 1204 190 1204 252 c 2,71,-1
 1204 625 l 1,0,-1
EndSplineSet
EndChar

StartChar: I
Encoding: 73 73 44
Width: 766
GlyphClass: 2
Flags: W
LayerCount: 2
Fore
SplineSet
491 1081 m 2,0,-1
 491 260 l 2,1,2
 491 197 491 197 499 162 c 128,-1,3
 507 127 507 127 529 110.5 c 128,-1,4
 551 94 551 94 572.5 88.5 c 128,-1,5
 594 83 594 83 639.5 74.5 c 128,-1,6
 685 66 685 66 721 53 c 1,7,-1
 719 0 l 1,8,-1
 54 0 l 1,9,-1
 54 52 l 1,10,11
 90 69 90 69 132.5 76 c 128,-1,12
 175 83 175 83 197 86.5 c 128,-1,13
 219 90 219 90 239.5 106 c 128,-1,14
 260 122 260 122 268 162.5 c 128,-1,15
 276 203 276 203 276 278 c 2,16,-1
 276 1030 l 2,17,18
 276 1103 276 1103 265 1143 c 128,-1,19
 254 1183 254 1183 231 1197 c 128,-1,20
 208 1211 208 1211 183.5 1214 c 128,-1,21
 159 1217 159 1217 120 1225 c 128,-1,22
 81 1233 81 1233 50 1251 c 1,23,-1
 52 1302 l 1,24,-1
 715 1302 l 1,25,-1
 717 1250 l 1,26,27
 698 1243 698 1243 658 1233 c 128,-1,28
 618 1223 618 1223 594.5 1214.5 c 128,-1,29
 571 1206 571 1206 544 1190 c 128,-1,30
 517 1174 517 1174 504 1147 c 128,-1,31
 491 1120 491 1120 491 1081 c 2,0,-1
EndSplineSet
EndChar

StartChar: J
Encoding: 74 74 45
Width: 726
GlyphClass: 2
Flags: W
LayerCount: 2
Fore
SplineSet
49 1302 m 1,0,-1
 716 1302 l 1,1,-1
 716 1251 l 1,2,3
 681 1236 681 1236 638.5 1227 c 128,-1,4
 596 1218 596 1218 573.5 1213.5 c 128,-1,5
 551 1209 551 1209 529 1193.5 c 128,-1,6
 507 1178 507 1178 498 1142.5 c 128,-1,7
 489 1107 489 1107 489 1044 c 2,8,-1
 489 170 l 2,9,10
 489 96 489 96 480 29 c 128,-1,11
 471 -38 471 -38 446.5 -105.5 c 128,-1,12
 422 -173 422 -173 384.5 -222 c 128,-1,13
 347 -271 347 -271 284.5 -302 c 128,-1,14
 222 -333 222 -333 142 -333 c 0,15,16
 98 -333 98 -333 55.5 -322.5 c 128,-1,17
 13 -312 13 -312 -22.5 -282 c 128,-1,18
 -58 -252 -58 -252 -58 -207 c 0,19,20
 -58 -169 -58 -169 -32.5 -145.5 c 128,-1,21
 -7 -122 -7 -122 31 -122 c 0,22,23
 60 -122 60 -122 80 -135.5 c 128,-1,24
 100 -149 100 -149 111.5 -167.5 c 128,-1,25
 123 -186 123 -186 133 -205 c 128,-1,26
 143 -224 143 -224 158.5 -237.5 c 128,-1,27
 174 -251 174 -251 195 -251 c 0,28,29
 274 -251 274 -251 274 6 c 2,30,-1
 274 1035 l 2,31,32
 274 1088 274 1088 267 1121.5 c 128,-1,33
 260 1155 260 1155 250 1173.5 c 128,-1,34
 240 1192 240 1192 217.5 1202.5 c 128,-1,35
 195 1213 195 1213 174.5 1217 c 128,-1,36
 154 1221 154 1221 116 1230 c 128,-1,37
 78 1239 78 1239 46 1250 c 1,38,-1
 49 1302 l 1,0,-1
EndSplineSet
EndChar

StartChar: K
Encoding: 75 75 46
Width: 1568
GlyphClass: 2
Flags: W
LayerCount: 2
Fore
SplineSet
488 1166 m 2,0,-1
 488 716 l 1,1,-1
 574 716 l 1,2,-1
 1070 1178 l 1,3,4
 1074 1190 1074 1190 1074 1200 c 0,5,6
 1074 1226 1074 1226 1044 1237.5 c 128,-1,7
 1014 1249 1014 1249 977.5 1249.5 c 128,-1,8
 941 1250 941 1250 911 1258 c 128,-1,9
 881 1266 881 1266 881 1284 c 0,10,11
 881 1287 881 1287 886 1302 c 1,12,-1
 1430 1302 l 1,13,-1
 1434 1284 l 1,14,15
 1434 1262 1434 1262 1292 1231 c 0,16,17
 1196 1210 1196 1210 1150 1172 c 1,18,-1
 742 784 l 1,19,-1
 1230 130 l 1,20,21
 1246 112 1246 112 1308 91.5 c 128,-1,22
 1370 71 1370 71 1422 52.5 c 128,-1,23
 1474 34 1474 34 1474 18 c 0,24,25
 1474 7 1474 7 1470 0 c 1,26,-1
 786 0 l 1,27,28
 780 13 780 13 780 17 c 0,29,30
 780 33 780 33 807 41.5 c 128,-1,31
 834 50 834 50 867 52.5 c 128,-1,32
 900 55 900 55 927 67 c 128,-1,33
 954 79 954 79 954 102 c 0,34,35
 954 112 954 112 937 134 c 1,36,-1
 578 660 l 1,37,-1
 488 660 l 1,38,-1
 488 124 l 2,39,40
 488 92 488 92 512.5 75.5 c 128,-1,41
 537 59 537 59 571.5 55.5 c 128,-1,42
 606 52 606 52 641 51 c 128,-1,43
 676 50 676 50 700.5 43 c 128,-1,44
 725 36 725 36 725 19 c 0,45,46
 725 17 725 17 720 0 c 1,47,-1
 50 0 l 1,48,49
 46 12 46 12 46 17 c 0,50,51
 46 36 46 36 81.5 44.5 c 128,-1,52
 117 53 117 53 159.5 55.5 c 128,-1,53
 202 58 202 58 237.5 76 c 128,-1,54
 273 94 273 94 273 130 c 2,55,-1
 273 1166 l 2,56,57
 273 1201 273 1201 237.5 1220 c 128,-1,58
 202 1239 202 1239 159 1243 c 128,-1,59
 116 1247 116 1247 80.5 1256.5 c 128,-1,60
 45 1266 45 1266 45 1284 c 0,61,62
 45 1287 45 1287 50 1302 c 1,63,-1
 716 1302 l 1,64,65
 720 1289 720 1289 720 1285 c 0,66,67
 720 1269 720 1269 696 1260.5 c 128,-1,68
 672 1252 672 1252 638 1247.5 c 128,-1,69
 604 1243 604 1243 570 1236.5 c 128,-1,70
 536 1230 536 1230 512 1212.5 c 128,-1,71
 488 1195 488 1195 488 1166 c 2,0,-1
EndSplineSet
EndChar

StartChar: L
Encoding: 76 76 47
Width: 1273
GlyphClass: 2
Flags: W
LayerCount: 2
Fore
SplineSet
276 240 m 2,0,-1
 276 1034 l 2,1,2
 276 1088 276 1088 269.5 1122 c 128,-1,3
 263 1156 263 1156 253.5 1174.5 c 128,-1,4
 244 1193 244 1193 221.5 1204 c 128,-1,5
 199 1215 199 1215 179 1219.5 c 128,-1,6
 159 1224 159 1224 119 1232.5 c 128,-1,7
 79 1241 79 1241 46 1251 c 1,8,-1
 48 1302 l 1,9,-1
 724 1302 l 1,10,-1
 724 1250 l 1,11,12
 687 1235 687 1235 642.5 1226.5 c 128,-1,13
 598 1218 598 1218 575.5 1213.5 c 128,-1,14
 553 1209 553 1209 531 1193 c 128,-1,15
 509 1177 509 1177 500.5 1141 c 128,-1,16
 492 1105 492 1105 492 1040 c 2,17,-1
 492 312 l 2,18,19
 492 236 492 236 499 194.5 c 128,-1,20
 506 153 506 153 530 124 c 128,-1,21
 554 95 554 95 595 85.5 c 128,-1,22
 636 76 636 76 709 76 c 0,23,24
 731 76 731 76 775.5 75 c 128,-1,25
 820 74 820 74 842 74 c 0,26,27
 952 74 952 74 1027.5 102.5 c 128,-1,28
 1103 131 1103 131 1148 217 c 0,29,30
 1153 227 1153 227 1163.5 249 c 128,-1,31
 1174 271 1174 271 1180.5 284 c 128,-1,32
 1187 297 1187 297 1198.5 314 c 128,-1,33
 1210 331 1210 331 1222 344 c 1,34,-1
 1282 342 l 1,35,-1
 1219 -11 l 1,36,37
 1085 0 1085 0 1000 0 c 2,38,-1
 47 0 l 1,39,-1
 45 54 l 1,40,41
 66 61 66 61 109.5 72.5 c 128,-1,42
 153 84 153 84 175 92.5 c 128,-1,43
 197 101 197 101 224.5 119 c 128,-1,44
 252 137 252 137 264 166.5 c 128,-1,45
 276 196 276 196 276 240 c 2,0,-1
EndSplineSet
EndChar

StartChar: M
Encoding: 77 77 48
Width: 1934
GlyphClass: 2
Flags: W
LayerCount: 2
Fore
SplineSet
1616 1082 m 1,0,-1
 1688 271 l 2,1,2
 1697 169 1697 169 1744 117 c 1,3,4
 1753 92 1753 92 1784.5 82.5 c 128,-1,5
 1816 73 1816 73 1855 68.5 c 128,-1,6
 1894 64 1894 64 1909 52 c 1,7,-1
 1907 0 l 1,8,-1
 1284 0 l 1,9,-1
 1282 52 l 1,10,11
 1292 55 1292 55 1314 62 c 128,-1,12
 1336 69 1336 69 1348 73 c 128,-1,13
 1360 77 1360 77 1380 85 c 128,-1,14
 1400 93 1400 93 1411 100 c 128,-1,15
 1422 107 1422 107 1436 118.5 c 128,-1,16
 1450 130 1450 130 1457.5 143 c 128,-1,17
 1465 156 1465 156 1470.5 173.5 c 128,-1,18
 1476 191 1476 191 1476 211 c 2,19,-1
 1476 224 l 1,20,-1
 1414 1068 l 1,21,22
 1357 912 1357 912 1189 556 c 128,-1,23
 1021 200 1021 200 959 0 c 1,24,-1
 880 0 l 1,25,26
 830 153 830 153 742.5 332.5 c 128,-1,27
 655 512 655 512 557.5 700.5 c 128,-1,28
 460 889 460 889 405 1029 c 1,29,30
 398 950 398 950 379.5 780.5 c 128,-1,31
 361 611 361 611 350.5 480.5 c 128,-1,32
 340 350 340 350 340 232 c 0,33,34
 340 205 340 205 344.5 183 c 128,-1,35
 349 161 349 161 361.5 144.5 c 128,-1,36
 374 128 374 128 383 117.5 c 128,-1,37
 392 107 392 107 415 96 c 128,-1,38
 438 85 438 85 448.5 80.5 c 128,-1,39
 459 76 459 76 489.5 66 c 128,-1,40
 520 56 520 56 531 52 c 1,41,-1
 529 0 l 1,42,-1
 45 0 l 1,43,-1
 43 52 l 1,44,45
 61 59 61 59 97.5 71 c 128,-1,46
 134 83 134 83 152.5 91.5 c 128,-1,47
 171 100 171 100 194.5 116.5 c 128,-1,48
 218 133 218 133 230 158.5 c 128,-1,49
 242 184 242 184 246 220 c 2,50,-1
 322 968 l 2,51,52
 329 1040 329 1040 329 1096 c 0,53,54
 329 1131 329 1131 318 1155 c 128,-1,55
 307 1179 307 1179 286 1192 c 128,-1,56
 265 1205 265 1205 244 1213 c 128,-1,57
 223 1221 223 1221 193 1231 c 128,-1,58
 163 1241 163 1241 144 1251 c 1,59,-1
 146 1302 l 1,60,-1
 535 1302 l 1,61,62
 564 1176 564 1176 622.5 1033 c 128,-1,63
 681 890 681 890 738.5 779 c 128,-1,64
 796 668 796 668 867.5 522.5 c 128,-1,65
 939 377 939 377 982 267 c 1,66,67
 986 275 986 275 1046 399.5 c 128,-1,68
 1106 524 1106 524 1135 587 c 128,-1,69
 1164 650 1164 650 1220.5 778 c 128,-1,70
 1277 906 1277 906 1306.5 987 c 128,-1,71
 1336 1068 1336 1068 1361.5 1158 c 128,-1,72
 1387 1248 1387 1248 1387 1302 c 1,73,-1
 1799 1302 l 1,74,-1
 1801 1250 l 1,75,-1
 1783 1244 l 2,76,77
 1749 1233 1749 1233 1732.5 1226.5 c 128,-1,78
 1716 1220 1716 1220 1689.5 1205.5 c 128,-1,79
 1663 1191 1663 1191 1650 1176.5 c 128,-1,80
 1637 1162 1637 1162 1626.5 1137.5 c 128,-1,81
 1616 1113 1616 1113 1616 1082 c 1,0,-1
EndSplineSet
EndChar

StartChar: N
Encoding: 78 78 49
Width: 1661
GlyphClass: 2
Flags: W
LayerCount: 2
Fore
SplineSet
46 54 m 1,0,1
 61 58 61 58 93 66 c 128,-1,2
 125 74 125 74 141.5 79 c 128,-1,3
 158 84 158 84 184 93.5 c 128,-1,4
 210 103 210 103 224.5 114.5 c 128,-1,5
 239 126 239 126 255.5 143 c 128,-1,6
 272 160 272 160 280 184 c 128,-1,7
 288 208 288 208 291 239 c 1,8,-1
 291 1091 l 1,9,10
 271 1125 271 1125 249 1148 c 128,-1,11
 227 1171 227 1171 201 1185.5 c 128,-1,12
 175 1200 175 1200 154 1208 c 128,-1,13
 133 1216 133 1216 96.5 1228 c 128,-1,14
 60 1240 60 1240 36 1250 c 1,15,-1
 36 1302 l 1,16,-1
 385 1302 l 1,17,-1
 1326 329 l 1,18,-1
 1326 958 l 2,19,20
 1326 1053 1326 1053 1299 1131 c 0,21,22
 1288 1165 1288 1165 1263 1185.5 c 128,-1,23
 1238 1206 1238 1206 1213.5 1212.5 c 128,-1,24
 1189 1219 1189 1219 1152.5 1228.5 c 128,-1,25
 1116 1238 1116 1238 1094 1249 c 1,26,27
 1094 1275 1094 1275 1097 1302 c 1,28,-1
 1624 1302 l 1,29,-1
 1624 1248 l 1,30,31
 1603 1238 1603 1238 1570.5 1224 c 128,-1,32
 1538 1210 1538 1210 1525.5 1204.5 c 128,-1,33
 1513 1199 1513 1199 1491.5 1187 c 128,-1,34
 1470 1175 1470 1175 1463 1168 c 128,-1,35
 1456 1161 1456 1161 1443.5 1145.5 c 128,-1,36
 1431 1130 1431 1130 1428.5 1115.5 c 128,-1,37
 1426 1101 1426 1101 1420.5 1077 c 128,-1,38
 1415 1053 1415 1053 1414 1025.5 c 128,-1,39
 1413 998 1413 998 1413 959 c 0,40,41
 1408 454 1408 454 1408 353 c 0,42,43
 1408 288 1408 288 1419 167 c 128,-1,44
 1430 46 1430 46 1431 -9 c 1,45,46
 1412 -16 1412 -16 1382 -16 c 0,47,48
 1350 -16 1350 -16 1325 -9 c 1,49,50
 1237 100 1237 100 1161 178 c 1,51,-1
 371 1009 l 1,52,-1
 371 307 l 2,53,54
 371 240 371 240 388 172 c 0,55,56
 400 124 400 124 437.5 104.5 c 128,-1,57
 475 85 475 85 532.5 75.5 c 128,-1,58
 590 66 590 66 615 53 c 1,59,60
 615 27 615 27 612 0 c 1,61,-1
 48 0 l 1,62,63
 46 18 46 18 46 54 c 1,0,1
EndSplineSet
EndChar

StartChar: O
Encoding: 79 79 50
Width: 1580
GlyphClass: 2
Flags: W
LayerCount: 2
Fore
SplineSet
333 720 m 0,0,1
 333 532 333 532 395.5 379 c 128,-1,2
 458 226 458 226 571 138.5 c 128,-1,3
 684 51 684 51 825 51 c 0,4,5
 1009 51 1009 51 1127.5 194.5 c 128,-1,6
 1246 338 1246 338 1246 585 c 0,7,8
 1246 771 1246 771 1185 922 c 128,-1,9
 1124 1073 1124 1073 1011.5 1161.5 c 128,-1,10
 899 1250 899 1250 757 1250 c 0,11,12
 670 1250 670 1250 594 1216 c 128,-1,13
 518 1182 518 1182 459.5 1117.5 c 128,-1,14
 401 1053 401 1053 367 950.5 c 128,-1,15
 333 848 333 848 333 720 c 0,0,1
100 637 m 0,16,17
 100 803 100 803 159.5 937 c 128,-1,18
 219 1071 219 1071 317.5 1154.5 c 128,-1,19
 416 1238 416 1238 538 1282.5 c 128,-1,20
 660 1327 660 1327 792 1327 c 0,21,22
 932 1327 932 1327 1057 1278.5 c 128,-1,23
 1182 1230 1182 1230 1275.5 1143.5 c 128,-1,24
 1369 1057 1369 1057 1424 928.5 c 128,-1,25
 1479 800 1479 800 1479 648 c 0,26,27
 1479 499 1479 499 1422.5 371.5 c 128,-1,28
 1366 244 1366 244 1269.5 157.5 c 128,-1,29
 1173 71 1173 71 1044 22.5 c 128,-1,30
 915 -26 915 -26 772 -26 c 0,31,32
 641 -26 641 -26 520 20.5 c 128,-1,33
 399 67 399 67 305.5 150 c 128,-1,34
 212 233 212 233 156 360 c 128,-1,35
 100 487 100 487 100 637 c 0,16,17
EndSplineSet
EndChar

StartChar: P
Encoding: 80 80 51
Width: 1294
GlyphClass: 2
Flags: W
LayerCount: 2
Fore
SplineSet
274 222 m 2,0,-1
 274 1031 l 2,1,2
 274 1081 274 1081 268 1114 c 128,-1,3
 262 1147 262 1147 252.5 1165 c 128,-1,4
 243 1183 243 1183 222.5 1194.5 c 128,-1,5
 202 1206 202 1206 183 1211.5 c 128,-1,6
 164 1217 164 1217 128.5 1227.5 c 128,-1,7
 93 1238 93 1238 63 1251 c 1,8,-1
 65 1302 l 1,9,-1
 561 1302 l 2,10,11
 617 1302 617 1302 656 1301.5 c 128,-1,12
 695 1301 695 1301 755 1297 c 128,-1,13
 815 1293 815 1293 858 1286.5 c 128,-1,14
 901 1280 901 1280 955 1267 c 128,-1,15
 1009 1254 1009 1254 1047 1236 c 128,-1,16
 1085 1218 1085 1218 1124 1190 c 128,-1,17
 1163 1162 1163 1162 1187 1127 c 128,-1,18
 1211 1092 1211 1092 1226 1044 c 128,-1,19
 1241 996 1241 996 1241 939 c 0,20,21
 1241 841 1241 841 1204 764.5 c 128,-1,22
 1167 688 1167 688 1102.5 641.5 c 128,-1,23
 1038 595 1038 595 956.5 571.5 c 128,-1,24
 875 548 875 548 780 548 c 0,25,26
 735 548 735 548 653.5 566.5 c 128,-1,27
 572 585 572 585 572 614 c 0,28,29
 572 632 572 632 616 632 c 2,30,-1
 631 632 l 2,31,32
 701 632 701 632 752.5 638 c 128,-1,33
 804 644 804 644 855 662 c 128,-1,34
 906 680 906 680 937.5 711.5 c 128,-1,35
 969 743 969 743 988.5 797 c 128,-1,36
 1008 851 1008 851 1008 925 c 0,37,38
 1008 993 1008 993 983 1047 c 128,-1,39
 958 1101 958 1101 917 1135 c 128,-1,40
 876 1169 876 1169 820.5 1191.5 c 128,-1,41
 765 1214 765 1214 707.5 1223 c 128,-1,42
 650 1232 650 1232 587 1232 c 0,43,44
 543 1232 543 1232 490 1227 c 1,45,-1
 490 275 l 2,46,47
 490 215 490 215 496 179 c 128,-1,48
 502 143 502 143 512 124.5 c 128,-1,49
 522 106 522 106 543 97 c 128,-1,50
 564 88 564 88 585 85 c 128,-1,51
 606 82 606 82 644 74 c 128,-1,52
 682 66 682 66 717 52 c 1,53,-1
 715 0 l 1,54,-1
 65 0 l 1,55,-1
 62 52 l 1,56,57
 72 55 72 55 98 62 c 128,-1,58
 124 69 124 69 136 72.5 c 128,-1,59
 148 76 148 76 170.5 84.5 c 128,-1,60
 193 93 193 93 204.5 100.5 c 128,-1,61
 216 108 216 108 231.5 120.5 c 128,-1,62
 247 133 247 133 255 146.5 c 128,-1,63
 263 160 263 160 268.5 179.5 c 128,-1,64
 274 199 274 199 274 222 c 2,0,-1
EndSplineSet
EndChar

StartChar: Q
Encoding: 81 81 52
Width: 1580
GlyphClass: 2
Flags: W
LayerCount: 2
Fore
SplineSet
334 729 m 0,0,1
 334 577 334 577 372.5 448.5 c 128,-1,2
 411 320 411 320 477.5 233.5 c 128,-1,3
 544 147 544 147 633 99 c 128,-1,4
 722 51 722 51 823 51 c 0,5,6
 910 51 910 51 986 85.5 c 128,-1,7
 1062 120 1062 120 1120.5 185.5 c 128,-1,8
 1179 251 1179 251 1212.5 354.5 c 128,-1,9
 1246 458 1246 458 1246 587 c 0,10,11
 1246 769 1246 769 1185.5 920 c 128,-1,12
 1125 1071 1125 1071 1012.5 1160.5 c 128,-1,13
 900 1250 900 1250 758 1250 c 0,14,15
 577 1250 577 1250 455.5 1107.5 c 128,-1,16
 334 965 334 965 334 729 c 0,0,1
1578 -213 m 1,17,-1
 1590 -285 l 1,18,19
 1503 -314 1503 -314 1386 -314 c 0,20,21
 1287 -314 1287 -314 1216 -298 c 128,-1,22
 1145 -282 1145 -282 1066 -244 c 0,23,24
 981 -204 981 -204 843 -129.5 c 128,-1,25
 705 -55 705 -55 638 -11 c 1,26,27
 392 54 392 54 246 219.5 c 128,-1,28
 100 385 100 385 100 641 c 0,29,30
 100 795 100 795 155 925 c 128,-1,31
 210 1055 210 1055 304.5 1142 c 128,-1,32
 399 1229 399 1229 525 1278 c 128,-1,33
 651 1327 651 1327 792 1327 c 0,34,35
 980 1327 980 1327 1135.5 1245 c 128,-1,36
 1291 1163 1291 1163 1385 1007 c 128,-1,37
 1479 851 1479 851 1479 651 c 0,38,39
 1479 521 1479 521 1435 407 c 128,-1,40
 1391 293 1391 293 1314 209.5 c 128,-1,41
 1237 126 1237 126 1134.5 69 c 128,-1,42
 1032 12 1032 12 912 -11 c 1,43,44
 1129 -115 1129 -115 1254 -155 c 128,-1,45
 1379 -195 1379 -195 1578 -213 c 1,17,-1
EndSplineSet
EndChar

StartChar: R
Encoding: 82 82 53
Width: 1413
GlyphClass: 2
Flags: W
LayerCount: 2
Fore
SplineSet
1269 -26 m 0,0,1
 1202 -26 1202 -26 1138.5 3.5 c 128,-1,2
 1075 33 1075 33 1027.5 75.5 c 128,-1,3
 980 118 980 118 928.5 185 c 128,-1,4
 877 252 877 252 844 305.5 c 128,-1,5
 811 359 811 359 767 432.5 c 128,-1,6
 723 506 723 506 699 542 c 0,7,8
 665 594 665 594 639.5 611 c 128,-1,9
 614 628 614 628 556 632 c 2,10,-1
 493 636 l 1,11,-1
 493 251 l 2,12,13
 493 189 493 189 502 154.5 c 128,-1,14
 511 120 511 120 532 105.5 c 128,-1,15
 553 91 553 91 575.5 87 c 128,-1,16
 598 83 598 83 637 75 c 128,-1,17
 676 67 676 67 709 52 c 1,18,-1
 707 0 l 1,19,-1
 74 0 l 1,20,-1
 72 52 l 1,21,22
 105 70 105 70 143.5 78 c 128,-1,23
 182 86 182 86 202.5 89.5 c 128,-1,24
 223 93 223 93 242.5 108 c 128,-1,25
 262 123 262 123 270 163 c 128,-1,26
 278 203 278 203 278 277 c 2,27,-1
 278 1035 l 2,28,29
 278 1083 278 1083 272 1115 c 128,-1,30
 266 1147 266 1147 256.5 1164.5 c 128,-1,31
 247 1182 247 1182 227 1193.5 c 128,-1,32
 207 1205 207 1205 188.5 1210.5 c 128,-1,33
 170 1216 170 1216 135.5 1227 c 128,-1,34
 101 1238 101 1238 72 1251 c 1,35,-1
 74 1303 l 1,36,-1
 535 1303 l 2,37,38
 592 1303 592 1303 625 1302.5 c 128,-1,39
 658 1302 658 1302 721 1299 c 128,-1,40
 784 1296 784 1296 824.5 1290.5 c 128,-1,41
 865 1285 865 1285 923 1273.5 c 128,-1,42
 981 1262 981 1262 1019 1245.5 c 128,-1,43
 1057 1229 1057 1229 1099 1203.5 c 128,-1,44
 1141 1178 1141 1178 1165.5 1146 c 128,-1,45
 1190 1114 1190 1114 1206.5 1069 c 128,-1,46
 1223 1024 1223 1024 1223 970 c 0,47,48
 1223 898 1223 898 1191 839 c 128,-1,49
 1159 780 1159 780 1105.5 742 c 128,-1,50
 1052 704 1052 704 990 680.5 c 128,-1,51
 928 657 928 657 859 647 c 1,52,53
 895 601 895 601 968 504 c 128,-1,54
 1041 407 1041 407 1099.5 332.5 c 128,-1,55
 1158 258 1158 258 1213 193 c 0,56,57
 1297 94 1297 94 1445 54 c 1,58,-1
 1445 -2 l 1,59,60
 1346 -26 1346 -26 1269 -26 c 0,0,1
493 1227 m 1,61,-1
 493 703 l 1,62,63
 501 703 501 703 518.5 703.5 c 128,-1,64
 536 704 536 704 545 704 c 0,65,66
 589 705 589 705 611.5 705.5 c 128,-1,67
 634 706 634 706 678 709 c 128,-1,68
 722 712 722 712 746.5 716.5 c 128,-1,69
 771 721 771 721 809 730 c 128,-1,70
 847 739 847 739 868.5 751 c 128,-1,71
 890 763 890 763 916.5 782.5 c 128,-1,72
 943 802 943 802 957 826.5 c 128,-1,73
 971 851 971 851 980.5 884.5 c 128,-1,74
 990 918 990 918 990 958 c 0,75,76
 990 1002 990 1002 979.5 1038 c 128,-1,77
 969 1074 969 1074 953.5 1100 c 128,-1,78
 938 1126 938 1126 910.5 1146.5 c 128,-1,79
 883 1167 883 1167 858.5 1180.5 c 128,-1,80
 834 1194 834 1194 794.5 1203 c 128,-1,81
 755 1212 755 1212 727.5 1216.5 c 128,-1,82
 700 1221 700 1221 654.5 1223.5 c 128,-1,83
 609 1226 609 1226 584 1226.5 c 128,-1,84
 559 1227 559 1227 515 1227 c 2,85,-1
 493 1227 l 1,61,-1
EndSplineSet
EndChar

StartChar: S
Encoding: 83 83 54
Width: 1142
GlyphClass: 2
Flags: W
LayerCount: 2
Fore
SplineSet
120 77 m 1,0,-1
 120 400 l 1,1,-1
 179 402 l 1,2,3
 186 391 186 391 192 376.5 c 128,-1,4
 198 362 198 362 201 352 c 128,-1,5
 204 342 204 342 209.5 323 c 128,-1,6
 215 304 215 304 217 297 c 0,7,8
 252 182 252 182 350 120 c 128,-1,9
 448 58 448 58 574 58 c 0,10,11
 679 58 679 58 762.5 113 c 128,-1,12
 846 168 846 168 846 268 c 0,13,14
 846 317 846 317 815.5 362.5 c 128,-1,15
 785 408 785 408 735 444 c 128,-1,16
 685 480 685 480 621.5 519 c 128,-1,17
 558 558 558 558 491.5 592.5 c 128,-1,18
 425 627 425 627 361.5 670.5 c 128,-1,19
 298 714 298 714 248 759 c 128,-1,20
 198 804 198 804 167.5 864 c 128,-1,21
 137 924 137 924 137 991 c 0,22,23
 137 1062 137 1062 164 1120 c 128,-1,24
 191 1178 191 1178 235 1216 c 128,-1,25
 279 1254 279 1254 338 1279.5 c 128,-1,26
 397 1305 397 1305 459 1316 c 128,-1,27
 521 1327 521 1327 587 1327 c 0,28,29
 787 1327 787 1327 968 1234 c 1,30,-1
 981 949 l 1,31,-1
 919 949 l 1,32,33
 913 960 913 960 881 1051 c 0,34,35
 847 1149 847 1149 763.5 1199.5 c 128,-1,36
 680 1250 680 1250 571 1250 c 0,37,38
 515 1250 515 1250 461 1233 c 128,-1,39
 407 1216 407 1216 365.5 1174.5 c 128,-1,40
 324 1133 324 1133 324 1075 c 0,41,42
 324 1023 324 1023 363.5 974.5 c 128,-1,43
 403 926 403 926 466.5 885.5 c 128,-1,44
 530 845 530 845 606 803.5 c 128,-1,45
 682 762 682 762 758.5 715 c 128,-1,46
 835 668 835 668 898.5 616 c 128,-1,47
 962 564 962 564 1001.5 494 c 128,-1,48
 1041 424 1041 424 1041 344 c 0,49,50
 1041 267 1041 267 1013 204 c 128,-1,51
 985 141 985 141 938.5 99 c 128,-1,52
 892 57 892 57 829.5 28 c 128,-1,53
 767 -1 767 -1 699.5 -13.5 c 128,-1,54
 632 -26 632 -26 561 -26 c 0,55,56
 451 -26 451 -26 324.5 1.5 c 128,-1,57
 198 29 198 29 120 77 c 1,0,-1
EndSplineSet
EndChar

StartChar: T
Encoding: 84 84 55
Width: 1395
GlyphClass: 2
Flags: W
LayerCount: 2
Fore
SplineSet
586 241 m 2,0,-1
 586 1228 l 1,1,-1
 440 1228 l 2,2,3
 348 1228 348 1228 294 1220 c 0,4,5
 257 1214 257 1214 224 1185 c 128,-1,6
 191 1156 191 1156 170.5 1123.5 c 128,-1,7
 150 1091 150 1091 123.5 1047 c 128,-1,8
 97 1003 97 1003 80 982 c 1,9,-1
 34 982 l 1,10,-1
 59 1308 l 1,11,12
 213 1302 213 1302 291 1302 c 0,13,14
 388 1302 388 1302 582.5 1300 c 128,-1,15
 777 1298 777 1298 875 1298 c 0,16,17
 1151 1298 1151 1298 1333 1310 c 1,18,-1
 1365 981 l 1,19,-1
 1317 981 l 1,20,21
 1300 1002 1300 1002 1263.5 1067 c 128,-1,22
 1227 1132 1227 1132 1191 1172.5 c 128,-1,23
 1155 1213 1155 1213 1109 1220 c 0,24,25
 1052 1229 1052 1229 954 1229 c 0,26,27
 931 1229 931 1229 886.5 1228.5 c 128,-1,28
 842 1228 842 1228 820 1228 c 2,29,-1
 801 1228 l 1,30,-1
 801 241 l 2,31,32
 801 207 801 207 807 180.5 c 128,-1,33
 813 154 813 154 821 136 c 128,-1,34
 829 118 829 118 847.5 104.5 c 128,-1,35
 866 91 866 91 880 83 c 128,-1,36
 894 75 894 75 923 68.5 c 128,-1,37
 952 62 952 62 970.5 59.5 c 128,-1,38
 989 57 989 57 1027 52 c 1,39,40
 1027 17 1027 17 1025 0 c 1,41,-1
 363 0 l 1,42,-1
 361 52 l 1,43,44
 378 58 378 58 414 68.5 c 128,-1,45
 450 79 450 79 468.5 85 c 128,-1,46
 487 91 487 91 513 105 c 128,-1,47
 539 119 539 119 552.5 135.5 c 128,-1,48
 566 152 566 152 576 179 c 128,-1,49
 586 206 586 206 586 241 c 2,0,-1
EndSplineSet
EndChar

StartChar: U
Encoding: 85 85 56
Width: 1639
GlyphClass: 2
Flags: W
LayerCount: 2
Fore
SplineSet
29 1302 m 1,0,-1
 689 1302 l 1,1,-1
 691 1250 l 1,2,3
 657 1238 657 1238 617 1228.5 c 128,-1,4
 577 1219 577 1219 556 1215 c 128,-1,5
 535 1211 535 1211 513 1200 c 128,-1,6
 491 1189 491 1189 481.5 1169.5 c 128,-1,7
 472 1150 472 1150 465.5 1115 c 128,-1,8
 459 1080 459 1080 459 1023 c 2,9,-1
 459 596 l 2,10,11
 459 504 459 504 471.5 429.5 c 128,-1,12
 484 355 484 355 514.5 289 c 128,-1,13
 545 223 545 223 593 178 c 128,-1,14
 641 133 641 133 715.5 107.5 c 128,-1,15
 790 82 790 82 888 82 c 0,16,17
 1317 82 1317 82 1317 613 c 2,18,-1
 1317 1006 l 2,19,20
 1317 1056 1317 1056 1314 1089 c 128,-1,21
 1311 1122 1311 1122 1301.5 1144.5 c 128,-1,22
 1292 1167 1292 1167 1282 1179.5 c 128,-1,23
 1272 1192 1272 1192 1249.5 1201.5 c 128,-1,24
 1227 1211 1227 1211 1208 1216 c 128,-1,25
 1189 1221 1189 1221 1152 1230.5 c 128,-1,26
 1115 1240 1115 1240 1084 1251 c 1,27,-1
 1084 1302 l 1,28,-1
 1623 1302 l 1,29,-1
 1625 1250 l 1,30,31
 1603 1238 1603 1238 1551.5 1230 c 128,-1,32
 1500 1222 1500 1222 1463.5 1205.5 c 128,-1,33
 1427 1189 1427 1189 1415 1150 c 0,34,35
 1399 1095 1399 1095 1399 1022 c 0,36,37
 1399 972 1399 972 1401 869 c 128,-1,38
 1403 766 1403 766 1403 714 c 0,39,40
 1403 622 1403 622 1398.5 551.5 c 128,-1,41
 1394 481 1394 481 1379.5 400.5 c 128,-1,42
 1365 320 1365 320 1340 261 c 128,-1,43
 1315 202 1315 202 1271 145 c 128,-1,44
 1227 88 1227 88 1166.5 52.5 c 128,-1,45
 1106 17 1106 17 1018.5 -4.5 c 128,-1,46
 931 -26 931 -26 821 -26 c 0,47,48
 736 -26 736 -26 658.5 -10.5 c 128,-1,49
 581 5 581 5 510.5 38.5 c 128,-1,50
 440 72 440 72 386 121 c 128,-1,51
 332 170 332 170 296.5 241.5 c 128,-1,52
 261 313 261 313 251 401 c 0,53,54
 239 517 239 517 239 664 c 0,55,56
 239 725 239 725 241.5 845 c 128,-1,57
 244 965 244 965 244 1024 c 0,58,59
 244 1098 244 1098 234 1139 c 0,60,61
 228 1167 228 1167 201.5 1187 c 128,-1,62
 175 1207 175 1207 148.5 1215.5 c 128,-1,63
 122 1224 122 1224 81 1235 c 128,-1,64
 40 1246 40 1246 26 1251 c 1,65,-1
 29 1302 l 1,0,-1
EndSplineSet
EndChar

StartChar: V
Encoding: 86 86 57
Width: 1405
GlyphClass: 2
Flags: W
LayerCount: 2
Fore
SplineSet
402 1138 m 0,0,1
 402 1110 402 1110 474.5 943.5 c 128,-1,2
 547 777 547 777 645.5 559.5 c 128,-1,3
 744 342 744 342 779 251 c 1,4,5
 803 317 803 317 892 524 c 128,-1,6
 981 731 981 731 1041.5 892 c 128,-1,7
 1102 1053 1102 1053 1102 1114 c 0,8,9
 1102 1143 1102 1143 1089.5 1164 c 128,-1,10
 1077 1185 1077 1185 1053.5 1196.5 c 128,-1,11
 1030 1208 1030 1208 1008.5 1214.5 c 128,-1,12
 987 1221 987 1221 954 1228 c 128,-1,13
 921 1235 921 1235 905 1240 c 1,14,15
 902 1254 902 1254 902 1269 c 0,16,17
 902 1286 902 1286 905 1302 c 1,18,-1
 1421 1302 l 1,19,20
 1424 1275 1424 1275 1424 1247 c 1,21,22
 1398 1229 1398 1229 1295 1181 c 0,23,24
 1261 1165 1261 1165 1229.5 1118.5 c 128,-1,25
 1198 1072 1198 1072 1180.5 1028 c 128,-1,26
 1163 984 1163 984 1140 919.5 c 128,-1,27
 1117 855 1117 855 1108 833 c 0,28,29
 1056 711 1056 711 971.5 500 c 128,-1,30
 887 289 887 289 828 139 c 2,31,-1
 770 -11 l 1,32,33
 738 -19 738 -19 721 -19 c 0,34,35
 694 -19 694 -19 680 -17 c 1,36,37
 460 489 460 489 188 1088 c 0,38,39
 170 1129 170 1129 152.5 1154 c 128,-1,40
 135 1179 135 1179 109 1196 c 128,-1,41
 83 1213 83 1213 60 1222 c 128,-1,42
 37 1231 37 1231 -10 1245 c 1,43,-1
 -8 1302 l 1,44,-1
 581 1302 l 1,45,46
 581 1293 581 1293 584 1273 c 128,-1,47
 587 1253 587 1253 587 1242 c 1,48,49
 577 1239 577 1239 548.5 1232 c 128,-1,50
 520 1225 520 1225 498.5 1218.5 c 128,-1,51
 477 1212 477 1212 453 1201.5 c 128,-1,52
 429 1191 429 1191 415.5 1175 c 128,-1,53
 402 1159 402 1159 402 1138 c 0,0,1
EndSplineSet
EndChar

StartChar: W
Encoding: 87 87 58
Width: 1916
GlyphClass: 2
Flags: W
LayerCount: 2
Fore
SplineSet
375 1182 m 0,0,1
 375 1153 375 1153 665 353 c 1,2,-1
 934 1071 l 1,3,4
 926 1091 926 1091 909.5 1131.5 c 128,-1,5
 893 1172 893 1172 885 1192 c 1,6,7
 875 1201 875 1201 827.5 1219 c 128,-1,8
 780 1237 780 1237 740 1255 c 128,-1,9
 700 1273 700 1273 700 1282 c 0,10,11
 700 1283 700 1283 701.5 1287.5 c 128,-1,12
 703 1292 703 1292 705 1296.5 c 128,-1,13
 707 1301 707 1301 707 1302 c 1,14,-1
 1349 1302 l 1,15,16
 1349 1301 1349 1301 1352 1292.5 c 128,-1,17
 1355 1284 1355 1284 1355 1282 c 0,18,19
 1355 1258 1355 1258 1325 1249 c 128,-1,20
 1295 1240 1295 1240 1259 1240.5 c 128,-1,21
 1223 1241 1223 1241 1193 1229 c 128,-1,22
 1163 1217 1163 1217 1163 1188 c 0,23,24
 1163 1167 1163 1167 1275.5 813 c 128,-1,25
 1388 459 1388 459 1424 355 c 1,26,27
 1428 368 1428 368 1463 472.5 c 128,-1,28
 1498 577 1498 577 1531.5 679.5 c 128,-1,29
 1565 782 1565 782 1602.5 898 c 128,-1,30
 1640 1014 1640 1014 1663 1093 c 128,-1,31
 1686 1172 1686 1172 1686 1187 c 0,32,33
 1686 1219 1686 1219 1649.5 1233 c 128,-1,34
 1613 1247 1613 1247 1559 1253.5 c 128,-1,35
 1505 1260 1505 1260 1485 1271 c 1,36,-1
 1479 1282 l 1,37,-1
 1485 1302 l 1,38,-1
 2002 1302 l 2,39,40
 2013 1302 2013 1302 2020 1291 c 1,41,42
 2020 1273 2020 1273 1982 1261 c 128,-1,43
 1944 1249 1944 1249 1896.5 1242 c 128,-1,44
 1849 1235 1849 1235 1803.5 1213 c 128,-1,45
 1758 1191 1758 1191 1746 1157 c 0,46,47
 1734 1124 1734 1124 1696 992 c 1,48,-1
 1397 1 l 2,49,50
 1391 -19 1391 -19 1355 -19 c 0,51,52
 1323 -19 1323 -19 1312 1 c 0,53,54
 1297 30 1297 30 1277.5 96 c 128,-1,55
 1258 162 1258 162 1256 167 c 2,56,-1
 972 994 l 1,57,-1
 713 249 l 2,58,59
 704 224 704 224 688.5 171 c 128,-1,60
 673 118 673 118 658 75.5 c 128,-1,61
 643 33 643 33 627 1 c 0,62,63
 616 -21 616 -21 585 -21 c 0,64,65
 569 -21 569 -21 554.5 -7 c 128,-1,66
 540 7 540 7 528.5 31.5 c 128,-1,67
 517 56 517 56 509 78 c 128,-1,68
 501 100 501 100 493 126.5 c 128,-1,69
 485 153 485 153 482 161 c 0,70,71
 450 247 450 247 320.5 594 c 128,-1,72
 191 941 191 941 120 1128 c 0,73,74
 106 1164 106 1164 77 1187 c 128,-1,75
 48 1210 48 1210 18.5 1219 c 128,-1,76
 -11 1228 -11 1228 -46.5 1244 c 128,-1,77
 -82 1260 -82 1260 -103 1280 c 1,78,-1
 -96 1302 l 1,79,-1
 547 1302 l 1,80,81
 547 1301 547 1301 549.5 1293.5 c 128,-1,82
 552 1286 552 1286 552 1282 c 0,83,84
 552 1261 552 1261 524.5 1251.5 c 128,-1,85
 497 1242 497 1242 463.5 1240.5 c 128,-1,86
 430 1239 430 1239 402.5 1225.5 c 128,-1,87
 375 1212 375 1212 375 1182 c 0,0,1
EndSplineSet
EndChar

StartChar: X
Encoding: 88 88 59
Width: 1463
GlyphClass: 2
Flags: W
LayerCount: 2
Fore
SplineSet
1053 1029 m 2,0,-1
 811 725 l 1,1,-1
 1182 236 l 2,2,3
 1242 157 1242 157 1278.5 125.5 c 128,-1,4
 1315 94 1315 94 1372 78 c 0,5,6
 1383 75 1383 75 1403.5 69.5 c 128,-1,7
 1424 64 1424 64 1439 59.5 c 128,-1,8
 1454 55 1454 55 1462 52 c 1,9,10
 1462 38 1462 38 1460 0 c 1,11,-1
 808 0 l 1,12,13
 806 17 806 17 806 52 c 1,14,15
 962 87 962 87 962 156 c 0,16,17
 962 189 962 189 942 216 c 2,18,-1
 679 565 l 1,19,-1
 456 294 l 2,20,21
 377 197 377 197 377 144 c 0,22,23
 377 126 377 126 390.5 112 c 128,-1,24
 404 98 404 98 430 87.5 c 128,-1,25
 456 77 456 77 480.5 70.5 c 128,-1,26
 505 64 505 64 541 57 c 1,27,28
 542 48 542 48 542 30 c 0,29,30
 542 11 542 11 541 0 c 1,31,-1
 20 0 l 1,32,33
 18 17 18 17 18 52 c 1,34,35
 29 56 29 56 66 68 c 128,-1,36
 103 80 103 80 128.5 90 c 128,-1,37
 154 100 154 100 188 120 c 128,-1,38
 222 140 222 140 245 165 c 0,39,40
 285 211 285 211 319 252 c 2,41,-1
 632 628 l 1,42,-1
 273 1097 l 2,43,44
 249 1128 249 1128 222.5 1151.5 c 128,-1,45
 196 1175 196 1175 167 1190 c 128,-1,46
 138 1205 138 1205 116.5 1213.5 c 128,-1,47
 95 1222 95 1222 64 1231.5 c 128,-1,48
 33 1241 33 1241 21 1246 c 1,49,50
 21 1279 21 1279 23 1302 c 1,51,-1
 665 1302 l 1,52,53
 667 1268 667 1268 667 1250 c 1,54,55
 602 1237 602 1237 557 1209.5 c 128,-1,56
 512 1182 512 1182 512 1144 c 0,57,58
 512 1129 512 1129 529 1095 c 1,59,-1
 762 788 l 1,60,-1
 945 1014 l 2,61,62
 983 1062 983 1062 995 1083.5 c 128,-1,63
 1007 1105 1007 1105 1007 1130 c 0,64,65
 1007 1170 1007 1170 967.5 1201.5 c 128,-1,66
 928 1233 928 1233 861 1246 c 1,67,68
 859 1254 859 1254 859 1273 c 0,69,70
 859 1291 859 1291 861 1302 c 1,71,-1
 1374 1302 l 1,72,73
 1376 1285 1376 1285 1376 1250 c 1,74,75
 1369 1247 1369 1247 1332.5 1235 c 128,-1,76
 1296 1223 1296 1223 1267.5 1212 c 128,-1,77
 1239 1201 1239 1201 1200.5 1177.5 c 128,-1,78
 1162 1154 1162 1154 1136 1126 c 0,79,80
 1091 1078 1091 1078 1053 1029 c 2,0,-1
EndSplineSet
EndChar

StartChar: Y
Encoding: 89 89 60
Width: 1330
GlyphClass: 2
Flags: W
LayerCount: 2
Fore
SplineSet
1341 1250 m 1,0,-1
 1324 1243 l 2,1,2
 1267 1220 1267 1220 1237 1205 c 128,-1,3
 1207 1190 1207 1190 1168.5 1159 c 128,-1,4
 1130 1128 1130 1128 1103 1086 c 2,5,-1
 775 583 l 1,6,-1
 775 246 l 2,7,8
 775 187 775 187 784.5 153.5 c 128,-1,9
 794 120 794 120 815.5 106 c 128,-1,10
 837 92 837 92 859.5 87.5 c 128,-1,11
 882 83 882 83 921 75 c 128,-1,12
 960 67 960 67 992 52 c 1,13,-1
 990 0 l 1,14,-1
 344 0 l 1,15,-1
 342 52 l 1,16,17
 373 70 373 70 411 77.5 c 128,-1,18
 449 85 449 85 472.5 87.5 c 128,-1,19
 496 90 496 90 518 103 c 128,-1,20
 540 116 540 116 550 152 c 128,-1,21
 560 188 560 188 560 254 c 2,22,-1
 560 562 l 1,23,-1
 195 1134 l 2,24,25
 172 1170 172 1170 109 1205 c 128,-1,26
 46 1240 46 1240 -2 1251 c 1,27,-1
 -2 1302 l 1,28,-1
 618 1302 l 1,29,-1
 620 1250 l 1,30,31
 586 1244 586 1244 553.5 1233.5 c 128,-1,32
 521 1223 521 1223 490 1198.5 c 128,-1,33
 459 1174 459 1174 459 1142 c 0,34,35
 459 1121 459 1121 498.5 1050 c 128,-1,36
 538 979 538 979 583 910.5 c 128,-1,37
 628 842 628 842 682 760.5 c 128,-1,38
 736 679 736 679 744 667 c 1,39,40
 745 669 745 669 794.5 743 c 128,-1,41
 844 817 844 817 885.5 883 c 128,-1,42
 927 949 927 949 965.5 1026.5 c 128,-1,43
 1004 1104 1004 1104 1004 1140 c 0,44,45
 1004 1157 1004 1157 995 1171.5 c 128,-1,46
 986 1186 986 1186 973.5 1195.5 c 128,-1,47
 961 1205 961 1205 940 1214 c 128,-1,48
 919 1223 919 1223 905.5 1227 c 128,-1,49
 892 1231 892 1231 869 1237.5 c 128,-1,50
 846 1244 846 1244 839 1246 c 1,51,-1
 837 1273 l 2,52,53
 837 1280 837 1280 839 1302 c 1,54,-1
 1339 1302 l 1,55,-1
 1341 1250 l 1,0,-1
EndSplineSet
EndChar

StartChar: Z
Encoding: 90 90 61
Width: 1285
GlyphClass: 2
Flags: W
LayerCount: 2
Fore
SplineSet
1209 357 m 1,0,-1
 1149 -10 l 1,1,-1
 1108 -10 l 2,2,3
 1083 -10 1083 -10 1035 -5 c 128,-1,4
 987 0 987 0 964 0 c 2,5,-1
 67 0 l 1,6,-1
 63 43 l 1,7,-1
 843 1119 l 1,8,-1
 917 1225 l 1,9,10
 917 1225 917 1225 521 1225 c 0,11,12
 479 1225 479 1225 457 1224 c 128,-1,13
 435 1223 435 1223 402.5 1217.5 c 128,-1,14
 370 1212 370 1212 349.5 1200.5 c 128,-1,15
 329 1189 329 1189 306.5 1167 c 128,-1,16
 284 1145 284 1145 266 1112 c 0,17,18
 260 1100 260 1100 243 1068 c 128,-1,19
 226 1036 226 1036 213 1014 c 128,-1,20
 200 992 200 992 186 972 c 1,21,22
 160 972 160 972 133 975 c 1,23,-1
 160 1307 l 1,24,-1
 192 1307 l 2,25,26
 356 1307 356 1307 684.5 1304.5 c 128,-1,27
 1013 1302 1013 1302 1178 1302 c 1,28,29
 1191 1297 1191 1297 1191 1272 c 2,30,-1
 1190 1245 l 1,31,-1
 425 198 l 2,32,33
 375 129 375 129 351 89 c 1,34,35
 399 74 399 74 441 74 c 2,36,-1
 580 74 l 2,37,38
 783 74 783 74 900 92 c 0,39,40
 957 101 957 101 987.5 125 c 128,-1,41
 1018 149 1018 149 1047 203 c 0,42,43
 1104 309 1104 309 1153 359 c 1,44,-1
 1209 357 l 1,0,-1
EndSplineSet
EndChar

StartChar: bracketleft
Encoding: 91 91 62
Width: 662
GlyphClass: 2
Flags: W
LayerCount: 2
Fore
SplineSet
173 1449 m 0,0,1
 173 1475 173 1475 203 1499.5 c 128,-1,2
 233 1524 233 1524 260 1524 c 0,3,4
 336 1524 336 1524 488.5 1526.5 c 128,-1,5
 641 1529 641 1529 717 1529 c 0,6,7
 757 1529 757 1529 786.5 1510.5 c 128,-1,8
 816 1492 816 1492 816 1455 c 0,9,10
 816 1416 816 1416 789 1398 c 128,-1,11
 762 1380 762 1380 721 1380 c 2,12,-1
 329 1380 l 1,13,14
 329 1239 329 1239 320 956.5 c 128,-1,15
 311 674 311 674 311 532 c 0,16,17
 311 268 311 268 316 -62 c 1,18,19
 368 -62 368 -62 491.5 -59 c 128,-1,20
 615 -56 615 -56 682 -56 c 0,21,22
 708 -56 708 -56 732.5 -86 c 128,-1,23
 757 -116 757 -116 757 -143 c 0,24,25
 757 -214 757 -214 669 -214 c 0,26,27
 598 -214 598 -214 456 -206.5 c 128,-1,28
 314 -199 314 -199 243 -199 c 0,29,30
 206 -199 206 -199 192.5 -178.5 c 128,-1,31
 179 -158 179 -158 179 -119 c 0,32,33
 179 -51 179 -51 181.5 86.5 c 128,-1,34
 184 224 184 224 184 292 c 0,35,36
 184 485 184 485 178.5 870.5 c 128,-1,37
 173 1256 173 1256 173 1449 c 0,0,1
EndSplineSet
EndChar

StartChar: backslash
Encoding: 92 92 63
Width: 689
GlyphClass: 2
Flags: W
LayerCount: 2
Fore
SplineSet
17 1378 m 1,0,1
 48 1402 48 1402 97 1402 c 1,2,3
 129 1372 129 1372 149 1332 c 128,-1,4
 169 1292 169 1292 189.5 1225.5 c 128,-1,5
 210 1159 210 1159 216 1142 c 2,6,-1
 617 72 l 2,7,8
 624 53 624 53 629.5 25.5 c 128,-1,9
 635 -2 635 -2 636.5 -19 c 128,-1,10
 638 -36 638 -36 640.5 -72 c 128,-1,11
 643 -108 643 -108 644 -117 c 1,12,-1
 625 -117 l 2,13,14
 586 -117 586 -117 567 -112 c 1,15,16
 533 -39 533 -39 502 53 c 0,17,18
 443 226 443 226 267.5 676 c 128,-1,19
 92 1126 92 1126 17 1378 c 1,0,1
EndSplineSet
EndChar

StartChar: bracketright
Encoding: 93 93 64
Width: 664
GlyphClass: 2
Flags: W
LayerCount: 2
Fore
SplineSet
0 -214 m 0,0,1
 -88 -214 -88 -214 -88 -143 c 0,2,3
 -88 -54 -88 -54 59 -54 c 0,4,5
 84 -54 84 -54 133.5 -58.5 c 128,-1,6
 183 -63 183 -63 208 -63 c 2,7,-1
 353 -63 l 1,8,9
 358 267 358 267 358 532 c 0,10,11
 358 678 358 678 349 960.5 c 128,-1,12
 340 1243 340 1243 340 1380 c 1,13,-1
 -66 1380 l 2,14,15
 -98 1380 -98 1380 -122.5 1401.5 c 128,-1,16
 -147 1423 -147 1423 -147 1455 c 0,17,18
 -147 1492 -147 1492 -117.5 1510.5 c 128,-1,19
 -88 1529 -88 1529 -48 1529 c 0,20,21
 28 1529 28 1529 180.5 1526.5 c 128,-1,22
 333 1524 333 1524 409 1524 c 0,23,24
 436 1524 436 1524 466 1499.5 c 128,-1,25
 496 1475 496 1475 496 1449 c 0,26,27
 496 1281 496 1281 492 944.5 c 128,-1,28
 488 608 488 608 488 440 c 0,29,30
 488 315 488 315 496.5 152.5 c 128,-1,31
 505 -10 505 -10 505 -48 c 0,32,33
 505 -128 505 -128 488 -163.5 c 128,-1,34
 471 -199 471 -199 426 -199 c 0,35,36
 355 -199 355 -199 213 -206.5 c 128,-1,37
 71 -214 71 -214 0 -214 c 0,0,1
EndSplineSet
EndChar

StartChar: asciicircum
Encoding: 94 94 65
Width: 1192
GlyphClass: 2
Flags: W
LayerCount: 2
Fore
SplineSet
653 1369 m 1,0,1
 667 1344 667 1344 736.5 1223.5 c 128,-1,2
 806 1103 806 1103 836.5 1048.5 c 128,-1,3
 867 994 867 994 915 901.5 c 128,-1,4
 963 809 963 809 994 738 c 1,5,6
 954 722 954 722 899 722 c 1,7,8
 845 785 845 785 795 861 c 128,-1,9
 745 937 745 937 682.5 1044 c 128,-1,10
 620 1151 620 1151 594 1193 c 1,11,12
 559 1139 559 1139 500 1042.5 c 128,-1,13
 441 946 441 946 390 867 c 128,-1,14
 339 788 339 788 288 722 c 1,15,16
 234 722 234 722 194 738 c 1,17,18
 228 816 228 816 276.5 907.5 c 128,-1,19
 325 999 325 999 401 1132.5 c 128,-1,20
 477 1266 477 1266 496 1300 c 0,21,22
 526 1355 526 1355 573 1392 c 1,23,24
 616 1392 616 1392 653 1369 c 1,0,1
EndSplineSet
EndChar

StartChar: underscore
Encoding: 95 95 66
Width: 935
GlyphClass: 2
Flags: W
LayerCount: 2
Fore
SplineSet
893 -129 m 1,0,1
 855 -147 855 -147 768 -147 c 2,2,-1
 102 -147 l 1,3,4
 71 -134 71 -134 57.5 -117 c 128,-1,5
 44 -100 44 -100 44 -68 c 1,6,7
 89 -49 89 -49 196 -49 c 2,8,-1
 835 -49 l 1,9,10
 893 -74 893 -74 893 -129 c 1,0,1
EndSplineSet
EndChar

StartChar: grave
Encoding: 96 96 67
Width: 968
GlyphClass: 2
Flags: W
LayerCount: 2
Fore
SplineSet
252 1442 m 0,0,1
 231 1460 231 1460 231 1488 c 0,2,3
 231 1518 231 1518 256 1544 c 128,-1,4
 281 1570 281 1570 312 1570 c 0,5,6
 348 1570 348 1570 373 1536 c 0,7,8
 649 1166 649 1166 660 1152 c 1,9,10
 671 1136 671 1136 671 1122 c 0,11,12
 671 1096 671 1096 648 1096 c 0,13,14
 631 1096 631 1096 608 1116 c 0,15,16
 568 1151 568 1151 424 1284 c 128,-1,17
 280 1417 280 1417 252 1442 c 0,0,1
EndSplineSet
EndChar

StartChar: a
Encoding: 97 97 68
Width: 985
GlyphClass: 2
Flags: W
LayerCount: 2
Fore
SplineSet
621 200 m 1,0,-1
 621 455 l 1,1,2
 613 452 613 452 571 439 c 128,-1,3
 529 426 529 426 507 417.5 c 128,-1,4
 485 409 485 409 444.5 392.5 c 128,-1,5
 404 376 404 376 380 360 c 128,-1,6
 356 344 356 344 330 322.5 c 128,-1,7
 304 301 304 301 291.5 275 c 128,-1,8
 279 249 279 249 279 220 c 0,9,10
 279 161 279 161 311.5 127 c 128,-1,11
 344 93 344 93 403 93 c 0,12,13
 512 93 512 93 621 200 c 1,0,-1
621 514 m 1,14,-1
 621 609 l 2,15,16
 621 664 621 664 614.5 703 c 128,-1,17
 608 742 608 742 589.5 778.5 c 128,-1,18
 571 815 571 815 533 833.5 c 128,-1,19
 495 852 495 852 438 852 c 0,20,21
 393 852 393 852 336 826.5 c 128,-1,22
 279 801 279 801 279 762 c 0,23,24
 279 744 279 744 296 713 c 128,-1,25
 313 682 313 682 313 665 c 0,26,27
 313 625 313 625 287.5 598.5 c 128,-1,28
 262 572 262 572 222 572 c 0,29,30
 172 572 172 572 142.5 609 c 128,-1,31
 113 646 113 646 113 698 c 0,32,33
 113 757 113 757 151.5 803.5 c 128,-1,34
 190 850 190 850 249.5 875.5 c 128,-1,35
 309 901 309 901 369 913.5 c 128,-1,36
 429 926 429 926 483 926 c 0,37,38
 569 926 569 926 628 909.5 c 128,-1,39
 687 893 687 893 722.5 865 c 128,-1,40
 758 837 758 837 777 786 c 128,-1,41
 796 735 796 735 802 680.5 c 128,-1,42
 808 626 808 626 808 541 c 0,43,44
 808 536 808 536 805 458 c 128,-1,45
 802 380 802 380 802 324 c 0,46,47
 802 99 802 99 849 99 c 0,48,49
 883 99 883 99 937 168 c 1,50,-1
 979 123 l 1,51,52
 950 75 950 75 927 47.5 c 128,-1,53
 904 20 904 20 866 0 c 128,-1,54
 828 -20 828 -20 779 -20 c 0,55,56
 713 -20 713 -20 670.5 21.5 c 128,-1,57
 628 63 628 63 624 129 c 1,58,59
 487 -20 487 -20 312 -20 c 0,60,61
 215 -20 215 -20 148.5 32 c 128,-1,62
 82 84 82 84 82 178 c 0,63,64
 82 220 82 220 99 257.5 c 128,-1,65
 116 295 116 295 141 322.5 c 128,-1,66
 166 350 166 350 208 375.5 c 128,-1,67
 250 401 250 401 286 417 c 128,-1,68
 322 433 322 433 375.5 450 c 128,-1,69
 429 467 429 467 463 475.5 c 128,-1,70
 497 484 497 484 549 496.5 c 128,-1,71
 601 509 601 509 621 514 c 1,14,-1
EndSplineSet
EndChar

StartChar: b
Encoding: 98 98 69
Width: 1134
GlyphClass: 2
Flags: W
LayerCount: 2
Fore
SplineSet
344 665 m 1,0,-1
 344 134 l 2,1,2
 344 104 344 104 355 91.5 c 128,-1,3
 366 79 366 79 410.5 72 c 128,-1,4
 455 65 455 65 555 65 c 0,5,6
 623 65 623 65 677.5 86.5 c 128,-1,7
 732 108 732 108 766.5 142.5 c 128,-1,8
 801 177 801 177 824 223.5 c 128,-1,9
 847 270 847 270 856.5 316.5 c 128,-1,10
 866 363 866 363 866 412 c 0,11,12
 866 582 866 582 790.5 688 c 128,-1,13
 715 794 715 794 589 794 c 0,14,15
 517 794 517 794 453.5 757.5 c 128,-1,16
 390 721 390 721 344 665 c 1,0,-1
158 134 m 2,17,-1
 158 1163 l 1,18,19
 146 1183 146 1183 104 1205.5 c 128,-1,20
 62 1228 62 1228 26 1241 c 2,21,-1
 -10 1254 l 1,22,-1
 -8 1288 l 1,23,-1
 258 1367 l 1,24,-1
 344 1376 l 1,25,-1
 344 758 l 1,26,27
 420 839 420 839 497 882.5 c 128,-1,28
 574 926 574 926 667 926 c 0,29,30
 753 926 753 926 826.5 886 c 128,-1,31
 900 846 900 846 948.5 780 c 128,-1,32
 997 714 997 714 1024.5 631 c 128,-1,33
 1052 548 1052 548 1052 462 c 0,34,35
 1052 252 1052 252 916 119.5 c 128,-1,36
 780 -13 780 -13 572 -13 c 0,37,38
 488 -13 488 -13 435 -11.5 c 128,-1,39
 382 -10 382 -10 330.5 -4.5 c 128,-1,40
 279 1 279 1 250.5 10.5 c 128,-1,41
 222 20 222 20 199 36.5 c 128,-1,42
 176 53 176 53 167 76.5 c 128,-1,43
 158 100 158 100 158 134 c 2,17,-1
EndSplineSet
EndChar

StartChar: c
Encoding: 99 99 70
Width: 952
GlyphClass: 2
Flags: W
LayerCount: 2
Fore
SplineSet
849 211 m 1,0,-1
 881 188 l 1,1,2
 850 89 850 89 749.5 34.5 c 128,-1,3
 649 -20 649 -20 527 -20 c 0,4,5
 389 -20 389 -20 286.5 46.5 c 128,-1,6
 184 113 184 113 134 218 c 128,-1,7
 84 323 84 323 84 448 c 0,8,9
 84 651 84 651 220 788.5 c 128,-1,10
 356 926 356 926 574 926 c 0,11,12
 709 926 709 926 800.5 878 c 128,-1,13
 892 830 892 830 892 737 c 0,14,15
 892 692 892 692 860.5 667 c 128,-1,16
 829 642 829 642 797 642 c 0,17,18
 756 642 756 642 738 663.5 c 128,-1,19
 720 685 720 685 715 716 c 128,-1,20
 710 747 710 747 701 778 c 128,-1,21
 692 809 692 809 657.5 830.5 c 128,-1,22
 623 852 623 852 559 852 c 0,23,24
 438 852 438 852 352.5 759.5 c 128,-1,25
 267 667 267 667 267 502 c 0,26,27
 267 341 267 341 351 230.5 c 128,-1,28
 435 120 435 120 584 120 c 0,29,30
 671 120 671 120 729 141 c 128,-1,31
 787 162 787 162 849 211 c 1,0,-1
EndSplineSet
EndChar

StartChar: d
Encoding: 100 100 71
Width: 1180
GlyphClass: 2
Flags: W
LayerCount: 2
Fore
SplineSet
799 222 m 1,0,-1
 799 510 l 2,1,2
 799 607 799 607 782 666.5 c 128,-1,3
 765 726 765 726 713 772 c 0,4,5
 629 846 629 846 534 846 c 0,6,7
 415 846 415 846 340.5 737 c 128,-1,8
 266 628 266 628 266 477 c 0,9,10
 266 382 266 382 297 298.5 c 128,-1,11
 328 215 328 215 397.5 157 c 128,-1,12
 467 99 467 99 562 99 c 0,13,14
 707 99 707 99 799 222 c 1,0,-1
799 849 m 1,15,-1
 799 1175 l 1,16,17
 786 1195 786 1195 743.5 1217.5 c 128,-1,18
 701 1240 701 1240 665 1253 c 2,19,-1
 629 1266 l 1,20,-1
 631 1301 l 1,21,-1
 913 1369 l 1,22,-1
 985 1376 l 1,23,-1
 985 199 l 2,24,25
 985 173 985 173 996 153.5 c 128,-1,26
 1007 134 1007 134 1020.5 123 c 128,-1,27
 1034 112 1034 112 1059 104 c 128,-1,28
 1084 96 1084 96 1098 93.5 c 128,-1,29
 1112 91 1112 91 1137 88 c 0,30,31
 1139 88 1139 88 1142.5 87.5 c 128,-1,32
 1146 87 1146 87 1147 87 c 1,33,-1
 1147 32 l 1,34,-1
 880 -12 l 1,35,-1
 813 -12 l 1,36,-1
 804 143 l 1,37,38
 662 -20 662 -20 488 -20 c 128,-1,39
 314 -20 314 -20 197 101 c 128,-1,40
 80 222 80 222 80 414 c 0,41,42
 80 637 80 637 212 780 c 128,-1,43
 344 923 344 923 544 923 c 0,44,45
 605 923 605 923 663 904.5 c 128,-1,46
 721 886 721 886 799 849 c 1,15,-1
EndSplineSet
EndChar

StartChar: e
Encoding: 101 101 72
Width: 958
GlyphClass: 2
Flags: W
LayerCount: 2
Fore
SplineSet
266 585 m 1,0,-1
 619 594 l 2,1,2
 663 596 663 596 693 610 c 1,3,4
 686 729 686 729 637.5 794 c 128,-1,5
 589 859 589 859 500 859 c 0,6,7
 403 859 403 859 341 781 c 128,-1,8
 279 703 279 703 266 585 c 1,0,-1
891 526 m 1,9,-1
 259 526 l 1,10,11
 258 516 258 516 258 497 c 0,12,13
 258 311 258 311 354 216 c 128,-1,14
 450 121 450 121 597 121 c 0,15,16
 723 121 723 121 840 193 c 1,17,-1
 869 165 l 1,18,19
 834 80 834 80 731 30 c 128,-1,20
 628 -20 628 -20 522 -20 c 0,21,22
 330 -20 330 -20 206 110 c 128,-1,23
 82 240 82 240 82 447 c 0,24,25
 82 586 82 586 144 697 c 128,-1,26
 206 808 206 808 306.5 867 c 128,-1,27
 407 926 407 926 523 926 c 0,28,29
 666 926 666 926 763 841.5 c 128,-1,30
 860 757 860 757 880 620 c 1,31,32
 891 574 891 574 891 535 c 2,33,-1
 891 526 l 1,9,-1
EndSplineSet
EndChar

StartChar: f
Encoding: 102 102 73
Width: 647
GlyphClass: 2
Flags: W
LayerCount: 2
Fore
SplineSet
627 818 m 1,0,-1
 397 818 l 1,1,-1
 397 259 l 2,2,3
 397 160 397 160 419 112 c 1,4,5
 427 89 427 89 458 79 c 128,-1,6
 489 69 489 69 533 63 c 128,-1,7
 577 57 577 57 595 50 c 1,8,9
 595 19 595 19 594 0 c 1,10,-1
 48 0 l 1,11,12
 46 38 46 38 46 50 c 1,13,14
 59 57 59 57 94.5 63 c 128,-1,15
 130 69 130 69 156.5 80 c 128,-1,16
 183 91 183 91 190 113 c 1,17,18
 211 152 211 152 211 215 c 2,19,-1
 211 818 l 1,20,-1
 53 818 l 1,21,-1
 53 899 l 1,22,-1
 122 899 l 2,23,24
 174 899 174 899 190 910.5 c 128,-1,25
 206 922 206 922 207 971 c 0,26,27
 211 1166 211 1166 304 1270 c 128,-1,28
 397 1374 397 1374 567 1374 c 0,29,30
 671 1374 671 1374 740 1335.5 c 128,-1,31
 809 1297 809 1297 809 1230 c 0,32,33
 809 1191 809 1191 784 1165.5 c 128,-1,34
 759 1140 759 1140 715 1140 c 0,35,36
 679 1140 679 1140 654.5 1165.5 c 128,-1,37
 630 1191 630 1191 618.5 1221 c 128,-1,38
 607 1251 607 1251 583 1276.5 c 128,-1,39
 559 1302 559 1302 524 1302 c 0,40,41
 478 1302 478 1302 452 1279.5 c 128,-1,42
 426 1257 426 1257 411.5 1195 c 128,-1,43
 397 1133 397 1133 397 1021 c 2,44,-1
 397 899 l 1,45,-1
 627 899 l 1,46,-1
 627 818 l 1,0,-1
EndSplineSet
EndChar

StartChar: g
Encoding: 103 103 74
Width: 999
GlyphClass: 2
Flags: W
LayerCount: 2
Fore
SplineSet
560 1 m 2,0,-1
 481 2 l 2,1,2
 409 3 409 3 303 15 c 1,3,4
 206 -68 206 -68 206 -137 c 0,5,6
 206 -174 206 -174 234.5 -201.5 c 128,-1,7
 263 -229 263 -229 307 -242.5 c 128,-1,8
 351 -256 351 -256 391.5 -262 c 128,-1,9
 432 -268 432 -268 468 -268 c 0,10,11
 521 -268 521 -268 577.5 -259 c 128,-1,12
 634 -250 634 -250 685.5 -232.5 c 128,-1,13
 737 -215 737 -215 770 -185 c 128,-1,14
 803 -155 803 -155 803 -118 c 0,15,16
 803 -3 803 -3 560 1 c 2,0,-1
288 634 m 0,17,18
 288 520 288 520 335.5 447 c 128,-1,19
 383 374 383 374 477 374 c 0,20,21
 558 374 558 374 597.5 434 c 128,-1,22
 637 494 637 494 637 597 c 0,23,24
 637 717 637 717 584 784.5 c 128,-1,25
 531 852 531 852 449 852 c 0,26,27
 380 852 380 852 334 791 c 128,-1,28
 288 730 288 730 288 634 c 0,17,18
941 888 m 1,29,-1
 926 761 l 1,30,31
 902 768 902 768 854 778.5 c 128,-1,32
 806 789 806 789 770 796 c 2,33,-1
 733 803 l 1,34,35
 742 793 742 793 755 776 c 128,-1,36
 768 759 768 759 790 712 c 128,-1,37
 812 665 812 665 812 626 c 0,38,39
 812 525 812 525 758.5 451 c 128,-1,40
 705 377 705 377 626 342.5 c 128,-1,41
 547 308 547 308 458 308 c 0,42,43
 408 308 408 308 330 326 c 1,44,45
 323 320 323 320 306.5 310 c 128,-1,46
 290 300 290 300 282 293.5 c 128,-1,47
 274 287 274 287 266.5 273.5 c 128,-1,48
 259 260 259 260 259 243 c 0,49,50
 259 228 259 228 267 218 c 128,-1,51
 275 208 275 208 294 201.5 c 128,-1,52
 313 195 313 195 335 191.5 c 128,-1,53
 357 188 357 188 394.5 185.5 c 128,-1,54
 432 183 432 183 466.5 181.5 c 128,-1,55
 501 180 501 180 555.5 177 c 128,-1,56
 610 174 610 174 656 171 c 0,57,58
 783 162 783 162 861 105 c 128,-1,59
 939 48 939 48 939 -52 c 0,60,61
 939 -142 939 -142 870.5 -211 c 128,-1,62
 802 -280 802 -280 690 -315.5 c 128,-1,63
 578 -351 578 -351 442 -351 c 0,64,65
 274 -351 274 -351 175 -300 c 128,-1,66
 76 -249 76 -249 76 -184 c 0,67,68
 76 -89 76 -89 229 24 c 1,69,70
 173 47 173 47 141.5 83 c 128,-1,71
 110 119 110 119 110 163 c 0,72,73
 110 216 110 216 153 261 c 128,-1,74
 196 306 196 306 275 352 c 1,75,76
 110 445 110 445 110 613 c 0,77,78
 110 750 110 750 208 838 c 128,-1,79
 306 926 306 926 457 926 c 0,80,81
 576 926 576 926 677 873 c 1,82,83
 803 892 803 892 894 892 c 1,84,-1
 941 888 l 1,29,-1
EndSplineSet
EndChar

StartChar: h
Encoding: 104 104 75
Width: 1188
GlyphClass: 2
Flags: W
LayerCount: 2
Fore
SplineSet
1012 568 m 2,0,-1
 1012 221 l 2,1,2
 1012 144 1012 144 1051.5 100.5 c 128,-1,3
 1091 57 1091 57 1164 50 c 1,4,-1
 1162 0 l 1,5,-1
 670 0 l 1,6,7
 668 34 668 34 668 50 c 1,8,9
 692 60 692 60 724 70 c 128,-1,10
 756 80 756 80 770 85.5 c 128,-1,11
 784 91 784 91 799.5 105 c 128,-1,12
 815 119 815 119 820.5 145 c 128,-1,13
 826 171 826 171 826 214 c 2,14,-1
 826 577 l 2,15,16
 826 687 826 687 779.5 752.5 c 128,-1,17
 733 818 733 818 634 818 c 0,18,19
 503 818 503 818 375 684 c 1,20,-1
 375 233 l 2,21,22
 375 143 375 143 415.5 101 c 128,-1,23
 456 59 456 59 549 50 c 1,24,-1
 548 0 l 1,25,-1
 15 0 l 1,26,27
 13 34 13 34 13 50 c 1,28,29
 188 64 188 64 188 233 c 2,30,-1
 188 1164 l 1,31,32
 172 1187 172 1187 109 1220.5 c 128,-1,33
 46 1254 46 1254 17 1258 c 1,34,-1
 17 1293 l 1,35,-1
 303 1369 l 1,36,-1
 375 1376 l 1,37,-1
 375 768 l 1,38,39
 455 847 455 847 530 886.5 c 128,-1,40
 605 926 605 926 705 926 c 0,41,42
 844 926 844 926 928 837.5 c 128,-1,43
 1012 749 1012 749 1012 568 c 2,0,-1
EndSplineSet
EndChar

StartChar: i
Encoding: 105 105 76
Width: 582
GlyphClass: 2
Flags: W
LayerCount: 2
Fore
SplineSet
177 1224 m 0,0,1
 177 1272 177 1272 210.5 1306 c 128,-1,2
 244 1340 244 1340 293 1340 c 0,3,4
 341 1340 341 1340 375 1306 c 128,-1,5
 409 1272 409 1272 409 1224 c 0,6,7
 409 1175 409 1175 375 1141.5 c 128,-1,8
 341 1108 341 1108 293 1108 c 0,9,10
 244 1108 244 1108 210.5 1141.5 c 128,-1,11
 177 1175 177 1175 177 1224 c 0,0,1
213 181 m 2,12,-1
 213 713 l 1,13,14
 200 736 200 736 162 757 c 128,-1,15
 124 778 124 778 92 788 c 2,16,-1
 61 797 l 1,17,-1
 63 832 l 1,18,-1
 340 912 l 1,19,-1
 399 918 l 1,20,-1
 399 220 l 2,21,22
 399 169 399 169 409 135 c 1,23,24
 414 105 414 105 442 89 c 128,-1,25
 470 73 470 73 504.5 65 c 128,-1,26
 539 57 539 57 548 50 c 1,27,28
 548 17 548 17 547 0 c 1,29,-1
 51 0 l 1,30,31
 49 18 49 18 49 50 c 1,32,33
 59 56 59 56 92.5 67 c 128,-1,34
 126 78 126 78 149 88 c 128,-1,35
 172 98 172 98 192.5 122.5 c 128,-1,36
 213 147 213 147 213 181 c 2,12,-1
EndSplineSet
EndChar

StartChar: j
Encoding: 106 106 77
Width: 540
GlyphClass: 2
Flags: W
LayerCount: 2
Fore
SplineSet
165 1224 m 0,0,1
 165 1272 165 1272 198.5 1306 c 128,-1,2
 232 1340 232 1340 280 1340 c 0,3,4
 329 1340 329 1340 362.5 1306 c 128,-1,5
 396 1272 396 1272 396 1224 c 0,6,7
 396 1175 396 1175 362.5 1141.5 c 128,-1,8
 329 1108 329 1108 280 1108 c 0,9,10
 232 1108 232 1108 198.5 1141.5 c 128,-1,11
 165 1175 165 1175 165 1224 c 0,0,1
201 88 m 1,12,-1
 201 710 l 1,13,14
 172 756 172 756 45 795 c 0,15,16
 41 797 41 797 39 797 c 1,17,-1
 39 832 l 1,18,-1
 319 911 l 1,19,-1
 387 918 l 1,20,-1
 387 125 l 2,21,22
 387 -87 387 -87 293.5 -187.5 c 128,-1,23
 200 -288 200 -288 14 -308 c 1,24,-1
 -1 -250 l 1,25,26
 52 -226 52 -226 82.5 -207 c 128,-1,27
 113 -188 113 -188 137 -164.5 c 128,-1,28
 161 -141 161 -141 172.5 -106 c 128,-1,29
 184 -71 184 -71 191 -27 c 128,-1,30
 198 17 198 17 201 88 c 1,12,-1
EndSplineSet
EndChar

StartChar: k
Encoding: 107 107 78
Width: 1076
GlyphClass: 2
Flags: W
LayerCount: 2
Fore
SplineSet
192 120 m 2,0,-1
 192 1122 l 2,1,2
 192 1152 192 1152 143 1171 c 128,-1,3
 94 1190 94 1190 45 1202.5 c 128,-1,4
 -4 1215 -4 1215 -4 1227 c 0,5,6
 -4 1236 -4 1236 0 1244 c 1,7,-1
 398 1314 l 1,8,-1
 398 475 l 1,9,-1
 460 475 l 1,10,-1
 810 778 l 1,11,12
 812 783 812 783 812 789 c 0,13,14
 812 810 812 810 792 820 c 128,-1,15
 772 830 772 830 747.5 830 c 128,-1,16
 723 830 723 830 703 835.5 c 128,-1,17
 683 841 683 841 683 855 c 0,18,19
 683 861 683 861 686 868 c 1,20,-1
 1080 868 l 1,21,-1
 1083 855 l 1,22,23
 1083 834 1083 834 1000 817 c 1,24,25
 930 801 930 801 898 774 c 2,26,-1
 602 522 l 1,27,-1
 936 94 l 2,28,29
 947 81 947 81 992 66 c 128,-1,30
 1037 51 1037 51 1074.5 38 c 128,-1,31
 1112 25 1112 25 1112 13 c 0,32,33
 1112 4 1112 4 1109 0 c 1,34,-1
 614 0 l 1,35,36
 609 10 609 10 609 12 c 0,37,38
 609 27 609 27 638.5 32 c 128,-1,39
 668 37 668 37 697 45 c 128,-1,40
 726 53 726 53 726 74 c 0,41,42
 726 83 726 83 713 97 c 1,43,-1
 463 420 l 1,44,-1
 398 420 l 1,45,-1
 398 116 l 2,46,47
 398 88 398 88 422 71.5 c 128,-1,48
 446 55 446 55 474 50.5 c 128,-1,49
 502 46 502 46 526 37.5 c 128,-1,50
 550 29 550 29 550 14 c 0,51,52
 550 9 550 9 546 0 c 1,53,-1
 22 0 l 1,54,55
 19 7 19 7 19 12 c 0,56,57
 19 26 19 26 46 36.5 c 128,-1,58
 73 47 73 47 105.5 53.5 c 128,-1,59
 138 60 138 60 165 77 c 128,-1,60
 192 94 192 94 192 120 c 2,0,-1
EndSplineSet
EndChar

StartChar: l
Encoding: 108 108 79
Width: 573
GlyphClass: 2
Flags: W
LayerCount: 2
Fore
SplineSet
312 1369 m 1,0,-1
 384 1376 l 1,1,-1
 384 234 l 2,2,3
 384 150 384 150 418.5 104.5 c 128,-1,4
 453 59 453 59 533 50 c 1,5,-1
 531 0 l 1,6,-1
 39 0 l 1,7,8
 38 34 38 34 38 50 c 1,9,10
 51 59 51 59 89.5 69 c 128,-1,11
 128 79 128 79 156.5 95 c 128,-1,12
 185 111 185 111 190 140 c 0,13,14
 198 183 198 183 198 228 c 0,15,16
 198 385 198 385 197.5 698.5 c 128,-1,17
 197 1012 197 1012 197 1169 c 1,18,19
 185 1189 185 1189 144 1211 c 128,-1,20
 103 1233 103 1233 68 1246 c 1,21,-1
 32 1258 l 1,22,-1
 34 1293 l 1,23,-1
 312 1369 l 1,0,-1
EndSplineSet
EndChar

StartChar: m
Encoding: 109 109 80
Width: 1768
GlyphClass: 2
Flags: W
LayerCount: 2
Fore
SplineSet
392 678 m 1,0,-1
 392 235 l 2,1,2
 392 182 392 182 398 141 c 0,3,4
 402 111 402 111 426.5 95 c 128,-1,5
 451 79 451 79 491 68 c 128,-1,6
 531 57 531 57 544 50 c 1,7,-1
 542 0 l 1,8,-1
 49 0 l 1,9,10
 48 34 48 34 48 50 c 1,11,12
 58 56 58 56 96 65.5 c 128,-1,13
 134 75 134 75 161 91.5 c 128,-1,14
 188 108 188 108 194 136 c 1,15,16
 205 175 205 175 205 222 c 2,17,-1
 205 724 l 1,18,19
 193 748 193 748 151.5 770 c 128,-1,20
 110 792 110 792 75 802 c 2,21,-1
 40 813 l 1,22,-1
 43 847 l 1,23,-1
 322 915 l 1,24,-1
 383 915 l 1,25,-1
 392 771 l 1,26,27
 465 849 465 849 538.5 887.5 c 128,-1,28
 612 926 612 926 712 926 c 0,29,30
 905 926 905 926 972 765 c 1,31,32
 1020 818 1020 818 1059 849.5 c 128,-1,33
 1098 881 1098 881 1155 902.5 c 128,-1,34
 1212 924 1212 924 1279 924 c 0,35,36
 1410 924 1410 924 1489.5 862.5 c 128,-1,37
 1569 801 1569 801 1580 676 c 0,38,39
 1588 582 1588 582 1588 487 c 2,40,-1
 1588 225 l 2,41,42
 1588 175 1588 175 1595 140 c 0,43,44
 1600 112 1600 112 1623 96 c 128,-1,45
 1646 80 1646 80 1683 68 c 128,-1,46
 1720 56 1720 56 1731 50 c 1,47,-1
 1729 0 l 1,48,-1
 1248 0 l 1,49,50
 1246 34 1246 34 1246 50 c 1,51,52
 1258 56 1258 56 1297 67.5 c 128,-1,53
 1336 79 1336 79 1361.5 95 c 128,-1,54
 1387 111 1387 111 1393 138 c 0,55,56
 1401 171 1401 171 1401 225 c 2,57,-1
 1401 622 l 2,58,59
 1401 716 1401 716 1353 767.5 c 128,-1,60
 1305 819 1305 819 1216 819 c 0,61,62
 1154 819 1154 819 1093 782.5 c 128,-1,63
 1032 746 1032 746 985 694 c 1,64,65
 991 625 991 625 991 472 c 2,66,-1
 991 230 l 2,67,68
 991 173 991 173 997 142 c 0,69,70
 1002 113 1002 113 1027 96.5 c 128,-1,71
 1052 80 1052 80 1092.5 68.5 c 128,-1,72
 1133 57 1133 57 1145 50 c 1,73,-1
 1143 0 l 1,74,-1
 643 0 l 1,75,76
 641 34 641 34 641 50 c 1,77,78
 653 57 653 57 687 64.5 c 128,-1,79
 721 72 721 72 748 83.5 c 128,-1,80
 775 95 775 95 782 117 c 1,81,82
 804 160 804 160 804 229 c 2,83,-1
 804 577 l 2,84,85
 804 694 804 694 767 756 c 128,-1,86
 730 818 730 818 638 818 c 0,87,88
 567 818 567 818 508.5 781 c 128,-1,89
 450 744 450 744 392 678 c 1,0,-1
EndSplineSet
EndChar

StartChar: n
Encoding: 110 110 81
Width: 1204
GlyphClass: 2
Flags: W
LayerCount: 2
Fore
SplineSet
385 668 m 1,0,-1
 385 222 l 2,1,2
 385 136 385 136 428.5 97.5 c 128,-1,3
 472 59 472 59 561 50 c 1,4,-1
 559 0 l 1,5,-1
 44 0 l 1,6,7
 43 16 43 16 43 32 c 128,-1,8
 43 48 43 48 44 54 c 1,9,10
 80 62 80 62 96 66.5 c 128,-1,11
 112 71 112 71 136.5 81.5 c 128,-1,12
 161 92 161 92 171.5 104 c 128,-1,13
 182 116 182 116 190.5 136.5 c 128,-1,14
 199 157 199 157 199 185 c 2,15,-1
 199 727 l 1,16,17
 187 750 187 750 147.5 771 c 128,-1,18
 108 792 108 792 74 802 c 2,19,-1
 40 811 l 1,20,-1
 43 845 l 1,21,-1
 316 913 l 1,22,-1
 377 917 l 1,23,-1
 388 755 l 1,24,25
 443 829 443 829 528.5 877.5 c 128,-1,26
 614 926 614 926 713 926 c 0,27,28
 858 926 858 926 938 844 c 128,-1,29
 1018 762 1018 762 1025 599 c 0,30,31
 1028 535 1028 535 1028 468 c 2,32,-1
 1028 245 l 2,33,34
 1028 212 1028 212 1030 188.5 c 128,-1,35
 1032 165 1032 165 1034.5 148 c 128,-1,36
 1037 131 1037 131 1045 118.5 c 128,-1,37
 1053 106 1053 106 1058.5 99 c 128,-1,38
 1064 92 1064 92 1078.5 85.5 c 128,-1,39
 1093 79 1093 79 1102.5 75.5 c 128,-1,40
 1112 72 1112 72 1135 65.5 c 128,-1,41
 1158 59 1158 59 1173 54 c 1,42,43
 1174 48 1174 48 1174 32 c 2,44,-1
 1173 0 l 1,45,-1
 680 0 l 1,46,47
 678 34 678 34 678 50 c 1,48,49
 689 54 689 54 721 63 c 128,-1,50
 753 72 753 72 772.5 79.5 c 128,-1,51
 792 87 792 87 812 105.5 c 128,-1,52
 832 124 832 124 836 149 c 0,53,54
 841 178 841 178 841 226 c 2,55,-1
 841 449 l 2,56,57
 841 495 841 495 841 517.5 c 128,-1,58
 841 540 841 540 839 579 c 128,-1,59
 837 618 837 618 834 638 c 128,-1,60
 831 658 831 658 824.5 688 c 128,-1,61
 818 718 818 718 808.5 733.5 c 128,-1,62
 799 749 799 749 784.5 768 c 128,-1,63
 770 787 770 787 751.5 796 c 128,-1,64
 733 805 733 805 707.5 811.5 c 128,-1,65
 682 818 682 818 651 818 c 0,66,67
 527 818 527 818 385 668 c 1,0,-1
EndSplineSet
EndChar

StartChar: o
Encoding: 111 111 82
Width: 1111
GlyphClass: 2
Flags: W
LayerCount: 2
Fore
SplineSet
282 515 m 0,0,1
 282 401 282 401 316 297.5 c 128,-1,2
 350 194 350 194 418 126 c 128,-1,3
 486 58 486 58 573 58 c 0,4,5
 700 58 700 58 766 149 c 128,-1,6
 832 240 832 240 832 388 c 0,7,8
 832 516 832 516 797.5 622.5 c 128,-1,9
 763 729 763 729 696 794 c 128,-1,10
 629 859 629 859 543 859 c 0,11,12
 426 859 426 859 354 773 c 128,-1,13
 282 687 282 687 282 515 c 0,0,1
82 456 m 0,14,15
 82 593 82 593 147 702 c 128,-1,16
 212 811 212 811 318.5 868.5 c 128,-1,17
 425 926 425 926 549 926 c 0,18,19
 682 926 682 926 790.5 870 c 128,-1,20
 899 814 899 814 964 706 c 128,-1,21
 1029 598 1029 598 1029 457 c 128,-1,22
 1029 316 1029 316 964 205.5 c 128,-1,23
 899 95 899 95 793 37.5 c 128,-1,24
 687 -20 687 -20 560 -20 c 0,25,26
 466 -20 466 -20 379 15 c 128,-1,27
 292 50 292 50 226.5 111.5 c 128,-1,28
 161 173 161 173 121.5 263 c 128,-1,29
 82 353 82 353 82 456 c 0,14,15
EndSplineSet
EndChar

StartChar: p
Encoding: 112 112 83
Width: 1159
GlyphClass: 2
Flags: W
LayerCount: 2
Fore
SplineSet
372 677 m 1,0,-1
 372 347 l 2,1,2
 372 222 372 222 441 143.5 c 128,-1,3
 510 65 510 65 632 65 c 0,4,5
 757 65 757 65 822 162 c 128,-1,6
 887 259 887 259 887 428 c 0,7,8
 887 607 887 607 807.5 701.5 c 128,-1,9
 728 796 728 796 613 796 c 0,10,11
 495 796 495 796 372 677 c 1,0,-1
372 75 m 1,12,-1
 372 -144 l 2,13,14
 372 -236 372 -236 415.5 -276.5 c 128,-1,15
 459 -317 459 -317 556 -328 c 1,16,-1
 554 -378 l 1,17,-1
 27 -378 l 1,18,19
 25 -344 25 -344 25 -328 c 1,20,21
 186 -306 186 -306 186 -153 c 2,22,-1
 186 714 l 1,23,24
 159 764 159 764 28 811 c 1,25,-1
 20 814 l 1,26,-1
 20 848 l 1,27,-1
 290 915 l 1,28,-1
 358 918 l 1,29,-1
 366 754 l 1,30,31
 440 836 440 836 515 881 c 128,-1,32
 590 926 590 926 686 926 c 0,33,34
 858 926 858 926 965.5 804.5 c 128,-1,35
 1073 683 1073 683 1073 477 c 0,36,37
 1073 257 1073 257 943.5 119 c 128,-1,38
 814 -19 814 -19 617 -19 c 0,39,40
 481 -19 481 -19 372 75 c 1,12,-1
EndSplineSet
EndChar

StartChar: q
Encoding: 113 113 84
Width: 1134
GlyphClass: 2
Flags: W
LayerCount: 2
Fore
SplineSet
791 236 m 1,0,-1
 791 624 l 1,1,2
 778 729 778 729 709.5 791 c 128,-1,3
 641 853 641 853 527 853 c 0,4,5
 406 853 406 853 335.5 753 c 128,-1,6
 265 653 265 653 265 495 c 0,7,8
 265 321 265 321 346 217 c 128,-1,9
 427 113 427 113 548 113 c 0,10,11
 667 113 667 113 791 236 c 1,0,-1
792 -186 m 2,12,-1
 792 144 l 1,13,14
 706 55 706 55 632 16.5 c 128,-1,15
 558 -22 558 -22 476 -22 c 0,16,17
 358 -22 358 -22 267 43 c 128,-1,18
 176 108 176 108 130 210.5 c 128,-1,19
 84 313 84 313 84 432 c 0,20,21
 84 665 84 665 214 794.5 c 128,-1,22
 344 924 344 924 550 924 c 0,23,24
 719 924 719 924 869 848 c 1,25,-1
 869 885 l 1,26,27
 876 902 876 902 904 914 c 128,-1,28
 932 926 932 926 956 926 c 0,29,30
 977 926 977 926 977 898 c 2,31,-1
 977 -138 l 2,32,33
 977 -224 977 -224 1011.5 -269 c 128,-1,34
 1046 -314 1046 -314 1131 -329 c 1,35,-1
 1129 -378 l 1,36,-1
 612 -378 l 1,37,38
 610 -344 610 -344 610 -329 c 1,39,40
 621 -325 621 -325 653.5 -316 c 128,-1,41
 686 -307 686 -307 704.5 -299 c 128,-1,42
 723 -291 723 -291 746 -277 c 128,-1,43
 769 -263 769 -263 780.5 -240 c 128,-1,44
 792 -217 792 -217 792 -186 c 2,12,-1
EndSplineSet
EndChar

StartChar: r
Encoding: 114 114 85
Width: 786
GlyphClass: 2
Flags: W
LayerCount: 2
Fore
SplineSet
388 633 m 1,0,-1
 388 261 l 2,1,2
 388 171 388 171 400 129 c 1,3,4
 405 106 405 106 427 91.5 c 128,-1,5
 449 77 449 77 473 72.5 c 128,-1,6
 497 68 497 68 532 62 c 128,-1,7
 567 56 567 56 584 50 c 1,8,-1
 583 0 l 1,9,-1
 47 0 l 1,10,11
 46 20 46 20 46 36 c 0,12,13
 46 51 46 51 47 54 c 1,14,15
 61 58 61 58 89.5 65 c 128,-1,16
 118 72 118 72 128.5 75.5 c 128,-1,17
 139 79 139 79 157.5 90 c 128,-1,18
 176 101 176 101 182.5 115 c 128,-1,19
 189 129 189 129 195 154.5 c 128,-1,20
 201 180 201 180 201 215 c 2,21,-1
 201 723 l 1,22,23
 188 745 188 745 149 765.5 c 128,-1,24
 110 786 110 786 77 796 c 2,25,-1
 44 805 l 1,26,-1
 46 840 l 1,27,-1
 312 916 l 1,28,-1
 369 916 l 1,29,-1
 385 732 l 1,30,31
 441 835 441 835 501.5 878 c 128,-1,32
 562 921 562 921 640 921 c 0,33,34
 699 921 699 921 740.5 886.5 c 128,-1,35
 782 852 782 852 782 811 c 0,36,37
 782 779 782 779 759 735.5 c 128,-1,38
 736 692 736 692 696 692 c 0,39,40
 666 692 666 692 645 708 c 128,-1,41
 624 724 624 724 614 743 c 128,-1,42
 604 762 604 762 587.5 778 c 128,-1,43
 571 794 571 794 551 794 c 0,44,45
 535 794 535 794 521 790 c 128,-1,46
 507 786 507 786 493 774.5 c 128,-1,47
 479 763 479 763 470 755.5 c 128,-1,48
 461 748 461 748 447 727.5 c 128,-1,49
 433 707 433 707 427.5 699 c 128,-1,50
 422 691 422 691 406.5 665 c 128,-1,51
 391 639 391 639 388 633 c 1,0,-1
EndSplineSet
EndChar

StartChar: s
Encoding: 115 115 86
Width: 807
GlyphClass: 2
Flags: W
LayerCount: 2
Fore
SplineSet
659 853 m 1,0,-1
 665 631 l 1,1,2
 651 630 651 630 618 630 c 1,3,4
 589 731 589 731 530.5 795 c 128,-1,5
 472 859 472 859 381 859 c 0,6,7
 318 859 318 859 281.5 828 c 128,-1,8
 245 797 245 797 245 738 c 0,9,10
 245 713 245 713 258 689 c 128,-1,11
 271 665 271 665 286.5 648 c 128,-1,12
 302 631 302 631 336 609 c 128,-1,13
 370 587 370 587 390 576 c 128,-1,14
 410 565 410 565 454.5 542.5 c 128,-1,15
 499 520 499 520 514 512 c 0,16,17
 626 452 626 452 677.5 389.5 c 128,-1,18
 729 327 729 327 729 237 c 0,19,20
 729 113 729 113 640.5 46.5 c 128,-1,21
 552 -20 552 -20 410 -20 c 0,22,23
 328 -20 328 -20 244 -0.5 c 128,-1,24
 160 19 160 19 106 52 c 1,25,-1
 106 296 l 1,26,27
 145 301 145 301 159 301 c 1,28,29
 182 190 182 190 240.5 120 c 128,-1,30
 299 50 299 50 401 50 c 0,31,32
 474 50 474 50 522.5 86.5 c 128,-1,33
 571 123 571 123 571 183 c 0,34,35
 571 215 571 215 555.5 241.5 c 128,-1,36
 540 268 540 268 506 291.5 c 128,-1,37
 472 315 472 315 437 333.5 c 128,-1,38
 402 352 402 352 345 382.5 c 128,-1,39
 288 413 288 413 244 441 c 0,40,41
 168 488 168 488 129.5 546 c 128,-1,42
 91 604 91 604 91 684 c 0,43,44
 91 799 91 799 174.5 862.5 c 128,-1,45
 258 926 258 926 387 926 c 0,46,47
 544 926 544 926 659 853 c 1,0,-1
EndSplineSet
EndChar

StartChar: t
Encoding: 116 116 87
Width: 670
GlyphClass: 2
Flags: W
LayerCount: 2
Fore
SplineSet
622 815 m 1,0,-1
 373 815 l 1,1,-1
 373 314 l 2,2,3
 373 269 373 269 373.5 244.5 c 128,-1,4
 374 220 374 220 376.5 191 c 128,-1,5
 379 162 379 162 384.5 148.5 c 128,-1,6
 390 135 390 135 399 120 c 128,-1,7
 408 105 408 105 423 99.5 c 128,-1,8
 438 94 438 94 457.5 90 c 128,-1,9
 477 86 477 86 505 86 c 0,10,11
 573 86 573 86 645 108 c 1,12,-1
 653 35 l 1,13,14
 538 -20 538 -20 425 -20 c 0,15,16
 284 -20 284 -20 235 52.5 c 128,-1,17
 186 125 186 125 186 317 c 2,18,-1
 186 815 l 1,19,-1
 37 815 l 1,20,-1
 37 859 l 1,21,22
 89 880 89 880 128.5 905.5 c 128,-1,23
 168 931 168 931 200 967 c 128,-1,24
 232 1003 232 1003 250.5 1027.5 c 128,-1,25
 269 1052 269 1052 300 1101 c 0,26,27
 330 1149 330 1149 348 1149 c 0,28,29
 371 1149 371 1149 371 1110 c 2,30,-1
 371 899 l 1,31,-1
 622 899 l 1,32,-1
 622 815 l 1,0,-1
EndSplineSet
EndChar

StartChar: u
Encoding: 117 117 88
Width: 1191
GlyphClass: 2
Flags: W
LayerCount: 2
Fore
SplineSet
1160 85 m 1,0,1
 1160 85 1160 85 1157 32 c 1,2,-1
 829 -15 l 1,3,-1
 821 145 l 1,4,5
 673 -20 673 -20 490 -20 c 0,6,7
 415 -20 415 -20 360.5 5 c 128,-1,8
 306 30 306 30 274 70 c 128,-1,9
 242 110 242 110 223 171.5 c 128,-1,10
 204 233 204 233 198 292.5 c 128,-1,11
 192 352 192 352 192 429 c 2,12,-1
 192 645 l 2,13,14
 192 703 192 703 184 746 c 0,15,16
 180 766 180 766 162 782 c 128,-1,17
 144 798 144 798 118.5 807 c 128,-1,18
 93 816 93 816 70.5 821 c 128,-1,19
 48 826 48 826 26 828 c 1,20,-1
 26 878 l 1,21,-1
 378 904 l 1,22,-1
 378 440 l 2,23,24
 378 250 378 250 416 174 c 128,-1,25
 454 98 454 98 554 98 c 0,26,27
 693 98 693 98 816 220 c 1,28,-1
 816 643 l 2,29,30
 816 702 816 702 808 747 c 0,31,32
 801 784 801 784 748.5 803.5 c 128,-1,33
 696 823 696 823 642 829 c 1,34,-1
 642 878 l 1,35,-1
 1002 904 l 1,36,-1
 1002 201 l 2,37,38
 1002 175 1002 175 1011.5 156 c 128,-1,39
 1021 137 1021 137 1033 126 c 128,-1,40
 1045 115 1045 115 1070 106 c 128,-1,41
 1095 97 1095 97 1111 94 c 128,-1,42
 1127 91 1127 91 1160 85 c 1,0,1
EndSplineSet
EndChar

StartChar: v
Encoding: 118 118 89
Width: 969
GlyphClass: 2
Flags: W
LayerCount: 2
Fore
SplineSet
813 706 m 2,0,-1
 503 -12 l 1,1,2
 491 -18 491 -18 473 -18 c 0,3,4
 454 -18 454 -18 443 -12 c 1,5,-1
 137 724 l 2,6,7
 123 758 123 758 111.5 778 c 128,-1,8
 100 798 100 798 87 808 c 128,-1,9
 74 818 74 818 64 822 c 128,-1,10
 54 826 54 826 33.5 832.5 c 128,-1,11
 13 839 13 839 -4 847 c 1,12,-1
 -4 899 l 1,13,-1
 446 899 l 1,14,15
 446 892 446 892 448.5 872.5 c 128,-1,16
 451 853 451 853 451 845 c 1,17,18
 418 836 418 836 401 830.5 c 128,-1,19
 384 825 384 825 362.5 815 c 128,-1,20
 341 805 341 805 331.5 791.5 c 128,-1,21
 322 778 322 778 322 760 c 0,22,23
 322 750 322 750 327 733 c 1,24,-1
 531 230 l 1,25,-1
 703 649 l 2,26,27
 731 718 731 718 731 755 c 1,28,29
 728 790 728 790 697.5 808.5 c 128,-1,30
 667 827 667 827 601 843 c 1,31,32
 600 849 600 849 600 866 c 2,33,-1
 601 899 l 1,34,-1
 973 899 l 1,35,36
 975 882 975 882 975 848 c 1,37,38
 968 843 968 843 928.5 826.5 c 128,-1,39
 889 810 889 810 862.5 784 c 128,-1,40
 836 758 836 758 813 706 c 2,0,-1
EndSplineSet
EndChar

StartChar: w
Encoding: 119 119 90
Width: 1434
GlyphClass: 2
Flags: W
LayerCount: 2
Fore
SplineSet
318 726 m 1,0,1
 318 722 318 722 319 719 c 2,2,-1
 504 243 l 1,3,-1
 687 688 l 1,4,5
 668 756 668 756 626 802 c 128,-1,6
 584 848 584 848 519 851 c 1,7,-1
 521 899 l 1,8,-1
 963 899 l 1,9,10
 965 865 965 865 965 851 c 1,11,12
 952 845 952 845 927 836.5 c 128,-1,13
 902 828 902 828 888 822 c 128,-1,14
 874 816 874 816 862 802 c 128,-1,15
 850 788 850 788 850 768 c 0,16,17
 850 747 850 747 868 698 c 2,18,-1
 1031 251 l 1,19,-1
 1187 672 l 2,20,21
 1206 721 1206 721 1206 754 c 0,22,23
 1206 776 1206 776 1202 790 c 128,-1,24
 1198 804 1198 804 1184 813.5 c 128,-1,25
 1170 823 1170 823 1162 826.5 c 128,-1,26
 1154 830 1154 830 1126 837 c 128,-1,27
 1098 844 1098 844 1085 848 c 1,28,29
 1083 862 1083 862 1083 872 c 0,30,31
 1083 881 1083 881 1085 899 c 1,32,-1
 1436 899 l 1,33,-1
 1436 846 l 1,34,35
 1393 840 1393 840 1343 797.5 c 128,-1,36
 1293 755 1293 755 1278 714 c 2,37,-1
 1008 -14 l 1,38,39
 998 -20 998 -20 978 -20 c 0,40,41
 959 -20 959 -20 947 -14 c 1,42,-1
 720 596 l 1,43,-1
 479 -14 l 1,44,45
 467 -20 467 -20 448 -20 c 0,46,47
 426 -20 426 -20 416 -14 c 1,48,-1
 137 699 l 2,49,50
 123 736 123 736 113.5 755 c 128,-1,51
 104 774 104 774 88.5 796.5 c 128,-1,52
 73 819 73 819 51 831 c 128,-1,53
 29 843 29 843 -1 850 c 1,54,-1
 1 899 l 1,55,-1
 413 899 l 1,56,57
 414 882 414 882 414 851 c 1,58,59
 366 835 366 835 339.5 815 c 128,-1,60
 313 795 313 795 313 758 c 0,61,62
 313 741 313 741 318 726 c 1,0,1
EndSplineSet
EndChar

StartChar: x
Encoding: 120 120 91
Width: 1008
GlyphClass: 2
Flags: W
LayerCount: 2
Fore
SplineSet
171 152 m 2,0,-1
 418 431 l 1,1,-1
 151 772 l 2,2,3
 134 794 134 794 111.5 809 c 128,-1,4
 89 824 89 824 56.5 837 c 128,-1,5
 24 850 24 850 22 851 c 1,6,-1
 23 899 l 1,7,-1
 466 899 l 1,8,9
 467 866 467 866 467 851 c 1,10,11
 379 824 379 824 379 779 c 0,12,13
 379 771 379 771 388 748 c 1,14,-1
 528 561 l 1,15,-1
 650 710 l 2,16,17
 681 748 681 748 681 774 c 128,-1,18
 681 800 681 800 653 820.5 c 128,-1,19
 625 841 625 841 580 848 c 1,20,-1
 580 899 l 1,21,-1
 950 899 l 1,22,23
 951 866 951 866 951 850 c 1,24,25
 945 847 945 847 916.5 837 c 128,-1,26
 888 827 888 827 870.5 819.5 c 128,-1,27
 853 812 853 812 827.5 794 c 128,-1,28
 802 776 802 776 783 753 c 2,29,-1
 577 501 l 1,30,-1
 847 159 l 2,31,32
 888 106 888 106 915 88 c 128,-1,33
 942 70 942 70 1002 47 c 1,34,-1
 1000 0 l 1,35,-1
 523 0 l 1,36,37
 522 32 522 32 522 48 c 1,38,39
 536 55 536 55 569.5 65 c 128,-1,40
 603 75 603 75 621.5 86 c 128,-1,41
 640 97 640 97 640 115 c 0,42,43
 640 137 640 137 615 165 c 1,44,-1
 459 376 l 1,45,-1
 323 225 l 2,46,47
 300 200 300 200 283.5 167.5 c 128,-1,48
 267 135 267 135 267 113 c 0,49,50
 267 89 267 89 296.5 75.5 c 128,-1,51
 326 62 326 62 382 51 c 1,52,53
 383 45 383 45 383 30 c 2,54,-1
 382 0 l 1,55,-1
 -1 0 l 1,56,57
 -3 31 -3 31 -3 48 c 1,58,59
 4 52 4 52 41 67 c 128,-1,60
 78 82 78 82 112 102.5 c 128,-1,61
 146 123 146 123 171 152 c 2,0,-1
EndSplineSet
EndChar

StartChar: y
Encoding: 121 121 92
Width: 971
GlyphClass: 2
Flags: W
LayerCount: 2
Fore
SplineSet
465 0 m 1,0,-1
 153 712 l 2,1,2
 130 764 130 764 110 790.5 c 128,-1,3
 90 817 90 817 77.5 823 c 128,-1,4
 65 829 65 829 38.5 834.5 c 128,-1,5
 12 840 12 840 -5 847 c 1,6,-1
 -5 899 l 1,7,-1
 464 899 l 1,8,9
 469 874 469 874 469 867 c 0,10,11
 469 859 469 859 460 852.5 c 128,-1,12
 451 846 451 846 436 839.5 c 128,-1,13
 421 833 421 833 417 830 c 1,14,15
 334 824 334 824 334 776 c 0,16,17
 334 762 334 762 347 721 c 1,18,-1
 554 227 l 1,19,-1
 723 675 l 2,20,21
 738 714 738 714 738 743 c 0,22,23
 738 786 738 786 707 808.5 c 128,-1,24
 676 831 676 831 608 843 c 1,25,26
 607 849 607 849 607 866 c 2,27,-1
 608 899 l 1,28,-1
 975 899 l 1,29,30
 976 866 976 866 976 848 c 1,31,32
 963 838 963 838 939 827.5 c 128,-1,33
 915 817 915 817 897 809 c 128,-1,34
 879 801 879 801 859 775 c 128,-1,35
 839 749 839 749 827 707 c 1,36,-1
 472 -167 l 2,37,38
 428 -277 428 -277 367.5 -336 c 128,-1,39
 307 -395 307 -395 214 -395 c 0,40,41
 147 -395 147 -395 103.5 -363.5 c 128,-1,42
 60 -332 60 -332 60 -279 c 0,43,44
 60 -238 60 -238 89 -212 c 128,-1,45
 118 -186 118 -186 159 -186 c 0,46,47
 184 -186 184 -186 203 -197 c 128,-1,48
 222 -208 222 -208 232 -221.5 c 128,-1,49
 242 -235 242 -235 259 -246 c 128,-1,50
 276 -257 276 -257 297 -257 c 0,51,52
 326 -257 326 -257 351 -237 c 128,-1,53
 376 -217 376 -217 397 -175 c 128,-1,54
 418 -133 418 -133 432 -96.5 c 128,-1,55
 446 -60 446 -60 465 0 c 1,0,-1
EndSplineSet
EndChar

StartChar: z
Encoding: 122 122 93
Width: 892
GlyphClass: 2
Flags: W
LayerCount: 2
Fore
SplineSet
823 840 m 1,0,-1
 278 60 l 1,1,-1
 472 60 l 2,2,3
 555 60 555 60 643 86 c 0,4,5
 677 96 677 96 702.5 133 c 128,-1,6
 728 170 728 170 750 216 c 128,-1,7
 772 262 772 262 789 279 c 1,8,9
 798 279 798 279 815 278 c 128,-1,10
 832 277 832 277 840 277 c 1,11,-1
 811 -11 l 1,12,13
 686 0 686 0 652 0 c 2,14,-1
 44 0 l 1,15,-1
 30 33 l 1,16,-1
 607 838 l 1,17,-1
 438 838 l 2,18,19
 351 838 351 838 313 829 c 1,20,21
 273 824 273 824 241 793 c 128,-1,22
 209 762 209 762 178 720 c 128,-1,23
 147 678 147 678 124 662 c 1,24,-1
 79 664 l 1,25,-1
 100 925 l 1,26,27
 169 899 169 899 267 899 c 2,28,-1
 768 899 l 2,29,30
 776 899 776 899 789.5 898 c 128,-1,31
 803 897 803 897 813 896 c 2,32,-1
 823 895 l 1,33,-1
 823 840 l 1,0,-1
EndSplineSet
EndChar

StartChar: braceleft
Encoding: 123 123 94
Width: 827
GlyphClass: 2
Flags: W
LayerCount: 2
Fore
SplineSet
191 619 m 1,0,1
 191 653 191 653 213 667 c 1,2,3
 302 675 302 675 352.5 728.5 c 128,-1,4
 403 782 403 782 403 871 c 0,5,6
 403 919 403 919 389 1014 c 128,-1,7
 375 1109 375 1109 375 1157 c 0,8,9
 375 1313 375 1313 469.5 1400 c 128,-1,10
 564 1487 564 1487 724 1497 c 1,11,12
 729 1482 729 1482 729 1467 c 0,13,14
 729 1453 729 1453 724 1440 c 1,15,16
 633 1428 633 1428 582.5 1387 c 128,-1,17
 532 1346 532 1346 532 1261 c 0,18,19
 532 1212 532 1212 553 1114.5 c 128,-1,20
 574 1017 574 1017 574 967 c 0,21,22
 574 841 574 841 501 755 c 128,-1,23
 428 669 428 669 304 632 c 1,24,25
 427 595 427 595 500.5 508 c 128,-1,26
 574 421 574 421 574 297 c 0,27,28
 574 245 574 245 552 145.5 c 128,-1,29
 530 46 530 46 530 -4 c 0,30,31
 530 -144 530 -144 724 -176 c 1,32,33
 732 -189 732 -189 732 -205 c 0,34,35
 732 -220 732 -220 724 -233 c 1,36,37
 559 -223 559 -223 467.5 -133 c 128,-1,38
 376 -43 376 -43 376 120 c 0,39,40
 376 168 376 168 388.5 263 c 128,-1,41
 401 358 401 358 401 406 c 0,42,43
 401 456 401 456 389 488.5 c 128,-1,44
 377 521 377 521 354 537.5 c 128,-1,45
 331 554 331 554 307 563.5 c 128,-1,46
 283 573 283 573 249 587 c 128,-1,47
 215 601 215 601 191 619 c 1,0,1
EndSplineSet
EndChar

StartChar: bar
Encoding: 124 124 95
Width: 824
GlyphClass: 2
Flags: W
LayerCount: 2
Fore
SplineSet
354 1165 m 1,0,-1
 354 1431 l 1,1,2
 379 1467 379 1467 434 1467 c 2,3,-1
 438 1467 l 1,4,-1
 440 1459 l 1,5,6
 469 1320 469 1320 469 1244 c 2,7,-1
 469 -88 l 2,8,9
 469 -242 469 -242 438 -315 c 1,10,11
 402 -314 402 -314 354 -283 c 1,12,-1
 354 1165 l 1,0,-1
EndSplineSet
EndChar

StartChar: braceright
Encoding: 125 125 96
Width: 827
GlyphClass: 2
Flags: W
LayerCount: 2
Fore
SplineSet
614 667 m 1,0,1
 637 653 637 653 637 619 c 1,2,3
 611 602 611 602 574.5 587 c 128,-1,4
 538 572 538 572 515 562.5 c 128,-1,5
 492 553 492 553 469 535 c 128,-1,6
 446 517 446 517 435 484 c 128,-1,7
 424 451 424 451 424 399 c 0,8,9
 424 353 424 353 437.5 262.5 c 128,-1,10
 451 172 451 172 451 127 c 0,11,12
 451 -40 451 -40 361.5 -131 c 128,-1,13
 272 -222 272 -222 104 -233 c 1,14,15
 96 -225 96 -225 96 -212 c 0,16,17
 96 -187 96 -187 104 -176 c 1,18,19
 297 -147 297 -147 297 -4 c 0,20,21
 297 46 297 46 275 145.5 c 128,-1,22
 253 245 253 245 253 297 c 0,23,24
 253 421 253 421 326.5 508 c 128,-1,25
 400 595 400 595 523 632 c 1,26,27
 399 668 399 668 326 755 c 128,-1,28
 253 842 253 842 253 967 c 0,29,30
 253 1017 253 1017 274 1114.5 c 128,-1,31
 295 1212 295 1212 295 1261 c 0,32,33
 295 1345 295 1345 244 1386.5 c 128,-1,34
 193 1428 193 1428 104 1440 c 1,35,36
 98 1452 98 1452 98 1467 c 0,37,38
 98 1479 98 1479 104 1497 c 1,39,40
 263 1487 263 1487 357.5 1400 c 128,-1,41
 452 1313 452 1313 452 1157 c 0,42,43
 452 1108 452 1108 438 1011.5 c 128,-1,44
 424 915 424 915 424 866 c 0,45,46
 424 778 424 778 475 726 c 128,-1,47
 526 674 526 674 614 667 c 1,0,1
EndSplineSet
EndChar

StartChar: asciitilde
Encoding: 126 126 97
Width: 858
GlyphClass: 2
Flags: W
LayerCount: 2
Fore
SplineSet
757 846 m 1,0,-1
 846 846 l 1,1,2
 846 726 846 726 794.5 654.5 c 128,-1,3
 743 583 743 583 645 583 c 0,4,5
 590 583 590 583 524.5 603.5 c 128,-1,6
 459 624 459 624 409.5 648 c 128,-1,7
 360 672 360 672 305 692.5 c 128,-1,8
 250 713 250 713 214 713 c 0,9,10
 111 713 111 713 97 596 c 1,11,-1
 6 596 l 1,12,13
 29 851 29 851 223 851 c 0,14,15
 283 851 283 851 366 817.5 c 128,-1,16
 449 784 449 784 524.5 751 c 128,-1,17
 600 718 600 718 642 718 c 0,18,19
 752 718 752 718 757 846 c 1,0,-1
EndSplineSet
EndChar

StartChar: exclamdown
Encoding: 161 161 98
Width: 567
GlyphClass: 2
Flags: W
LayerCount: 2
Fore
SplineSet
279 -29 m 0,0,1
 153 -29 153 -29 153 82 c 0,2,3
 153 167 153 167 170 304 c 128,-1,4
 187 441 187 441 214 609 c 128,-1,5
 241 777 241 777 248 833 c 0,6,7
 248 837 248 837 249 851.5 c 128,-1,8
 250 866 250 866 251.5 876.5 c 128,-1,9
 253 887 253 887 256.5 900 c 128,-1,10
 260 913 260 913 266.5 920 c 128,-1,11
 273 927 273 927 283 927 c 0,12,13
 291 927 291 927 297 918 c 128,-1,14
 303 909 303 909 306.5 893.5 c 128,-1,15
 310 878 310 878 312 864 c 128,-1,16
 314 850 314 850 315 835 c 128,-1,17
 316 820 316 820 317 817 c 0,18,19
 320 797 320 797 341.5 658 c 128,-1,20
 363 519 363 519 374 441.5 c 128,-1,21
 385 364 385 364 397 254.5 c 128,-1,22
 409 145 409 145 409 84 c 0,23,24
 409 27 409 27 373 -1 c 128,-1,25
 337 -29 337 -29 279 -29 c 0,0,1
162 1191 m 0,26,27
 162 1241 162 1241 197.5 1276.5 c 128,-1,28
 233 1312 233 1312 283 1312 c 0,29,30
 334 1312 334 1312 370.5 1277 c 128,-1,31
 407 1242 407 1242 407 1191 c 128,-1,32
 407 1140 407 1140 370.5 1103.5 c 128,-1,33
 334 1067 334 1067 283 1067 c 128,-1,34
 232 1067 232 1067 197 1103.5 c 128,-1,35
 162 1140 162 1140 162 1191 c 0,26,27
EndSplineSet
EndChar

StartChar: cent
Encoding: 162 162 99
Width: 1049
GlyphClass: 2
Flags: W
LayerCount: 2
Fore
SplineSet
485 165 m 1,0,-1
 611 846 l 1,1,2
 550 846 550 846 497 826 c 128,-1,3
 444 806 444 806 402 766.5 c 128,-1,4
 360 727 360 727 335.5 662.5 c 128,-1,5
 311 598 311 598 311 516 c 0,6,7
 311 379 311 379 354 293.5 c 128,-1,8
 397 208 397 208 485 165 c 1,0,-1
396 -201 m 1,9,-1
 448 6 l 1,10,11
 301 44 301 44 213 162.5 c 128,-1,12
 125 281 125 281 125 447 c 0,13,14
 125 535 125 535 155.5 618.5 c 128,-1,15
 186 702 186 702 243 770.5 c 128,-1,16
 300 839 300 839 392 881 c 128,-1,17
 484 923 484 923 596 923 c 0,18,19
 601 923 601 923 611 922.5 c 128,-1,20
 621 922 621 922 627 922 c 1,21,-1
 657 1107 l 2,22,23
 667 1167 667 1167 704 1223 c 1,24,25
 737 1223 737 1223 755 1221 c 1,26,27
 753 1159 753 1159 743 1097 c 2,28,-1
 714 916 l 1,29,30
 814 901 814 901 873.5 853.5 c 128,-1,31
 933 806 933 806 933 735 c 0,32,33
 933 692 933 692 907 665.5 c 128,-1,34
 881 639 881 639 844 639 c 0,35,36
 810 639 810 639 794 653.5 c 128,-1,37
 778 668 778 668 773.5 691 c 128,-1,38
 769 714 769 714 765 739 c 128,-1,39
 761 764 761 764 743.5 789.5 c 128,-1,40
 726 815 726 815 691 830 c 1,41,-1
 563 139 l 1,42,43
 611 122 611 122 668 122 c 0,44,45
 801 122 801 122 891 212 c 1,46,47
 908 204 908 204 923 189 c 1,48,49
 920 176 920 176 907 142 c 0,50,51
 882 76 882 76 789.5 29.5 c 128,-1,52
 697 -17 697 -17 604 -19 c 1,53,54
 568 -29 568 -29 536 -29 c 2,55,-1
 527 -29 l 1,56,57
 510 -175 510 -175 462 -253 c 1,58,59
 414 -253 414 -253 396 -201 c 1,9,-1
EndSplineSet
EndChar

StartChar: sterling
Encoding: 163 163 100
Width: 1238
GlyphClass: 2
Flags: W
LayerCount: 2
Fore
SplineSet
501 574 m 1,0,-1
 516 359 l 1,1,2
 516 308 516 308 496 242 c 1,3,4
 502 240 502 240 550.5 218.5 c 128,-1,5
 599 197 599 197 621 188.5 c 128,-1,6
 643 180 643 180 680 170 c 128,-1,7
 717 160 717 160 743 160 c 0,8,9
 787 160 787 160 820.5 175.5 c 128,-1,10
 854 191 854 191 873 213.5 c 128,-1,11
 892 236 892 236 905 258.5 c 128,-1,12
 918 281 918 281 927.5 296.5 c 128,-1,13
 937 312 937 312 946 312 c 0,14,15
 952 312 952 312 965 307 c 1,16,17
 954 171 954 171 937 119 c 0,18,19
 898 0 898 0 772 -10 c 0,20,21
 759 -11 759 -11 746 -11 c 0,22,23
 696 -11 696 -11 634 10.5 c 128,-1,24
 572 32 572 32 536 51.5 c 128,-1,25
 500 71 500 71 436 109 c 1,26,27
 399 55 399 55 345.5 22 c 128,-1,28
 292 -11 292 -11 231 -11 c 0,29,30
 159 -11 159 -11 112 38.5 c 128,-1,31
 65 88 65 88 65 160 c 0,32,33
 65 231 65 231 111 270.5 c 128,-1,34
 157 310 157 310 229 310 c 0,35,36
 291 310 291 310 367 288 c 1,37,-1
 302 574 l 1,38,39
 298 574 298 574 285.5 573.5 c 128,-1,40
 273 573 273 573 265 573 c 0,41,42
 153 573 153 573 153 621 c 0,43,44
 153 667 153 667 250 667 c 0,45,46
 258 667 258 667 269.5 666.5 c 128,-1,47
 281 666 281 666 285 666 c 1,48,49
 284 679 284 679 279.5 752.5 c 128,-1,50
 275 826 275 826 275 865 c 0,51,52
 275 1021 275 1021 382 1115.5 c 128,-1,53
 489 1210 489 1210 647 1210 c 0,54,55
 696 1210 696 1210 743.5 1198 c 128,-1,56
 791 1186 791 1186 833 1162.5 c 128,-1,57
 875 1139 875 1139 901 1098 c 128,-1,58
 927 1057 927 1057 927 1005 c 0,59,60
 927 956 927 956 896.5 928.5 c 128,-1,61
 866 901 866 901 824 901 c 0,62,63
 786 901 786 901 759 924 c 128,-1,64
 732 947 732 947 732 988 c 0,65,66
 732 1003 732 1003 742 1030 c 128,-1,67
 752 1057 752 1057 752 1071 c 0,68,69
 752 1111 752 1111 725 1137.5 c 128,-1,70
 698 1164 698 1164 658 1164 c 0,71,72
 611 1164 611 1164 576.5 1135.5 c 128,-1,73
 542 1107 542 1107 524 1062.5 c 128,-1,74
 506 1018 506 1018 498 973.5 c 128,-1,75
 490 929 490 929 490 887 c 0,76,77
 490 867 490 867 501 666 c 1,78,-1
 729 666 l 1,79,80
 735 647 735 647 735 616 c 0,81,82
 735 584 735 584 729 574 c 1,83,-1
 501 574 l 1,0,-1
248 73 m 128,-1,85
 284 73 284 73 314 96.5 c 128,-1,86
 344 120 344 120 359 155 c 1,87,88
 271 205 271 205 227 205 c 0,89,90
 205 205 205 205 190 192 c 128,-1,91
 175 179 175 179 175 158 c 0,92,93
 175 121 175 121 193.5 97 c 128,-1,84
 212 73 212 73 248 73 c 128,-1,85
EndSplineSet
EndChar

StartChar: currency
Encoding: 164 164 101
Width: 1188
GlyphClass: 2
Flags: W
LayerCount: 2
Fore
SplineSet
331 721 m 0,0,1
 331 604 331 604 404.5 524.5 c 128,-1,2
 478 445 478 445 594 445 c 0,3,4
 702 445 702 445 779.5 522 c 128,-1,5
 857 599 857 599 857 707 c 0,6,7
 857 823 857 823 783 903 c 128,-1,8
 709 983 709 983 594 983 c 0,9,10
 486 983 486 983 408.5 906 c 128,-1,11
 331 829 331 829 331 721 c 0,0,1
817 1044 m 1,12,13
 824 1053 824 1053 847.5 1083.5 c 128,-1,14
 871 1114 871 1114 882 1127.5 c 128,-1,15
 893 1141 893 1141 914.5 1161 c 128,-1,16
 936 1181 936 1181 957 1194 c 1,17,18
 1007 1163 1007 1163 1039 1109 c 1,19,20
 1024 1085 1024 1085 1003.5 1060.5 c 128,-1,21
 983 1036 983 1036 953 1004 c 128,-1,22
 923 972 923 972 912 959 c 1,23,24
 998 848 998 848 998 714 c 0,25,26
 998 581 998 581 914 470 c 1,27,28
 921 461 921 461 974.5 405.5 c 128,-1,29
 1028 350 1028 350 1046 318 c 1,30,31
 1010 268 1010 268 959 238 c 1,32,33
 942 248 942 248 920.5 269 c 128,-1,34
 899 290 899 290 888 303 c 128,-1,35
 877 316 877 316 850 349.5 c 128,-1,36
 823 383 823 383 822 384 c 1,37,38
 720 318 720 318 596 318 c 0,39,40
 479 318 479 318 373 382 c 1,41,42
 366 373 366 373 342.5 342.5 c 128,-1,43
 319 312 319 312 307.5 298.5 c 128,-1,44
 296 285 296 285 274.5 265 c 128,-1,45
 253 245 253 245 231 233 c 1,46,47
 177 269 177 269 149 317 c 1,48,49
 162 336 162 336 179 357.5 c 128,-1,50
 196 379 196 379 209.5 393.5 c 128,-1,51
 223 408 223 408 245 431.5 c 128,-1,52
 267 455 267 455 277 467 c 1,53,54
 191 579 191 579 191 713 c 128,-1,55
 191 847 191 847 275 958 c 1,56,57
 267 968 267 968 214 1023 c 128,-1,58
 161 1078 161 1078 142 1110 c 1,59,60
 182 1162 182 1162 230 1190 c 1,61,62
 244 1181 244 1181 259 1168.5 c 128,-1,63
 274 1156 274 1156 291.5 1136.5 c 128,-1,64
 309 1117 309 1117 317.5 1106.5 c 128,-1,65
 326 1096 326 1096 346.5 1070 c 128,-1,66
 367 1044 367 1044 369 1042 c 1,67,68
 477 1109 477 1109 594 1109 c 0,69,70
 713 1109 713 1109 817 1044 c 1,12,13
EndSplineSet
EndChar

StartChar: yen
Encoding: 165 165 102
Width: 1340
GlyphClass: 2
Flags: W
LayerCount: 2
Fore
SplineSet
370 302 m 2,0,-1
 540 303 l 1,1,-1
 540 395 l 1,2,3
 516 395 516 395 464.5 393 c 128,-1,4
 413 391 413 391 389 391 c 0,5,6
 318 391 318 391 283.5 403.5 c 128,-1,7
 249 416 249 416 249 452 c 0,8,9
 249 464 249 464 254.5 469.5 c 128,-1,10
 260 475 260 475 282.5 479.5 c 128,-1,11
 305 484 305 484 346 485.5 c 128,-1,12
 387 487 387 487 463 487 c 2,13,-1
 540 487 l 1,14,-1
 540 530 l 1,15,-1
 260 1030 l 2,16,17
 252 1045 252 1045 198 1074.5 c 128,-1,18
 144 1104 144 1104 95 1129 c 128,-1,19
 46 1154 46 1154 46 1159 c 0,20,21
 46 1163 46 1163 50 1176 c 1,22,-1
 676 1176 l 1,23,24
 680 1167 680 1167 680 1158 c 0,25,26
 680 1142 680 1142 633 1127.5 c 128,-1,27
 586 1113 586 1113 538.5 1097 c 128,-1,28
 491 1081 491 1081 491 1059 c 0,29,30
 491 1052 491 1052 496 1040 c 1,31,-1
 726 630 l 1,32,-1
 940 1040 l 2,33,34
 946 1050 946 1050 946 1060 c 0,35,36
 946 1077 946 1077 925 1088.5 c 128,-1,37
 904 1100 904 1100 876.5 1105.5 c 128,-1,38
 849 1111 849 1111 815 1122 c 128,-1,39
 781 1133 781 1133 762 1148 c 0,40,41
 758 1151 758 1151 758 1159 c 0,42,43
 758 1163 758 1163 762 1176 c 1,44,-1
 1258 1176 l 1,45,46
 1262 1167 1262 1167 1262 1157 c 0,47,48
 1262 1146 1262 1146 1232 1135 c 128,-1,49
 1202 1124 1202 1124 1171 1119 c 0,50,51
 1112 1109 1112 1109 1076.5 1092 c 128,-1,52
 1041 1075 1041 1075 1021 1040 c 2,53,-1
 755 580 l 1,54,-1
 755 487 l 1,55,-1
 984 487 l 2,56,57
 1004 487 1004 487 1024.5 483.5 c 128,-1,58
 1045 480 1045 480 1066 467.5 c 128,-1,59
 1087 455 1087 455 1087 434 c 0,60,61
 1087 418 1087 418 1065 405.5 c 128,-1,62
 1043 393 1043 393 1006 393 c 2,63,-1
 755 393 l 1,64,-1
 755 307 l 1,65,-1
 1011 307 l 2,66,67
 1048 307 1048 307 1068 294.5 c 128,-1,68
 1088 282 1088 282 1088 265 c 0,69,70
 1088 235 1088 235 1060 222.5 c 128,-1,71
 1032 210 1032 210 995 210 c 2,72,-1
 755 210 l 1,73,-1
 755 124 l 2,74,75
 755 89 755 89 791.5 72 c 128,-1,76
 828 55 828 55 871.5 53 c 128,-1,77
 915 51 915 51 951.5 43 c 128,-1,78
 988 35 988 35 988 17 c 0,79,80
 988 12 988 12 984 0 c 1,81,-1
 314 0 l 1,82,83
 309 12 309 12 309 18 c 0,84,85
 309 36 309 36 333 43.5 c 128,-1,86
 357 51 357 51 390.5 53 c 128,-1,87
 424 55 424 55 458 59 c 128,-1,88
 492 63 492 63 516 80.5 c 128,-1,89
 540 98 540 98 540 130 c 2,90,-1
 540 210 l 1,91,-1
 463 210 l 2,92,93
 369 210 369 210 320.5 216 c 128,-1,94
 272 222 272 222 260.5 230 c 128,-1,95
 249 238 249 238 249 254 c 0,96,97
 249 278 249 278 274.5 289.5 c 128,-1,98
 300 301 300 301 370 302 c 2,0,-1
EndSplineSet
EndChar

StartChar: brokenbar
Encoding: 166 166 103
Width: 826
GlyphClass: 2
Flags: W
LayerCount: 2
Fore
SplineSet
355 160 m 1,0,-1
 355 407 l 1,1,2
 377 443 377 443 438 443 c 1,3,4
 477 369 477 369 477 183 c 0,5,6
 477 145 477 145 475 77.5 c 128,-1,7
 473 10 473 10 473 -17 c 0,8,9
 473 -170 473 -170 438 -229 c 1,10,11
 420 -229 420 -229 408 -225 c 128,-1,12
 396 -221 396 -221 380 -211 c 128,-1,13
 364 -201 364 -201 355 -197 c 1,14,-1
 355 160 l 1,0,-1
355 1343 m 1,15,16
 377 1379 377 1379 438 1379 c 1,17,18
 470 1301 470 1301 470 1247 c 2,19,-1
 470 739 l 1,20,21
 434 707 434 707 387 707 c 1,22,23
 355 799 355 799 355 1010 c 2,24,-1
 355 1343 l 1,15,16
EndSplineSet
EndChar

StartChar: section
Encoding: 167 167 104
Width: 856
GlyphClass: 2
Flags: W
LayerCount: 2
Fore
SplineSet
234 1043 m 1,0,1
 187 973 187 973 187 872 c 0,2,3
 187 773 187 773 221 685.5 c 128,-1,4
 255 598 255 598 309.5 529.5 c 128,-1,5
 364 461 364 461 421.5 399 c 128,-1,6
 479 337 479 337 536.5 261 c 128,-1,7
 594 185 594 185 624 110 c 1,8,-1
 626 107 l 1,9,10
 659 173 659 173 659 255 c 0,11,12
 659 332 659 332 630 422 c 128,-1,13
 601 512 601 512 559.5 590.5 c 128,-1,14
 518 669 518 669 455.5 758.5 c 128,-1,15
 393 848 393 848 344 910 c 128,-1,16
 295 972 295 972 234 1043 c 1,0,1
195 1073 m 1,17,18
 181 1108 181 1108 181 1152 c 0,19,20
 181 1248 181 1248 250 1304 c 128,-1,21
 319 1360 319 1360 417 1360 c 0,22,23
 466 1360 466 1360 514 1352.5 c 128,-1,24
 562 1345 562 1345 613 1327 c 128,-1,25
 664 1309 664 1309 695.5 1271.5 c 128,-1,26
 727 1234 727 1234 727 1181 c 0,27,28
 727 1160 727 1160 705.5 1147 c 128,-1,29
 684 1134 684 1134 662 1134 c 128,-1,30
 640 1134 640 1134 610.5 1159.5 c 128,-1,31
 581 1185 581 1185 555.5 1215 c 128,-1,32
 530 1245 530 1245 491 1270.5 c 128,-1,33
 452 1296 452 1296 413 1296 c 0,34,35
 352 1296 352 1296 306.5 1266.5 c 128,-1,36
 261 1237 261 1237 261 1179 c 0,37,38
 261 1143 261 1143 287.5 1102 c 128,-1,39
 314 1061 314 1061 356.5 1019.5 c 128,-1,40
 399 978 399 978 450.5 930.5 c 128,-1,41
 502 883 502 883 554 825.5 c 128,-1,42
 606 768 606 768 648.5 704.5 c 128,-1,43
 691 641 691 641 717.5 556.5 c 128,-1,44
 744 472 744 472 744 381 c 0,45,46
 744 227 744 227 658 76 c 1,47,48
 683 26 683 26 683 -21 c 0,49,50
 683 -113 683 -113 605.5 -167.5 c 128,-1,51
 528 -222 528 -222 432 -222 c 0,52,53
 393 -222 393 -222 353 -217.5 c 128,-1,54
 313 -213 313 -213 267 -200 c 128,-1,55
 221 -187 221 -187 186 -166.5 c 128,-1,56
 151 -146 151 -146 128 -112 c 128,-1,57
 105 -78 105 -78 105 -34 c 0,58,59
 105 -3 105 -3 124.5 14 c 128,-1,60
 144 31 144 31 175 31 c 0,61,62
 197 31 197 31 212.5 17.5 c 128,-1,63
 228 4 228 4 235.5 -16 c 128,-1,64
 243 -36 243 -36 257 -59 c 128,-1,65
 271 -82 271 -82 288 -102 c 128,-1,66
 305 -122 305 -122 341.5 -135.5 c 128,-1,67
 378 -149 378 -149 429 -149 c 0,68,69
 471 -149 471 -149 508.5 -139 c 128,-1,70
 546 -129 546 -129 575.5 -100.5 c 128,-1,71
 605 -72 605 -72 605 -30 c 0,72,73
 605 17 605 17 578 65 c 128,-1,74
 551 113 551 113 507.5 156.5 c 128,-1,75
 464 200 464 200 411 247 c 128,-1,76
 358 294 358 294 305.5 348 c 128,-1,77
 253 402 253 402 209.5 460.5 c 128,-1,78
 166 519 166 519 139 596 c 128,-1,79
 112 673 112 673 112 757 c 0,80,81
 112 910 112 910 195 1073 c 1,17,18
EndSplineSet
EndChar

StartChar: dieresis
Encoding: 168 168 105
Width: 1121
GlyphClass: 2
Flags: W
LayerCount: 2
Fore
SplineSet
338 1301 m 0,0,1
 383 1301 383 1301 415 1269 c 128,-1,2
 447 1237 447 1237 447 1192 c 0,3,4
 447 1146 447 1146 415 1114.5 c 128,-1,5
 383 1083 383 1083 338 1083 c 0,6,7
 292 1083 292 1083 260.5 1114.5 c 128,-1,8
 229 1146 229 1146 229 1192 c 0,9,10
 229 1237 229 1237 260.5 1269 c 128,-1,11
 292 1301 292 1301 338 1301 c 0,0,1
777 1301 m 0,12,13
 823 1301 823 1301 855 1269 c 128,-1,14
 887 1237 887 1237 887 1192 c 0,15,16
 887 1146 887 1146 855 1114.5 c 128,-1,17
 823 1083 823 1083 777 1083 c 0,18,19
 732 1083 732 1083 700.5 1114.5 c 128,-1,20
 669 1146 669 1146 669 1192 c 0,21,22
 669 1237 669 1237 700.5 1269 c 128,-1,23
 732 1301 732 1301 777 1301 c 0,12,13
EndSplineSet
EndChar

StartChar: copyright
Encoding: 169 169 106
Width: 1507
GlyphClass: 2
Flags: W
LayerCount: 2
Fore
SplineSet
1350 627 m 0,0,1
 1350 755 1350 755 1306.5 868.5 c 128,-1,2
 1263 982 1263 982 1185.5 1066.5 c 128,-1,3
 1108 1151 1108 1151 994.5 1200 c 128,-1,4
 881 1249 881 1249 748 1249 c 0,5,6
 580 1249 580 1249 445 1169 c 128,-1,7
 310 1089 310 1089 236 956 c 128,-1,8
 162 823 162 823 162 666 c 0,9,10
 162 491 162 491 239 348.5 c 128,-1,11
 316 206 316 206 456 123.5 c 128,-1,12
 596 41 596 41 772 41 c 0,13,14
 890 41 890 41 997 87 c 128,-1,15
 1104 133 1104 133 1181.5 211 c 128,-1,16
 1259 289 1259 289 1304.5 398 c 128,-1,17
 1350 507 1350 507 1350 627 c 0,0,1
1435 646 m 0,18,19
 1435 456 1435 456 1343.5 302 c 128,-1,20
 1252 148 1252 148 1096 62.5 c 128,-1,21
 940 -23 940 -23 753 -23 c 0,22,23
 575 -23 575 -23 420 61.5 c 128,-1,24
 265 146 265 146 169 301 c 128,-1,25
 73 456 73 456 73 646 c 0,26,27
 73 787 73 787 129 913 c 128,-1,28
 185 1039 185 1039 278.5 1126 c 128,-1,29
 372 1213 372 1213 496.5 1263.5 c 128,-1,30
 621 1314 621 1314 754 1314 c 128,-1,31
 887 1314 887 1314 1011 1264.5 c 128,-1,32
 1135 1215 1135 1215 1228.5 1129 c 128,-1,33
 1322 1043 1322 1043 1378.5 916.5 c 128,-1,34
 1435 790 1435 790 1435 646 c 0,18,19
1080 1080 m 1,35,-1
 1101 840 l 1,36,37
 1089 838 1089 838 1071 838 c 1,38,39
 992 1055 992 1055 775 1055 c 0,40,41
 639 1055 639 1055 555 950.5 c 128,-1,42
 471 846 471 846 471 678 c 0,43,44
 471 489 471 489 558 385.5 c 128,-1,45
 645 282 645 282 801 282 c 0,46,47
 893 282 893 282 955 308 c 128,-1,48
 1017 334 1017 334 1088 392 c 1,49,50
 1099 389 1099 389 1114 376 c 1,51,52
 1074 298 1074 298 973.5 251.5 c 128,-1,53
 873 205 873 205 763 205 c 0,54,55
 568 205 568 205 439 329.5 c 128,-1,56
 310 454 310 454 310 647 c 0,57,58
 310 834 310 834 439 959 c 128,-1,59
 568 1084 568 1084 756 1096 c 1,60,61
 821 1096 821 1096 897 1075 c 128,-1,62
 973 1054 973 1054 989 1054 c 0,63,64
 1006 1054 1006 1054 1016 1080 c 1,65,-1
 1080 1080 l 1,35,-1
EndSplineSet
EndChar

StartChar: ordfeminine
Encoding: 170 170 107
Width: 708
GlyphClass: 2
Flags: W
LayerCount: 2
Fore
SplineSet
439 688 m 1,0,-1
 439 855 l 1,1,2
 426 851 426 851 393.5 841.5 c 128,-1,3
 361 832 361 832 340.5 825.5 c 128,-1,4
 320 819 320 819 291.5 805.5 c 128,-1,5
 263 792 263 792 246.5 778 c 128,-1,6
 230 764 230 764 217.5 742 c 128,-1,7
 205 720 205 720 205 693 c 0,8,9
 205 657 205 657 228.5 638 c 128,-1,10
 252 619 252 619 289 619 c 0,11,12
 358 619 358 619 439 688 c 1,0,-1
439 893 m 1,13,-1
 439 959 l 2,14,15
 439 1035 439 1035 413 1076 c 128,-1,16
 387 1117 387 1117 314 1117 c 0,17,18
 296 1117 296 1117 272 1111 c 128,-1,19
 248 1105 248 1105 226.5 1090.5 c 128,-1,20
 205 1076 205 1076 205 1058 c 0,21,22
 205 1046 205 1046 217 1026 c 128,-1,23
 229 1006 229 1006 229 995 c 0,24,25
 229 975 229 975 200 955 c 128,-1,26
 171 935 171 935 149 935 c 0,27,28
 128 935 128 935 110 964 c 128,-1,29
 92 993 92 993 92 1016 c 0,30,31
 92 1056 92 1056 118.5 1086.5 c 128,-1,32
 145 1117 145 1117 186.5 1133 c 128,-1,33
 228 1149 228 1149 268.5 1156.5 c 128,-1,34
 309 1164 309 1164 345 1164 c 0,35,36
 472 1164 472 1164 519 1110.5 c 128,-1,37
 566 1057 566 1057 566 928 c 0,38,39
 566 923 566 923 563 869.5 c 128,-1,40
 560 816 560 816 560 780 c 0,41,42
 560 736 560 736 560.5 716.5 c 128,-1,43
 561 697 561 697 564.5 673.5 c 128,-1,44
 568 650 568 650 575.5 642 c 128,-1,45
 583 634 583 634 597 634 c 0,46,47
 614 634 614 634 646 651 c 1,48,-1
 662 602 l 1,49,50
 645 573 645 573 608.5 559.5 c 128,-1,51
 572 546 572 546 532 546 c 128,-1,52
 492 546 492 546 468 574 c 128,-1,53
 444 602 444 602 441 644 c 1,54,55
 326 546 326 546 227 546 c 0,56,57
 164 546 164 546 117 579 c 128,-1,58
 70 612 70 612 70 673 c 0,59,60
 70 720 70 720 95.5 755 c 128,-1,61
 121 790 121 790 167.5 811.5 c 128,-1,62
 214 833 214 833 257 845.5 c 128,-1,63
 300 858 300 858 357 871.5 c 128,-1,64
 414 885 414 885 439 893 c 1,13,-1
EndSplineSet
EndChar

StartChar: guillemotleft
Encoding: 171 171 108
Width: 794
GlyphClass: 2
Flags: W
LayerCount: 2
Fore
SplineSet
228 507 m 1,0,1
 249 465 249 465 301 373.5 c 128,-1,2
 353 282 353 282 389.5 209.5 c 128,-1,3
 426 137 426 137 442 85 c 1,4,5
 424 63 424 63 400 63 c 1,6,7
 370 83 370 83 339 124 c 2,8,-1
 45 507 l 1,9,-1
 346 885 l 2,10,11
 352 893 352 893 362.5 906.5 c 128,-1,12
 373 920 373 920 381 930.5 c 128,-1,13
 389 941 389 941 396 947 c 1,14,15
 430 947 430 947 449 922 c 1,16,17
 434 874 434 874 396 802.5 c 128,-1,18
 358 731 358 731 304 640 c 128,-1,19
 250 549 250 549 228 507 c 1,0,1
693 808 m 2,20,-1
 540 507 l 1,21,-1
 689 200 l 2,22,23
 701 175 701 175 710 134 c 1,24,25
 693 113 693 113 669 113 c 1,26,27
 645 128 645 128 613 172 c 2,28,-1
 369 507 l 1,29,30
 543 744 543 744 665 898 c 1,31,32
 700 898 700 898 718 872 c 1,33,34
 708 837 708 837 693 808 c 2,20,-1
EndSplineSet
EndChar

StartChar: logicalnot
Encoding: 172 172 109
Width: 1345
GlyphClass: 2
Flags: W
LayerCount: 2
Fore
SplineSet
141 893 m 1,0,-1
 314 893 l 2,1,2
 560 893 560 893 1048 895 c 0,3,4
 1108 895 1108 895 1183 885 c 1,5,6
 1198 786 1198 786 1198 620 c 2,7,-1
 1198 403 l 2,8,9
 1198 317 1198 317 1167 286 c 1,10,11
 1140 286 1140 286 1097.5 299 c 128,-1,12
 1055 312 1055 312 1043 314 c 1,13,-1
 1043 742 l 1,14,-1
 230 742 l 2,15,16
 142 742 142 742 109 773 c 1,17,18
 109 794 109 794 114 813 c 128,-1,19
 119 832 119 832 128 856 c 128,-1,20
 137 880 137 880 141 893 c 1,0,-1
EndSplineSet
EndChar

StartChar: uni00AD
Encoding: 173 173 110
Width: 772
GlyphClass: 2
Flags: W
LayerCount: 2
Fore
SplineSet
586 391 m 2,0,-1
 151 391 l 1,1,2
 136 398 136 398 129 408.5 c 128,-1,3
 122 419 122 419 121 428.5 c 128,-1,4
 120 438 120 438 120 461 c 0,5,6
 120 506 120 506 124 525 c 1,7,8
 159 530 159 530 221 530 c 2,9,-1
 586 530 l 2,10,11
 643 530 643 530 685 524 c 1,12,13
 689 504 689 504 689 458 c 128,-1,14
 689 412 689 412 685 394 c 1,15,16
 658 391 658 391 586 391 c 2,0,-1
EndSplineSet
EndChar

StartChar: registered
Encoding: 174 174 111
Width: 1507
GlyphClass: 2
Flags: W
LayerCount: 2
Fore
SplineSet
1350 627 m 0,0,1
 1350 800 1350 800 1274.5 942 c 128,-1,2
 1199 1084 1199 1084 1060.5 1166.5 c 128,-1,3
 922 1249 922 1249 748 1249 c 0,4,5
 586 1249 586 1249 451.5 1172.5 c 128,-1,6
 317 1096 317 1096 239.5 962 c 128,-1,7
 162 828 162 828 162 666 c 0,8,9
 162 491 162 491 239 348.5 c 128,-1,10
 316 206 316 206 456 123.5 c 128,-1,11
 596 41 596 41 772 41 c 0,12,13
 931 41 931 41 1064 120 c 128,-1,14
 1197 199 1197 199 1273.5 333.5 c 128,-1,15
 1350 468 1350 468 1350 627 c 0,0,1
1435 646 m 0,16,17
 1435 458 1435 458 1344 304 c 128,-1,18
 1253 150 1253 150 1097 63.5 c 128,-1,19
 941 -23 941 -23 753 -23 c 0,20,21
 616 -23 616 -23 490.5 29.5 c 128,-1,22
 365 82 365 82 273.5 170.5 c 128,-1,23
 182 259 182 259 127.5 383.5 c 128,-1,24
 73 508 73 508 73 646 c 0,25,26
 73 830 73 830 165.5 984 c 128,-1,27
 258 1138 258 1138 414.5 1226 c 128,-1,28
 571 1314 571 1314 754 1314 c 0,29,30
 939 1314 939 1314 1095 1226.5 c 128,-1,31
 1251 1139 1251 1139 1343 985 c 128,-1,32
 1435 831 1435 831 1435 646 c 0,16,17
630 1018 m 1,33,-1
 630 680 l 1,34,35
 675 681 675 681 707 683.5 c 128,-1,36
 739 686 739 686 780.5 696 c 128,-1,37
 822 706 822 706 847.5 723.5 c 128,-1,38
 873 741 873 741 891.5 774 c 128,-1,39
 910 807 910 807 910 853 c 0,40,41
 910 941 910 941 849.5 982.5 c 128,-1,42
 789 1024 789 1024 697 1024 c 0,43,44
 663 1024 663 1024 630 1018 c 1,33,-1
701 641 m 1,45,-1
 630 644 l 1,46,-1
 630 338 l 2,47,48
 630 316 630 316 643.5 302 c 128,-1,49
 657 288 657 288 670 283.5 c 128,-1,50
 683 279 683 279 710.5 273.5 c 128,-1,51
 738 268 738 268 745 266 c 1,52,-1
 744 241 l 1,53,-1
 378 241 l 1,54,-1
 376 266 l 1,55,56
 386 270 386 270 405 274.5 c 128,-1,57
 424 279 424 279 435.5 283 c 128,-1,58
 447 287 447 287 460 295 c 128,-1,59
 473 303 473 303 479 316.5 c 128,-1,60
 485 330 485 330 485 349 c 2,61,-1
 485 951 l 2,62,63
 485 966 485 966 480 978 c 128,-1,64
 475 990 475 990 469.5 997.5 c 128,-1,65
 464 1005 464 1005 451 1013.5 c 128,-1,66
 438 1022 438 1022 431.5 1025 c 128,-1,67
 425 1028 425 1028 407 1035.5 c 128,-1,68
 389 1043 389 1043 384 1045 c 1,69,-1
 385 1069 l 1,70,-1
 746 1069 l 2,71,72
 800 1069 800 1069 852 1058.5 c 128,-1,73
 904 1048 904 1048 953.5 1025 c 128,-1,74
 1003 1002 1003 1002 1033.5 958.5 c 128,-1,75
 1064 915 1064 915 1064 857 c 0,76,77
 1064 811 1064 811 1045 774.5 c 128,-1,78
 1026 738 1026 738 992 714.5 c 128,-1,79
 958 691 958 691 920.5 676 c 128,-1,80
 883 661 883 661 838 652 c 1,81,82
 844 642 844 642 876 588.5 c 128,-1,83
 908 535 908 535 934.5 493.5 c 128,-1,84
 961 452 961 452 995.5 401.5 c 128,-1,85
 1030 351 1030 351 1059.5 319.5 c 128,-1,86
 1089 288 1089 288 1109 282 c 1,87,88
 1112 274 1112 274 1129 266.5 c 128,-1,89
 1146 259 1146 259 1146 241 c 1,90,-1
 947 241 l 1,91,92
 794 477 794 477 701 641 c 1,45,-1
EndSplineSet
EndChar

StartChar: macron
Encoding: 175 175 112
Width: 772
GlyphClass: 2
Flags: W
LayerCount: 2
Fore
SplineSet
691 1302 m 1,0,-1
 89 1302 l 1,1,-1
 89 1430 l 1,2,-1
 691 1430 l 1,3,-1
 691 1302 l 1,0,-1
EndSplineSet
EndChar

StartChar: degree
Encoding: 176 176 113
Width: 703
GlyphClass: 2
Flags: W
LayerCount: 2
Fore
SplineSet
593 1045 m 0,0,1
 593 946 593 946 522.5 874.5 c 128,-1,2
 452 803 452 803 351 803 c 0,3,4
 248 803 248 803 177 873.5 c 128,-1,5
 106 944 106 944 106 1045 c 0,6,7
 106 1145 106 1145 177.5 1216 c 128,-1,8
 249 1287 249 1287 351 1287 c 0,9,10
 452 1287 452 1287 522.5 1216 c 128,-1,11
 593 1145 593 1145 593 1045 c 0,0,1
543 1045 m 0,12,13
 543 1121 543 1121 487 1177 c 128,-1,14
 431 1233 431 1233 352 1233 c 128,-1,15
 273 1233 273 1233 216.5 1177 c 128,-1,16
 160 1121 160 1121 160 1045 c 0,17,18
 160 966 160 966 216 910.5 c 128,-1,19
 272 855 272 855 352 855 c 0,20,21
 431 855 431 855 487 911.5 c 128,-1,22
 543 968 543 968 543 1045 c 0,12,13
EndSplineSet
EndChar

StartChar: plusminus
Encoding: 177 177 114
Width: 1099
GlyphClass: 2
Flags: W
LayerCount: 2
Fore
SplineSet
107 618 m 1,0,1
 171 642 171 642 321 642 c 0,2,3
 356 642 356 642 411.5 640.5 c 128,-1,4
 467 639 467 639 482 639 c 1,5,6
 482 670 482 670 481 734 c 128,-1,7
 480 798 480 798 480 831 c 0,8,9
 480 940 480 940 490 1012 c 1,10,11
 520 1015 520 1015 550 1015 c 0,12,13
 589 1015 589 1015 608 1012 c 1,14,15
 619 937 619 937 619 825 c 0,16,17
 619 793 619 793 618 731 c 128,-1,18
 617 669 617 669 617 639 c 1,19,20
 644 639 644 639 700 639.5 c 128,-1,21
 756 640 756 640 785 640 c 0,22,23
 908 640 908 640 990 629 c 1,24,25
 993 599 993 599 993 570 c 0,26,27
 993 540 993 540 990 512 c 1,28,29
 914 503 914 503 810 503 c 0,30,31
 777 503 777 503 712.5 504 c 128,-1,32
 648 505 648 505 617 505 c 1,33,34
 617 478 617 478 617.5 422 c 128,-1,35
 618 366 618 366 618 337 c 0,36,37
 618 214 618 214 607 132 c 1,38,39
 577 129 577 129 548 129 c 128,-1,40
 519 129 519 129 489 132 c 1,41,42
 480 208 480 208 480 312 c 0,43,44
 480 345 480 345 481 409.5 c 128,-1,45
 482 474 482 474 482 505 c 1,46,-1
 159 505 l 1,47,48
 126 524 126 524 116.5 549 c 128,-1,49
 107 574 107 574 107 618 c 1,0,1
EndSplineSet
EndChar

StartChar: acute
Encoding: 180 180 115
Width: 968
GlyphClass: 2
Flags: W
LayerCount: 2
Fore
SplineSet
650 1442 m 0,0,1
 622 1417 622 1417 478 1284 c 128,-1,2
 334 1151 334 1151 294 1116 c 0,3,4
 271 1096 271 1096 254 1096 c 0,5,6
 231 1096 231 1096 231 1122 c 0,7,8
 231 1136 231 1136 242 1152 c 1,9,10
 253 1166 253 1166 529 1536 c 0,11,12
 554 1570 554 1570 590 1570 c 0,13,14
 621 1570 621 1570 646 1544 c 128,-1,15
 671 1518 671 1518 671 1488 c 0,16,17
 671 1460 671 1460 650 1442 c 0,0,1
EndSplineSet
EndChar

StartChar: paragraph
Encoding: 182 182 116
Width: 1029
GlyphClass: 2
Flags: W
LayerCount: 2
Fore
SplineSet
835 1204 m 1,0,-1
 836 -112 l 2,1,2
 836 -131 836 -131 878 -137.5 c 128,-1,3
 920 -144 920 -144 962.5 -146.5 c 128,-1,4
 1005 -149 1005 -149 1005 -158 c 2,5,-1
 1005 -224 l 1,6,-1
 744 -224 l 1,7,-1
 744 1220 l 1,8,-1
 604 1220 l 1,9,-1
 604 -224 l 1,10,-1
 313 -224 l 1,11,-1
 313 -158 l 2,12,13
 313 -149 313 -149 362.5 -146 c 128,-1,14
 412 -143 412 -143 462 -136.5 c 128,-1,15
 512 -130 512 -130 512 -112 c 2,16,-1
 512 577 l 1,17,18
 22 577 22 577 22 935 c 0,19,20
 22 1021 22 1021 52 1087.5 c 128,-1,21
 82 1154 82 1154 130.5 1194 c 128,-1,22
 179 1234 179 1234 247.5 1259 c 128,-1,23
 316 1284 316 1284 385.5 1293.5 c 128,-1,24
 455 1303 455 1303 535 1303 c 2,25,-1
 1003 1303 l 1,26,-1
 1005 1264 l 1,27,28
 992 1252 992 1252 921.5 1241 c 128,-1,29
 851 1230 851 1230 835 1204 c 1,0,-1
EndSplineSet
EndChar

StartChar: cedilla
Encoding: 184 184 117
Width: 691
GlyphClass: 2
Flags: W
LayerCount: 2
Fore
SplineSet
358 11 m 1,0,1
 375 -62 375 -62 382 -94 c 1,2,3
 462 -105 462 -105 502.5 -147.5 c 128,-1,4
 543 -190 543 -190 543 -246 c 0,5,6
 543 -327 543 -327 475.5 -376 c 128,-1,7
 408 -425 408 -425 312 -425 c 0,8,9
 250 -425 250 -425 176 -393 c 1,10,-1
 189 -336 l 1,11,12
 229 -356 229 -356 271 -356 c 0,13,14
 316 -356 316 -356 348 -331.5 c 128,-1,15
 380 -307 380 -307 380 -268 c 0,16,17
 380 -171 380 -171 228 -164 c 1,18,-1
 275 11 l 1,19,-1
 358 11 l 1,0,1
EndSplineSet
EndChar

StartChar: ordmasculine
Encoding: 186 186 118
Width: 791
GlyphClass: 2
Flags: W
LayerCount: 2
Fore
SplineSet
209 893 m 0,0,1
 209 761 209 761 267 681.5 c 128,-1,2
 325 602 325 602 408 602 c 0,3,4
 484 602 484 602 536 658.5 c 128,-1,5
 588 715 588 715 588 808 c 0,6,7
 588 861 588 861 575.5 914.5 c 128,-1,8
 563 968 563 968 539.5 1014.5 c 128,-1,9
 516 1061 516 1061 476 1090 c 128,-1,10
 436 1119 436 1119 386 1119 c 0,11,12
 307 1119 307 1119 258 1060 c 128,-1,13
 209 1001 209 1001 209 893 c 0,0,1
72 861 m 0,14,15
 72 993 72 993 167 1078.5 c 128,-1,16
 262 1164 262 1164 392 1164 c 0,17,18
 531 1164 531 1164 625 1080.5 c 128,-1,19
 719 997 719 997 719 858 c 128,-1,20
 719 719 719 719 625.5 633 c 128,-1,21
 532 547 532 547 399 547 c 0,22,23
 265 547 265 547 168.5 635 c 128,-1,24
 72 723 72 723 72 861 c 0,14,15
EndSplineSet
EndChar

StartChar: guillemotright
Encoding: 187 187 119
Width: 794
GlyphClass: 2
Flags: W
LayerCount: 2
Fore
SplineSet
352 85 m 1,0,1
 372 152 372 152 406 221 c 128,-1,2
 440 290 440 290 493.5 380.5 c 128,-1,3
 547 471 547 471 566 507 c 1,4,5
 548 539 548 539 493 628 c 128,-1,6
 438 717 438 717 401 787.5 c 128,-1,7
 364 858 364 858 345 921 c 1,8,9
 363 946 363 946 398 946 c 1,10,11
 454 886 454 886 513 812 c 128,-1,12
 572 738 572 738 640.5 646.5 c 128,-1,13
 709 555 709 555 748 507 c 1,14,-1
 461 132 l 2,15,16
 426 86 426 86 394 63 c 1,17,18
 371 63 371 63 352 85 c 1,0,1
84 134 m 1,19,20
 95 190 95 190 122 252 c 128,-1,21
 149 314 149 314 196 399 c 128,-1,22
 243 484 243 484 254 507 c 1,23,24
 242 531 242 531 195.5 611.5 c 128,-1,25
 149 692 149 692 118.5 756 c 128,-1,26
 88 820 88 820 76 872 c 1,27,28
 95 897 95 897 129 897 c 1,29,30
 193 825 193 825 303 674 c 128,-1,31
 413 523 413 523 425 507 c 1,32,33
 419 498 419 498 373.5 432 c 128,-1,34
 328 366 328 366 288 308.5 c 128,-1,35
 248 251 248 251 199.5 191 c 128,-1,36
 151 131 151 131 125 112 c 1,37,38
 103 112 103 112 84 134 c 1,19,20
EndSplineSet
EndChar

StartChar: onequarter
Encoding: 188 188 120
Width: 1894
GlyphClass: 2
Flags: W
LayerCount: 2
Fore
SplineSet
398 1295 m 1,0,-1
 397 685 l 2,1,2
 397 654 397 654 398.5 638 c 128,-1,3
 400 622 400 622 407 601.5 c 128,-1,4
 414 581 414 581 431 571 c 128,-1,5
 448 561 448 561 476 559 c 0,6,7
 478 559 478 559 487.5 558.5 c 128,-1,8
 497 558 497 558 503.5 557.5 c 128,-1,9
 510 557 510 557 517 554.5 c 128,-1,10
 524 552 524 552 526 548 c 1,11,-1
 526 512 l 1,12,-1
 115 512 l 1,13,-1
 115 547 l 1,14,15
 135 557 135 557 158.5 561 c 128,-1,16
 182 565 182 565 196 566 c 128,-1,17
 210 567 210 567 223 574.5 c 128,-1,18
 236 582 236 582 241.5 603 c 128,-1,19
 247 624 247 624 247 663 c 2,20,-1
 247 1084 l 2,21,22
 247 1117 247 1117 241 1136.5 c 128,-1,23
 235 1156 235 1156 221.5 1165 c 128,-1,24
 208 1174 208 1174 194 1177.5 c 128,-1,25
 180 1181 180 1181 157 1186.5 c 128,-1,26
 134 1192 134 1192 117 1199 c 1,27,-1
 119 1234 l 1,28,29
 259 1250 259 1250 364 1301 c 1,30,31
 381 1301 381 1301 398 1295 c 1,0,-1
543 -77 m 1,32,33
 525 -81 525 -81 489 -81 c 2,34,-1
 456 -81 l 1,35,36
 461 -65 461 -65 472 -27 c 128,-1,37
 483 11 483 11 493 40 c 128,-1,38
 503 69 503 69 515 91 c 2,39,-1
 1024 1045 l 2,40,41
 1038 1071 1038 1071 1069.5 1136.5 c 128,-1,42
 1101 1202 1101 1202 1122.5 1244.5 c 128,-1,43
 1144 1287 1144 1287 1180 1336 c 128,-1,44
 1216 1385 1216 1385 1253 1410 c 1,45,46
 1305 1410 1305 1410 1343 1386 c 1,47,-1
 1265 1254 l 2,48,49
 1239 1211 1239 1211 1183.5 1118 c 128,-1,50
 1128 1025 1128 1025 1096 970.5 c 128,-1,51
 1064 916 1064 916 1018.5 837 c 128,-1,52
 973 758 973 758 937 691 c 0,53,54
 899 620 899 620 856.5 533.5 c 128,-1,55
 814 447 814 447 786.5 387.5 c 128,-1,56
 759 328 759 328 710 222.5 c 128,-1,57
 661 117 661 117 640 71 c 0,58,59
 623 34 623 34 543 -77 c 1,32,33
1202 325 m 1,60,-1
 1465 325 l 1,61,-1
 1465 716 l 1,62,-1
 1202 325 l 1,60,-1
1745 251 m 1,63,-1
 1617 251 l 1,64,-1
 1617 155 l 2,65,66
 1617 135 1617 135 1632 121 c 128,-1,67
 1647 107 1647 107 1663.5 102 c 128,-1,68
 1680 97 1680 97 1707 91.5 c 128,-1,69
 1734 86 1734 86 1742 84 c 1,70,-1
 1742 47 l 1,71,-1
 1342 47 l 1,72,-1
 1342 83 l 1,73,74
 1349 86 1349 86 1388.5 93.5 c 128,-1,75
 1428 101 1428 101 1447.5 114.5 c 128,-1,76
 1467 128 1467 128 1467 155 c 2,77,-1
 1467 251 l 1,78,-1
 1116 251 l 1,79,-1
 1111 319 l 1,80,-1
 1477 840 l 1,81,82
 1615 846 1615 846 1617 846 c 1,83,-1
 1617 328 l 1,84,85
 1656 328 1656 328 1678.5 333 c 128,-1,86
 1701 338 1701 338 1708 343 c 128,-1,87
 1715 348 1715 348 1725.5 363 c 128,-1,88
 1736 378 1736 378 1745 386 c 1,89,90
 1766 386 1766 386 1774 367 c 1,91,92
 1770 344 1770 344 1758 300 c 128,-1,93
 1746 256 1746 256 1745 251 c 1,63,-1
EndSplineSet
EndChar

StartChar: onehalf
Encoding: 189 189 121
Width: 1831
GlyphClass: 2
Flags: W
LayerCount: 2
Fore
SplineSet
395 1295 m 1,0,-1
 394 685 l 2,1,2
 394 654 394 654 395.5 638 c 128,-1,3
 397 622 397 622 404 601.5 c 128,-1,4
 411 581 411 581 428 571 c 128,-1,5
 445 561 445 561 473 559 c 0,6,7
 475 559 475 559 485 558.5 c 128,-1,8
 495 558 495 558 501.5 557.5 c 128,-1,9
 508 557 508 557 515 554.5 c 128,-1,10
 522 552 522 552 525 548 c 1,11,-1
 523 512 l 1,12,-1
 114 512 l 1,13,-1
 112 547 l 1,14,15
 133 557 133 557 156.5 561 c 128,-1,16
 180 565 180 565 194 566 c 128,-1,17
 208 567 208 567 220.5 574 c 128,-1,18
 233 581 233 581 238.5 602 c 128,-1,19
 244 623 244 623 244 663 c 2,20,-1
 244 1084 l 2,21,22
 244 1117 244 1117 238 1136.5 c 128,-1,23
 232 1156 232 1156 218.5 1165 c 128,-1,24
 205 1174 205 1174 192 1177.5 c 128,-1,25
 179 1181 179 1181 156 1186.5 c 128,-1,26
 133 1192 133 1192 116 1199 c 1,27,-1
 116 1234 l 1,28,29
 256 1250 256 1250 361 1301 c 1,30,31
 379 1301 379 1301 395 1295 c 1,0,-1
1679 269 m 1,32,-1
 1636 45 l 1,33,-1
 1571 45 l 2,34,35
 1521 45 1521 45 1419 45.5 c 128,-1,36
 1317 46 1317 46 1266 46 c 0,37,38
 1165 46 1165 46 1114 45 c 1,39,-1
 1110 88 l 1,40,41
 1134 116 1134 116 1191.5 173.5 c 128,-1,42
 1249 231 1249 231 1294.5 280.5 c 128,-1,43
 1340 330 1340 330 1388.5 390 c 128,-1,44
 1437 450 1437 450 1464.5 509.5 c 128,-1,45
 1492 569 1492 569 1492 620 c 0,46,47
 1492 679 1492 679 1457 720 c 128,-1,48
 1422 761 1422 761 1364 761 c 0,49,50
 1307 761 1307 761 1251 725 c 128,-1,51
 1195 689 1195 689 1152 636 c 1,52,-1
 1109 654 l 1,53,54
 1121 685 1121 685 1141 713 c 1,55,-1
 1142 718 l 1,56,57
 1245 842 1245 842 1390 842 c 0,58,59
 1498 842 1498 842 1575.5 784 c 128,-1,60
 1653 726 1653 726 1653 621 c 0,61,62
 1653 569 1653 569 1624 514 c 128,-1,63
 1595 459 1595 459 1545 407 c 128,-1,64
 1495 355 1495 355 1446.5 312 c 128,-1,65
 1398 269 1398 269 1339 220.5 c 128,-1,66
 1280 172 1280 172 1253 145 c 1,67,-1
 1462 145 l 2,68,69
 1529 145 1529 145 1561 160.5 c 128,-1,70
 1593 176 1593 176 1615 233 c 0,71,72
 1624 258 1624 258 1635 269 c 1,73,-1
 1679 269 l 1,32,-1
543 -77 m 1,74,75
 525 -81 525 -81 489 -81 c 2,76,-1
 456 -81 l 1,77,78
 462 -63 462 -63 472 -26.5 c 128,-1,79
 482 10 482 10 492 38.5 c 128,-1,80
 502 67 502 67 515 91 c 2,81,-1
 1024 1045 l 2,82,83
 1039 1072 1039 1072 1069.5 1137.5 c 128,-1,84
 1100 1203 1100 1203 1121.5 1245 c 128,-1,85
 1143 1287 1143 1287 1179 1335.5 c 128,-1,86
 1215 1384 1215 1384 1253 1410 c 1,87,88
 1305 1410 1305 1410 1343 1386 c 1,89,90
 1303 1318 1303 1318 1214 1170.5 c 128,-1,91
 1125 1023 1125 1023 1059 910 c 128,-1,92
 993 797 993 797 937 691 c 0,93,94
 889 601 889 601 819 444.5 c 128,-1,95
 749 288 749 288 682.5 156 c 128,-1,96
 616 24 616 24 543 -77 c 1,74,75
EndSplineSet
EndChar

StartChar: threequarters
Encoding: 190 190 122
Width: 1931
GlyphClass: 2
Flags: W
LayerCount: 2
Fore
SplineSet
643 -77 m 1,0,1
 625 -81 625 -81 589 -81 c 2,2,-1
 556 -81 l 1,3,4
 561 -65 561 -65 572 -27 c 128,-1,5
 583 11 583 11 593 40 c 128,-1,6
 603 69 603 69 615 91 c 2,7,-1
 1124 1045 l 2,8,9
 1138 1071 1138 1071 1169.5 1136.5 c 128,-1,10
 1201 1202 1201 1202 1222.5 1244.5 c 128,-1,11
 1244 1287 1244 1287 1280 1336 c 128,-1,12
 1316 1385 1316 1385 1353 1410 c 1,13,14
 1405 1410 1405 1410 1443 1386 c 1,15,-1
 1365 1254 l 2,16,17
 1339 1211 1339 1211 1283.5 1118 c 128,-1,18
 1228 1025 1228 1025 1196 970.5 c 128,-1,19
 1164 916 1164 916 1118.5 837 c 128,-1,20
 1073 758 1073 758 1037 691 c 0,21,22
 999 620 999 620 956.5 533.5 c 128,-1,23
 914 447 914 447 886.5 387.5 c 128,-1,24
 859 328 859 328 810 222.5 c 128,-1,25
 761 117 761 117 740 71 c 0,26,27
 723 34 723 34 643 -77 c 1,0,1
1202 325 m 1,28,-1
 1465 325 l 1,29,-1
 1465 716 l 1,30,-1
 1202 325 l 1,28,-1
1745 251 m 1,31,-1
 1617 251 l 1,32,-1
 1617 155 l 2,33,34
 1617 135 1617 135 1632 121 c 128,-1,35
 1647 107 1647 107 1663.5 102 c 128,-1,36
 1680 97 1680 97 1707 91.5 c 128,-1,37
 1734 86 1734 86 1742 84 c 1,38,-1
 1742 47 l 1,39,-1
 1342 47 l 1,40,-1
 1342 83 l 1,41,42
 1349 86 1349 86 1388.5 93.5 c 128,-1,43
 1428 101 1428 101 1447.5 114.5 c 128,-1,44
 1467 128 1467 128 1467 155 c 2,45,-1
 1467 251 l 1,46,-1
 1116 251 l 1,47,-1
 1111 319 l 1,48,-1
 1477 840 l 1,49,50
 1615 846 1615 846 1617 846 c 1,51,-1
 1617 328 l 1,52,53
 1656 328 1656 328 1678.5 333 c 128,-1,54
 1701 338 1701 338 1708 343 c 128,-1,55
 1715 348 1715 348 1725.5 363 c 128,-1,56
 1736 378 1736 378 1745 386 c 1,57,58
 1766 386 1766 386 1774 367 c 1,59,60
 1770 344 1770 344 1758 300 c 128,-1,61
 1746 256 1746 256 1745 251 c 1,31,-1
397 950 m 1,62,63
 521 950 521 950 598.5 873.5 c 128,-1,64
 676 797 676 797 676 673 c 0,65,66
 676 620 676 620 655 575 c 128,-1,67
 634 530 634 530 599.5 499.5 c 128,-1,68
 565 469 565 469 519.5 447 c 128,-1,69
 474 425 474 425 425.5 415 c 128,-1,70
 377 405 377 405 328 405 c 0,71,72
 288 405 288 405 246 411.5 c 128,-1,73
 204 418 204 418 159.5 433.5 c 128,-1,74
 115 449 115 449 87 480 c 128,-1,75
 59 511 59 511 59 554 c 0,76,77
 59 586 59 586 82.5 609.5 c 128,-1,78
 106 633 106 633 137 633 c 0,79,80
 163 633 163 633 184 612.5 c 128,-1,81
 205 592 205 592 205 566 c 0,82,83
 205 554 205 554 197.5 534 c 128,-1,84
 190 514 190 514 190 504 c 0,85,86
 190 478 190 478 234 462.5 c 128,-1,87
 278 447 278 447 310 447 c 0,88,89
 403 447 403 447 457 511 c 128,-1,90
 511 575 511 575 511 670 c 0,91,92
 511 767 511 767 464.5 831.5 c 128,-1,93
 418 896 418 896 325 896 c 0,94,95
 294 896 294 896 251 887 c 1,96,-1
 217 925 l 1,97,98
 220 926 220 926 226 930 c 1,99,100
 262 947 262 947 284.5 958.5 c 128,-1,101
 307 970 307 970 348 995 c 128,-1,102
 389 1020 389 1020 413.5 1041.5 c 128,-1,103
 438 1063 438 1063 457.5 1092.5 c 128,-1,104
 477 1122 477 1122 477 1150 c 0,105,106
 477 1257 477 1257 372 1257 c 0,107,108
 328 1257 328 1257 260 1219.5 c 128,-1,109
 192 1182 192 1182 155 1182 c 0,110,111
 142 1182 142 1182 142 1201 c 1,112,-1
 145 1213 l 1,113,114
 182 1266 182 1266 251 1296.5 c 128,-1,115
 320 1327 320 1327 390 1327 c 0,116,117
 476 1327 476 1327 535.5 1281 c 128,-1,118
 595 1235 595 1235 595 1151 c 0,119,120
 595 1069 595 1069 538 1014 c 128,-1,121
 481 959 481 959 397 950 c 1,62,63
EndSplineSet
EndChar

StartChar: questiondown
Encoding: 191 191 123
Width: 806
GlyphClass: 2
Flags: W
LayerCount: 2
Fore
SplineSet
494 1080 m 128,-1,1
 443 1080 443 1080 405.5 1117 c 128,-1,2
 368 1154 368 1154 368 1205 c 128,-1,3
 368 1256 368 1256 405.5 1292.5 c 128,-1,4
 443 1329 443 1329 494 1329 c 0,5,6
 544 1329 544 1329 580.5 1292 c 128,-1,7
 617 1255 617 1255 617 1205 c 0,8,9
 617 1154 617 1154 581 1117 c 128,-1,0
 545 1080 545 1080 494 1080 c 128,-1,1
460 958 m 1,10,-1
 541 958 l 1,11,12
 544 930 544 930 558.5 856 c 128,-1,13
 573 782 573 782 573 740 c 0,14,15
 573 714 573 714 545.5 686 c 128,-1,16
 518 658 518 658 477.5 634.5 c 128,-1,17
 437 611 437 611 389 579 c 128,-1,18
 341 547 341 547 300.5 514 c 128,-1,19
 260 481 260 481 232.5 433.5 c 128,-1,20
 205 386 205 386 205 332 c 0,21,22
 205 238 205 238 278.5 168 c 128,-1,23
 352 98 352 98 446 98 c 0,24,25
 470 98 470 98 492.5 110.5 c 128,-1,26
 515 123 515 123 532.5 141 c 128,-1,27
 550 159 550 159 567.5 177 c 128,-1,28
 585 195 585 195 607.5 207.5 c 128,-1,29
 630 220 630 220 654 220 c 0,30,31
 686 220 686 220 708 194.5 c 128,-1,32
 730 169 730 169 730 137 c 0,33,34
 730 96 730 96 705.5 65.5 c 128,-1,35
 681 35 681 35 641 18.5 c 128,-1,36
 601 2 601 2 559 -5.5 c 128,-1,37
 517 -13 517 -13 474 -13 c 0,38,39
 378 -13 378 -13 284 36 c 128,-1,40
 190 85 190 85 129 169.5 c 128,-1,41
 68 254 68 254 68 346 c 0,42,43
 68 418 68 418 89.5 476 c 128,-1,44
 111 534 111 534 145.5 572 c 128,-1,45
 180 610 180 610 222 641.5 c 128,-1,46
 264 673 264 673 306 700.5 c 128,-1,47
 348 728 348 728 382.5 757 c 128,-1,48
 417 786 417 786 438.5 827 c 128,-1,49
 460 868 460 868 460 919 c 2,50,-1
 460 958 l 1,10,-1
EndSplineSet
EndChar

StartChar: AE
Encoding: 198 198 130
Width: 1966
GlyphClass: 2
Flags: W
LayerCount: 2
Fore
SplineSet
502 685 m 1,0,-1
 831 685 l 1,1,-1
 745 1130 l 1,2,-1
 502 685 l 1,0,-1
1415 638 m 1,3,-1
 1060 638 l 1,4,-1
 1142 256 l 2,5,6
 1145 246 1145 246 1151.5 219.5 c 128,-1,7
 1158 193 1158 193 1160.5 183.5 c 128,-1,8
 1163 174 1163 174 1169.5 154 c 128,-1,9
 1176 134 1176 134 1181 125.5 c 128,-1,10
 1186 117 1186 117 1194 105 c 128,-1,11
 1202 93 1202 93 1211.5 87 c 128,-1,12
 1221 81 1221 81 1233 78 c 0,13,14
 1256 72 1256 72 1341 70 c 1,15,-1
 1471 73 l 1,16,17
 1587 73 1587 73 1653 101 c 1,18,19
 1686 109 1686 109 1710.5 136.5 c 128,-1,20
 1735 164 1735 164 1748 195.5 c 128,-1,21
 1761 227 1761 227 1784 265 c 128,-1,22
 1807 303 1807 303 1835 325 c 1,23,24
 1858 325 1858 325 1889 322 c 1,25,-1
 1833 -20 l 1,26,27
 1777 -22 1777 -22 1754 -22 c 0,28,29
 1744 -22 1744 -22 1727 -11 c 128,-1,30
 1710 0 1710 0 1692 0 c 2,31,-1
 735 0 l 1,32,33
 735 44 735 44 736 52 c 1,34,35
 768 59 768 59 790 66 c 128,-1,36
 812 73 812 73 838 84.5 c 128,-1,37
 864 96 864 96 879.5 110 c 128,-1,38
 895 124 895 124 906 145.5 c 128,-1,39
 917 167 917 167 917 193 c 0,40,41
 917 200 917 200 914.5 216 c 128,-1,42
 912 232 912 232 912 241 c 1,43,-1
 845 609 l 1,44,-1
 461 609 l 1,45,-1
 323 358 l 2,46,47
 318 349 318 349 298 314.5 c 128,-1,48
 278 280 278 280 270 265 c 128,-1,49
 262 250 262 250 253.5 224.5 c 128,-1,50
 245 199 245 199 245 178 c 0,51,52
 245 156 245 156 254 139 c 128,-1,53
 263 122 263 122 275.5 111.5 c 128,-1,54
 288 101 288 101 309.5 92.5 c 128,-1,55
 331 84 331 84 349 79 c 128,-1,56
 367 74 367 74 394 67 c 128,-1,57
 421 60 421 60 438 55 c 1,58,-1
 435 25 l 1,59,-1
 433 0 l 1,60,-1
 -47 0 l 1,61,62
 -47 5 -47 5 -47.5 13 c 128,-1,63
 -48 21 -48 21 -48 25 c 0,64,65
 -48 34 -48 34 -46 52 c 1,66,67
 -35 58 -35 58 -2.5 72.5 c 128,-1,68
 30 87 30 87 50.5 98 c 128,-1,69
 71 109 71 109 98.5 134 c 128,-1,70
 126 159 126 159 144 192 c 0,71,72
 552 935 552 935 591 1006 c 0,73,74
 636 1090 636 1090 636 1148 c 0,75,76
 636 1198 636 1198 601 1224 c 1,77,78
 609 1240 609 1240 619.5 1261.5 c 128,-1,79
 630 1283 630 1283 634.5 1291.5 c 128,-1,80
 639 1300 639 1300 645 1309.5 c 128,-1,81
 651 1319 651 1319 656 1324 c 1,82,83
 757 1324 757 1324 808 1305 c 1,84,-1
 1546 1305 l 2,85,86
 1572 1305 1572 1305 1603 1323 c 1,87,88
 1637 1323 1637 1323 1685 1320 c 1,89,-1
 1741 997 l 1,90,91
 1707 995 1707 995 1690 995 c 1,92,93
 1663 1012 1663 1012 1639 1046.5 c 128,-1,94
 1615 1081 1615 1081 1600.5 1112 c 128,-1,95
 1586 1143 1586 1143 1561.5 1171 c 128,-1,96
 1537 1199 1537 1199 1508 1207 c 1,97,98
 1397 1231 1397 1231 1224 1231 c 2,99,-1
 1124 1231 l 2,100,101
 1003 1231 1003 1231 928 1209 c 1,102,103
 936 1172 936 1172 1045 719 c 1,104,-1
 1308 719 l 2,105,106
 1392 719 1392 719 1452 729 c 1,107,108
 1467 733 1467 733 1479.5 743 c 128,-1,109
 1492 753 1492 753 1499.5 764.5 c 128,-1,110
 1507 776 1507 776 1514 795.5 c 128,-1,111
 1521 815 1521 815 1524.5 827.5 c 128,-1,112
 1528 840 1528 840 1533 862 c 128,-1,113
 1538 884 1538 884 1540 893 c 1,114,115
 1552 893 1552 893 1594 891 c 1,116,-1
 1689 466 l 1,117,118
 1649 464 1649 464 1631 464 c 1,119,120
 1597 507 1597 507 1579 528 c 128,-1,121
 1561 549 1561 549 1530.5 579.5 c 128,-1,122
 1500 610 1500 610 1472 623.5 c 128,-1,123
 1444 637 1444 637 1415 638 c 1,3,-1
EndSplineSet
EndChar

StartChar: Eth
Encoding: 208 208 140
Width: 1595
GlyphClass: 2
Flags: W
LayerCount: 2
Fore
SplineSet
665 1225 m 2,0,-1
 497 1225 l 1,1,-1
 497 271 l 2,2,3
 497 86 497 86 645 80 c 0,4,5
 701 77 701 77 760 77 c 0,6,7
 860 77 860 77 944.5 107.5 c 128,-1,8
 1029 138 1029 138 1087 190 c 128,-1,9
 1145 242 1145 242 1185.5 311 c 128,-1,10
 1226 380 1226 380 1245 455 c 128,-1,11
 1264 530 1264 530 1264 609 c 0,12,13
 1264 741 1264 741 1228.5 851 c 128,-1,14
 1193 961 1193 961 1122 1046 c 128,-1,15
 1051 1131 1051 1131 934.5 1178 c 128,-1,16
 818 1225 818 1225 665 1225 c 2,0,-1
282 219 m 2,17,-1
 282 1010 l 2,18,19
 282 1069 282 1069 272 1131 c 0,20,21
 268 1154 268 1154 252 1171.5 c 128,-1,22
 236 1189 236 1189 210.5 1201 c 128,-1,23
 185 1213 185 1213 162 1220.5 c 128,-1,24
 139 1228 139 1228 106 1237 c 128,-1,25
 73 1246 73 1246 58 1251 c 1,26,27
 58 1264 58 1264 60 1302 c 1,28,-1
 652 1302 l 2,29,30
 908 1302 908 1302 1065 1255 c 128,-1,31
 1222 1208 1222 1208 1334 1087 c 1,32,33
 1502 911 1502 911 1502 658 c 0,34,35
 1502 556 1502 556 1473 460.5 c 128,-1,36
 1444 365 1444 365 1384.5 281 c 128,-1,37
 1325 197 1325 197 1240.5 134.5 c 128,-1,38
 1156 72 1156 72 1037 36 c 128,-1,39
 918 0 918 0 779 0 c 2,40,-1
 60 0 l 1,41,42
 58 36 58 36 58 52 c 1,43,44
 74 57 74 57 116.5 66.5 c 128,-1,45
 159 76 159 76 180.5 84 c 128,-1,46
 202 92 202 92 229.5 108.5 c 128,-1,47
 257 125 257 125 269.5 152.5 c 128,-1,48
 282 180 282 180 282 219 c 2,17,-1
691 580 m 1,49,-1
 89 580 l 1,50,-1
 89 708 l 1,51,-1
 691 708 l 1,52,-1
 691 580 l 1,49,-1
EndSplineSet
EndChar

StartChar: multiply
Encoding: 215 215 147
Width: 1098
GlyphClass: 2
Flags: W
LayerCount: 2
Fore
SplineSet
141 932 m 1,0,1
 177 982 177 982 234 1023 c 1,2,3
 266 996 266 996 310 954.5 c 128,-1,4
 354 913 354 913 383.5 883.5 c 128,-1,5
 413 854 413 854 471.5 795 c 128,-1,6
 530 736 530 736 549 717 c 1,7,8
 562 730 562 730 609.5 778.5 c 128,-1,9
 657 827 657 827 680 849.5 c 128,-1,10
 703 872 703 872 741 909.5 c 128,-1,11
 779 947 779 947 808.5 974 c 128,-1,12
 838 1001 838 1001 864 1023 c 1,13,14
 917 984 917 984 957 932 c 1,15,16
 938 908 938 908 883 853 c 2,17,-1
 648 618 l 1,18,19
 670 596 670 596 726.5 540 c 128,-1,20
 783 484 783 484 814.5 452.5 c 128,-1,21
 846 421 846 421 887.5 377.5 c 128,-1,22
 929 334 929 334 956 303 c 1,23,24
 917 250 917 250 864 211 c 1,25,26
 829 238 829 238 784 284 c 2,27,-1
 549 519 l 1,28,-1
 315 285 l 2,29,30
 269 239 269 239 235 212 c 1,31,32
 182 251 182 251 143 304 c 1,33,34
 170 338 170 338 215 383 c 2,35,-1
 450 618 l 1,36,-1
 215 853 l 2,37,38
 160 908 160 908 141 932 c 1,0,1
EndSplineSet
EndChar

StartChar: Oslash
Encoding: 216 216 148
Width: 1579
GlyphClass: 2
Flags: W
LayerCount: 2
Fore
SplineSet
1117 1046 m 1,0,1
 820 628 820 628 558 171 c 1,2,3
 669 51 669 51 826 51 c 0,4,5
 1010 51 1010 51 1128.5 194.5 c 128,-1,6
 1247 338 1247 338 1247 586 c 0,7,8
 1247 859 1247 859 1117 1046 c 1,0,1
479 247 m 1,9,-1
 1045 1127 l 1,10,11
 925 1250 925 1250 758 1250 c 0,12,13
 578 1250 578 1250 456 1108 c 128,-1,14
 334 966 334 966 334 723 c 0,15,16
 334 582 334 582 373 456.5 c 128,-1,17
 412 331 412 331 479 247 c 1,9,-1
1122 1241 m 1,18,19
 1133 1261 1133 1261 1150 1295.5 c 128,-1,20
 1167 1330 1167 1330 1176.5 1347 c 128,-1,21
 1186 1364 1186 1364 1206.5 1383 c 128,-1,22
 1227 1402 1227 1402 1256 1413 c 1,23,24
 1298 1401 1298 1401 1323 1356 c 1,25,26
 1311 1335 1311 1335 1277.5 1284.5 c 128,-1,27
 1244 1234 1244 1234 1216 1189 c 1,28,29
 1340 1096 1340 1096 1410 957 c 128,-1,30
 1480 818 1480 818 1480 648 c 0,31,32
 1480 449 1480 449 1382.5 293.5 c 128,-1,33
 1285 138 1285 138 1124.5 56 c 128,-1,34
 964 -26 964 -26 772 -26 c 0,35,36
 600 -26 600 -26 478 57 c 1,37,38
 474 50 474 50 461 25.5 c 128,-1,39
 448 1 448 1 443.5 -6.5 c 128,-1,40
 439 -14 439 -14 427.5 -34 c 128,-1,41
 416 -54 416 -54 410.5 -61.5 c 128,-1,42
 405 -69 405 -69 393.5 -83.5 c 128,-1,43
 382 -98 382 -98 373.5 -105.5 c 128,-1,44
 365 -113 365 -113 353.5 -121.5 c 128,-1,45
 342 -130 342 -130 330 -136 c 1,46,47
 290 -118 290 -118 271 -71 c 1,48,49
 294 -34 294 -34 315 -5 c 1,50,-1
 382 105 l 1,51,52
 101 293 101 293 101 641 c 0,53,54
 101 794 101 794 156 924 c 128,-1,55
 211 1054 211 1054 305.5 1141.5 c 128,-1,56
 400 1229 400 1229 526.5 1278 c 128,-1,57
 653 1327 653 1327 794 1327 c 0,58,59
 978 1327 978 1327 1122 1241 c 1,18,19
EndSplineSet
EndChar

StartChar: Thorn
Encoding: 222 222 154
Width: 1294
GlyphClass: 2
Flags: W
LayerCount: 2
Fore
SplineSet
489 957 m 1,0,-1
 489 380 l 1,1,2
 587 375 587 375 665 375 c 0,3,4
 759 375 759 375 833.5 402 c 128,-1,5
 908 429 908 429 957 493.5 c 128,-1,6
 1006 558 1006 558 1006 654 c 0,7,8
 1006 702 1006 702 995 742.5 c 128,-1,9
 984 783 984 783 967 812.5 c 128,-1,10
 950 842 950 842 920.5 865 c 128,-1,11
 891 888 891 888 863.5 903 c 128,-1,12
 836 918 836 918 794.5 928.5 c 128,-1,13
 753 939 753 939 721.5 944.5 c 128,-1,14
 690 950 690 950 642.5 953 c 128,-1,15
 595 956 595 956 565.5 956.5 c 128,-1,16
 536 957 536 957 489 957 c 1,0,-1
273 214 m 2,17,-1
 273 1048 l 2,18,19
 273 1108 273 1108 264.5 1142 c 128,-1,20
 256 1176 256 1176 236 1190.5 c 128,-1,21
 216 1205 216 1205 194.5 1210 c 128,-1,22
 173 1215 173 1215 136 1225 c 128,-1,23
 99 1235 99 1235 68 1251 c 1,24,-1
 68 1302 l 1,25,-1
 701 1302 l 1,26,-1
 703 1250 l 1,27,28
 686 1244 686 1244 645 1232 c 128,-1,29
 604 1220 604 1220 584 1211 c 128,-1,30
 564 1202 564 1202 538 1184.5 c 128,-1,31
 512 1167 512 1167 500.5 1139.5 c 128,-1,32
 489 1112 489 1112 489 1072 c 2,33,-1
 489 1033 l 1,34,-1
 568 1033 l 2,35,36
 623 1033 623 1033 664.5 1032 c 128,-1,37
 706 1031 706 1031 763.5 1027 c 128,-1,38
 821 1023 821 1023 865 1016 c 128,-1,39
 909 1009 909 1009 961 995.5 c 128,-1,40
 1013 982 1013 982 1051 963.5 c 128,-1,41
 1089 945 1089 945 1126.5 917 c 128,-1,42
 1164 889 1164 889 1187.5 854.5 c 128,-1,43
 1211 820 1211 820 1225.5 772.5 c 128,-1,44
 1240 725 1240 725 1240 668 c 0,45,46
 1240 600 1240 600 1218 543 c 128,-1,47
 1196 486 1196 486 1156.5 446.5 c 128,-1,48
 1117 407 1117 407 1067 378 c 128,-1,49
 1017 349 1017 349 957.5 332.5 c 128,-1,50
 898 316 898 316 839 308 c 128,-1,51
 780 300 780 300 718 300 c 0,52,53
 611 300 611 300 489 308 c 1,54,55
 489 268 489 268 490 240.5 c 128,-1,56
 491 213 491 213 496.5 189 c 128,-1,57
 502 165 502 165 506 150.5 c 128,-1,58
 510 136 510 136 524.5 122 c 128,-1,59
 539 108 539 108 549 101 c 128,-1,60
 559 94 559 94 585 85 c 128,-1,61
 611 76 611 76 629.5 71.5 c 128,-1,62
 648 67 648 67 688 58 c 0,63,64
 708 54 708 54 719 51 c 1,65,-1
 717 0 l 1,66,-1
 68 0 l 1,67,-1
 66 52 l 1,68,69
 83 58 83 58 112.5 66.5 c 128,-1,70
 142 75 142 75 160.5 80.5 c 128,-1,71
 179 86 179 86 203 97.5 c 128,-1,72
 227 109 227 109 240.5 123 c 128,-1,73
 254 137 254 137 263.5 160 c 128,-1,74
 273 183 273 183 273 214 c 2,17,-1
EndSplineSet
EndChar

StartChar: germandbls
Encoding: 223 223 155
Width: 1200
GlyphClass: 2
Flags: W
LayerCount: 2
Fore
SplineSet
197 252 m 2,0,-1
 197 795 l 1,1,-1
 107 795 l 1,2,3
 107 799 107 799 106 809.5 c 128,-1,4
 105 820 105 820 105.5 825 c 128,-1,5
 106 830 106 830 108.5 837 c 128,-1,6
 111 844 111 844 117 847 c 128,-1,7
 123 850 123 850 134 850 c 2,8,-1
 144 850 l 2,9,10
 173 850 173 850 185 862 c 1,11,12
 198 895 198 895 212 970 c 128,-1,13
 226 1045 226 1045 251.5 1108.5 c 128,-1,14
 277 1172 277 1172 330 1221 c 0,15,16
 440 1322 440 1322 619 1322 c 0,17,18
 794 1322 794 1322 907.5 1240.5 c 128,-1,19
 1021 1159 1021 1159 1021 1026 c 0,20,21
 1021 915 1021 915 958 848.5 c 128,-1,22
 895 782 895 782 764 744 c 1,23,-1
 764 741 l 1,24,25
 928 721 928 721 1025.5 613.5 c 128,-1,26
 1123 506 1123 506 1123 365 c 0,27,28
 1123 296 1123 296 1099.5 229 c 128,-1,29
 1076 162 1076 162 1033 106.5 c 128,-1,30
 990 51 990 51 919.5 17 c 128,-1,31
 849 -17 849 -17 764 -17 c 0,32,33
 671 -17 671 -17 615 26 c 128,-1,34
 559 69 559 69 559 133 c 0,35,36
 559 168 559 168 583 191.5 c 128,-1,37
 607 215 607 215 641 215 c 0,38,39
 671 215 671 215 686 201.5 c 128,-1,40
 701 188 701 188 704.5 168 c 128,-1,41
 708 148 708 148 709 128 c 128,-1,42
 710 108 710 108 718 92 c 128,-1,43
 726 76 726 76 745 73 c 1,44,45
 757 59 757 59 792 59 c 0,46,47
 849 59 849 59 892.5 131.5 c 128,-1,48
 936 204 936 204 936 309 c 0,49,50
 936 452 936 452 866 547.5 c 128,-1,51
 796 643 796 643 663 674 c 1,52,53
 631 685 631 685 584 707 c 1,54,55
 584 741 584 741 597 769 c 1,56,57
 840 793 840 793 840 1020 c 0,58,59
 840 1125 840 1125 771 1185.5 c 128,-1,60
 702 1246 702 1246 601 1246 c 0,61,62
 504 1246 504 1246 448.5 1177 c 128,-1,63
 393 1108 393 1108 386 978 c 0,64,65
 383 923 383 923 383 866 c 2,66,-1
 383 249 l 2,67,68
 383 153 383 153 407 116 c 1,69,70
 410 96 410 96 423 85.5 c 128,-1,71
 436 75 436 75 451 73 c 128,-1,72
 466 71 466 71 481 65.5 c 128,-1,73
 496 60 496 60 502 50 c 1,74,75
 502 17 502 17 500 0 c 1,76,-1
 41 0 l 1,77,78
 39 18 39 18 39 52 c 1,79,80
 51 62 51 62 77 71 c 128,-1,81
 103 80 103 80 124 86 c 128,-1,82
 145 92 145 92 164 110 c 128,-1,83
 183 128 183 128 188 156 c 0,84,85
 197 201 197 201 197 252 c 2,0,-1
EndSplineSet
EndChar

StartChar: ae
Encoding: 230 230 162
Width: 1447
GlyphClass: 2
Flags: W
LayerCount: 2
Fore
SplineSet
805 544 m 1,0,-1
 1114 583 l 1,1,2
 1159 592 1159 592 1197 614 c 1,3,4
 1182 734 1182 734 1139 793 c 128,-1,5
 1096 852 1096 852 1014 852 c 0,6,7
 911 852 911 852 859 769 c 128,-1,8
 807 686 807 686 805 544 c 1,0,-1
657 185 m 1,9,10
 619 283 619 283 617 446 c 1,11,12
 564 435 564 435 539 427 c 0,13,14
 451 400 451 400 404 382 c 128,-1,15
 357 364 357 364 321.5 338.5 c 128,-1,16
 286 313 286 313 274 282.5 c 128,-1,17
 262 252 262 252 262 205 c 0,18,19
 262 152 262 152 300 122 c 128,-1,20
 338 92 338 92 396 92 c 0,21,22
 460 92 460 92 533 119.5 c 128,-1,23
 606 147 606 147 657 185 c 1,9,10
1382 554 m 1,24,-1
 804 486 l 1,25,-1
 804 462 l 2,26,27
 804 283 804 283 863 205.5 c 128,-1,28
 922 128 922 128 1083 128 c 0,29,30
 1169 128 1169 128 1227 147 c 128,-1,31
 1285 166 1285 166 1345 208 c 1,32,33
 1364 194 1364 194 1374 179 c 1,34,35
 1348 114 1348 114 1290.5 67.5 c 128,-1,36
 1233 21 1233 21 1164 0.5 c 128,-1,37
 1095 -20 1095 -20 1021 -20 c 0,38,39
 820 -20 820 -20 690 132 c 1,40,41
 607 60 607 60 501 20 c 128,-1,42
 395 -20 395 -20 297 -20 c 0,43,44
 197 -20 197 -20 133 30.5 c 128,-1,45
 69 81 69 81 69 172 c 0,46,47
 69 224 69 224 85 265 c 128,-1,48
 101 306 101 306 134 335 c 128,-1,49
 167 364 167 364 202.5 384.5 c 128,-1,50
 238 405 238 405 294 422 c 128,-1,51
 350 439 350 439 394 449.5 c 128,-1,52
 438 460 438 460 504.5 475 c 128,-1,53
 571 490 571 490 613 501 c 1,54,-1
 613 622 l 2,55,56
 613 852 613 852 448 852 c 0,57,58
 422 852 422 852 384 844 c 128,-1,59
 346 836 346 836 309 813.5 c 128,-1,60
 272 791 272 791 272 760 c 0,61,62
 272 740 272 740 289.5 710.5 c 128,-1,63
 307 681 307 681 307 669 c 0,64,65
 307 648 307 648 266.5 613 c 128,-1,66
 226 578 226 578 191 578 c 0,67,68
 157 578 157 578 130 623.5 c 128,-1,69
 103 669 103 669 103 711 c 0,70,71
 103 758 103 758 132 796 c 128,-1,72
 161 834 161 834 204 857.5 c 128,-1,73
 247 881 247 881 301 896.5 c 128,-1,74
 355 912 355 912 401 918 c 128,-1,75
 447 924 447 924 486 924 c 0,76,77
 692 924 692 924 759 791 c 1,78,79
 855 926 855 926 1049 926 c 0,80,81
 1201 926 1201 926 1291.5 819.5 c 128,-1,82
 1382 713 1382 713 1382 554 c 1,24,-1
EndSplineSet
EndChar

StartChar: eth
Encoding: 240 240 172
Width: 1074
GlyphClass: 2
Flags: W
LayerCount: 2
Fore
SplineSet
929 1262 m 1,0,1
 915 1245 915 1245 878.5 1226 c 128,-1,2
 842 1207 842 1207 795 1186.5 c 128,-1,3
 748 1166 748 1166 734 1159 c 1,4,5
 858 1033 858 1033 924 861 c 128,-1,6
 990 689 990 689 990 507 c 0,7,8
 990 404 990 404 958 309 c 128,-1,9
 926 214 926 214 868 140 c 128,-1,10
 810 66 810 66 721 22 c 128,-1,11
 632 -22 632 -22 525 -22 c 0,12,13
 333 -22 333 -22 199 114 c 128,-1,14
 65 250 65 250 65 443 c 0,15,16
 65 573 65 573 117 682 c 128,-1,17
 169 791 169 791 270 858.5 c 128,-1,18
 371 926 371 926 503 926 c 0,19,20
 627 926 627 926 731 837 c 1,21,-1
 734 839 l 1,22,23
 706 982 706 982 612 1104 c 1,24,25
 569 1087 569 1087 491.5 1050 c 128,-1,26
 414 1013 414 1013 395 1004 c 1,27,28
 366 1021 366 1021 356 1055 c 1,29,30
 378 1079 378 1079 413.5 1098 c 128,-1,31
 449 1117 449 1117 497 1137 c 128,-1,32
 545 1157 545 1157 564 1167 c 1,33,34
 492 1250 492 1250 352 1347 c 1,35,-1
 399 1380 l 1,36,37
 577 1310 577 1310 676 1218 c 1,38,-1
 846 1306 l 1,39,40
 923 1306 923 1306 929 1262 c 1,0,1
265 490 m 0,41,42
 265 427 265 427 280 356.5 c 128,-1,43
 295 286 295 286 324.5 217 c 128,-1,44
 354 148 354 148 408 102.5 c 128,-1,45
 462 57 462 57 531 57 c 0,46,47
 602 57 602 57 655.5 91 c 128,-1,48
 709 125 709 125 737.5 181 c 128,-1,49
 766 237 766 237 779.5 299 c 128,-1,50
 793 361 793 361 793 428 c 0,51,52
 793 578 793 578 775 638 c 0,53,54
 752 718 752 718 674 783.5 c 128,-1,55
 596 849 596 849 515 849 c 0,56,57
 458 849 458 849 413 827 c 128,-1,58
 368 805 368 805 341 770 c 128,-1,59
 314 735 314 735 296 687 c 128,-1,60
 278 639 278 639 271.5 591 c 128,-1,61
 265 543 265 543 265 490 c 0,41,42
EndSplineSet
EndChar

StartChar: divide
Encoding: 247 247 179
Width: 1262
GlyphClass: 2
Flags: W
LayerCount: 2
Fore
SplineSet
630 888 m 128,-1,1
 580 888 580 888 545 922.5 c 128,-1,2
 510 957 510 957 510 1006 c 0,3,4
 510 1054 510 1054 545.5 1090 c 128,-1,5
 581 1126 581 1126 630 1126 c 0,6,7
 680 1126 680 1126 716 1090 c 128,-1,8
 752 1054 752 1054 752 1006 c 0,9,10
 752 959 752 959 716 923.5 c 128,-1,0
 680 888 680 888 630 888 c 128,-1,1
630 125 m 128,-1,12
 580 125 580 125 545 159.5 c 128,-1,13
 510 194 510 194 510 243 c 0,14,15
 510 291 510 291 545.5 326.5 c 128,-1,16
 581 362 581 362 630 362 c 0,17,18
 680 362 680 362 716 326.5 c 128,-1,19
 752 291 752 291 752 243 c 128,-1,20
 752 195 752 195 716 160 c 128,-1,11
 680 125 680 125 630 125 c 128,-1,12
138 699 m 1,21,22
 278 699 278 699 570 699.5 c 128,-1,23
 862 700 862 700 1018 700 c 0,24,25
 1083 700 1083 700 1155 669 c 1,26,27
 1155 583 1155 583 1123 551 c 1,28,29
 979 551 979 551 686.5 549.5 c 128,-1,30
 394 548 394 548 243 548 c 0,31,32
 143 548 143 548 106 579 c 1,33,34
 106 604 106 604 112 626.5 c 128,-1,35
 118 649 118 649 127 669.5 c 128,-1,36
 136 690 136 690 138 699 c 1,21,22
EndSplineSet
EndChar

StartChar: oslash
Encoding: 248 248 180
Width: 1111
GlyphClass: 2
Flags: W
LayerCount: 2
Fore
SplineSet
762 698 m 1,0,1
 592 458 592 458 417 144 c 1,2,3
 487 62 487 62 570 62 c 0,4,5
 697 62 697 62 766 151.5 c 128,-1,6
 835 241 835 241 835 372 c 0,7,8
 835 562 835 562 762 698 c 1,0,1
354 219 m 1,9,-1
 708 772 l 1,10,11
 643 860 643 860 535 860 c 0,12,13
 469 860 469 860 418.5 830 c 128,-1,14
 368 800 368 800 339 750.5 c 128,-1,15
 310 701 310 701 296 643.5 c 128,-1,16
 282 586 282 586 282 524 c 0,17,18
 282 345 282 345 354 219 c 1,9,-1
184 -35 m 1,19,-1
 262 91 l 1,20,21
 175 160 175 160 128.5 255 c 128,-1,22
 82 350 82 350 82 460 c 0,23,24
 82 658 82 658 216.5 792 c 128,-1,25
 351 926 351 926 549 926 c 0,26,27
 672 926 672 926 776 867 c 1,28,29
 790 882 790 882 821 949 c 128,-1,30
 852 1016 852 1016 875 1026 c 1,31,32
 934 1011 934 1011 949 970 c 1,33,34
 934 942 934 942 899.5 892.5 c 128,-1,35
 865 843 865 843 852 821 c 1,36,37
 938 759 938 759 983.5 662.5 c 128,-1,38
 1029 566 1029 566 1029 456 c 0,39,40
 1029 252 1029 252 896 116 c 128,-1,41
 763 -20 763 -20 559 -20 c 0,42,43
 446 -20 446 -20 348 42 c 1,44,45
 344 34 344 34 333 8 c 128,-1,46
 322 -18 322 -18 315 -31 c 128,-1,47
 308 -44 308 -44 295.5 -63.5 c 128,-1,48
 283 -83 283 -83 268.5 -95 c 128,-1,49
 254 -107 254 -107 236 -114 c 1,50,51
 201 -103 201 -103 184 -35 c 1,19,-1
EndSplineSet
EndChar

StartChar: thorn
Encoding: 254 254 186
Width: 1134
GlyphClass: 2
Flags: W
LayerCount: 2
Fore
SplineSet
352 677 m 1,0,-1
 352 339 l 2,1,2
 352 274 352 274 362 228.5 c 128,-1,3
 372 183 372 183 398 144 c 128,-1,4
 424 105 424 105 476 85.5 c 128,-1,5
 528 66 528 66 605 66 c 0,6,7
 727 66 727 66 794.5 161.5 c 128,-1,8
 862 257 862 257 862 423 c 0,9,10
 862 520 862 520 839 594.5 c 128,-1,11
 816 669 816 669 776.5 711.5 c 128,-1,12
 737 754 737 754 691 775 c 128,-1,13
 645 796 645 796 594 796 c 0,14,15
 475 796 475 796 352 677 c 1,0,-1
352 35 m 1,16,-1
 352 -144 l 2,17,18
 352 -205 352 -205 363 -242 c 1,19,20
 370 -273 370 -273 401.5 -288.5 c 128,-1,21
 433 -304 433 -304 477.5 -312 c 128,-1,22
 522 -320 522 -320 536 -328 c 1,23,24
 536 -342 536 -342 534 -378 c 1,25,-1
 8 -378 l 1,26,27
 5 -351 5 -351 5 -328 c 1,28,29
 15 -320 15 -320 49 -313 c 128,-1,30
 83 -306 83 -306 110.5 -293 c 128,-1,31
 138 -280 138 -280 144 -255 c 1,32,33
 166 -206 166 -206 166 -146 c 2,34,-1
 166 1165 l 1,35,36
 150 1190 150 1190 80 1217.5 c 128,-1,37
 10 1245 10 1245 -1 1256 c 1,38,39
 -1 1279 -1 1279 1 1290 c 1,40,41
 187 1342 187 1342 280 1369 c 1,42,-1
 352 1376 l 1,43,-1
 352 764 l 1,44,45
 500 926 500 926 668 926 c 0,46,47
 828 926 828 926 938 800 c 128,-1,48
 1048 674 1048 674 1048 481 c 0,49,50
 1048 366 1048 366 1011.5 270.5 c 128,-1,51
 975 175 975 175 912.5 112.5 c 128,-1,52
 850 50 850 50 767.5 16 c 128,-1,53
 685 -18 685 -18 592 -18 c 0,54,55
 466 -18 466 -18 352 35 c 1,16,-1
EndSplineSet
EndChar

StartChar: dcroat
Encoding: 273 273 203
Width: 1187
GlyphClass: 2
Flags: W
LayerCount: 2
Fore
SplineSet
1121 981 m 1,0,-1
 519 981 l 1,1,-1
 519 1109 l 1,2,-1
 1121 1109 l 1,3,-1
 1121 981 l 1,0,-1
799 222 m 1,4,-1
 799 510 l 2,5,6
 799 607 799 607 782 666.5 c 128,-1,7
 765 726 765 726 713 772 c 0,8,9
 629 846 629 846 534 846 c 0,10,11
 415 846 415 846 340.5 737 c 128,-1,12
 266 628 266 628 266 477 c 0,13,14
 266 382 266 382 297 298.5 c 128,-1,15
 328 215 328 215 397.5 157 c 128,-1,16
 467 99 467 99 562 99 c 0,17,18
 707 99 707 99 799 222 c 1,4,-1
799 849 m 1,19,-1
 799 1175 l 1,20,21
 786 1195 786 1195 743.5 1217.5 c 128,-1,22
 701 1240 701 1240 665 1253 c 2,23,-1
 629 1266 l 1,24,-1
 631 1301 l 1,25,-1
 913 1369 l 1,26,-1
 985 1376 l 1,27,-1
 985 199 l 2,28,29
 985 167 985 167 999.5 145 c 128,-1,30
 1014 123 1014 123 1039.5 112.5 c 128,-1,31
 1065 102 1065 102 1087 97 c 128,-1,32
 1109 92 1109 92 1137 88 c 0,33,34
 1144 87 1144 87 1147 87 c 1,35,-1
 1147 32 l 1,36,-1
 880 -12 l 1,37,-1
 813 -12 l 1,38,-1
 804 143 l 1,39,40
 662 -20 662 -20 488 -20 c 128,-1,41
 314 -20 314 -20 197 101 c 128,-1,42
 80 222 80 222 80 414 c 0,43,44
 80 637 80 637 212 780 c 128,-1,45
 344 923 344 923 544 923 c 0,46,47
 605 923 605 923 663 904.5 c 128,-1,48
 721 886 721 886 799 849 c 1,19,-1
EndSplineSet
EndChar

StartChar: gcommaaccent
Encoding: 291 291 215
Width: 965
GlyphClass: 2
Flags: W
LayerCount: 2
Fore
SplineSet
560 1 m 2,0,-1
 481 2 l 2,1,2
 409 3 409 3 303 15 c 1,3,4
 206 -68 206 -68 206 -137 c 0,5,6
 206 -174 206 -174 234.5 -201.5 c 128,-1,7
 263 -229 263 -229 307 -242.5 c 128,-1,8
 351 -256 351 -256 391.5 -262 c 128,-1,9
 432 -268 432 -268 468 -268 c 0,10,11
 521 -268 521 -268 577.5 -259 c 128,-1,12
 634 -250 634 -250 685.5 -232.5 c 128,-1,13
 737 -215 737 -215 770 -185 c 128,-1,14
 803 -155 803 -155 803 -118 c 0,15,16
 803 -3 803 -3 560 1 c 2,0,-1
288 634 m 0,17,18
 288 520 288 520 335.5 447 c 128,-1,19
 383 374 383 374 477 374 c 0,20,21
 558 374 558 374 597.5 434 c 128,-1,22
 637 494 637 494 637 597 c 0,23,24
 637 717 637 717 584 784.5 c 128,-1,25
 531 852 531 852 449 852 c 0,26,27
 380 852 380 852 334 791 c 128,-1,28
 288 730 288 730 288 634 c 0,17,18
941 888 m 1,29,-1
 926 761 l 1,30,31
 902 768 902 768 854 778.5 c 128,-1,32
 806 789 806 789 770 796 c 2,33,-1
 733 803 l 1,34,35
 742 793 742 793 755 776 c 128,-1,36
 768 759 768 759 790 712 c 128,-1,37
 812 665 812 665 812 626 c 0,38,39
 812 525 812 525 758.5 451 c 128,-1,40
 705 377 705 377 626 342.5 c 128,-1,41
 547 308 547 308 458 308 c 0,42,43
 408 308 408 308 330 326 c 1,44,45
 323 320 323 320 306.5 310 c 128,-1,46
 290 300 290 300 282 293.5 c 128,-1,47
 274 287 274 287 266.5 273.5 c 128,-1,48
 259 260 259 260 259 243 c 0,49,50
 259 228 259 228 267 218 c 128,-1,51
 275 208 275 208 294 201.5 c 128,-1,52
 313 195 313 195 335 191.5 c 128,-1,53
 357 188 357 188 394.5 185.5 c 128,-1,54
 432 183 432 183 466.5 181.5 c 128,-1,55
 501 180 501 180 555.5 177 c 128,-1,56
 610 174 610 174 656 171 c 0,57,58
 783 162 783 162 861 105 c 128,-1,59
 939 48 939 48 939 -52 c 0,60,61
 939 -142 939 -142 870.5 -211 c 128,-1,62
 802 -280 802 -280 690 -315.5 c 128,-1,63
 578 -351 578 -351 442 -351 c 0,64,65
 274 -351 274 -351 175 -300 c 128,-1,66
 76 -249 76 -249 76 -184 c 0,67,68
 76 -89 76 -89 229 24 c 1,69,70
 173 47 173 47 141.5 83 c 128,-1,71
 110 119 110 119 110 163 c 0,72,73
 110 216 110 216 153 261 c 128,-1,74
 196 306 196 306 275 352 c 1,75,76
 110 445 110 445 110 613 c 0,77,78
 110 750 110 750 208 838 c 128,-1,79
 306 926 306 926 457 926 c 0,80,81
 576 926 576 926 677 873 c 1,82,83
 803 892 803 892 894 892 c 1,84,-1
 941 888 l 1,29,-1
617 1595 m 1,85,86
 645 1572 645 1572 653 1539 c 1,87,88
 640 1532 640 1532 611.5 1516.5 c 128,-1,89
 583 1501 583 1501 568.5 1493 c 128,-1,90
 554 1485 554 1485 532.5 1469 c 128,-1,91
 511 1453 511 1453 500.5 1438.5 c 128,-1,92
 490 1424 490 1424 482 1402.5 c 128,-1,93
 474 1381 474 1381 474 1356 c 1,94,95
 505 1312 505 1312 560 1303 c 0,96,97
 665 1284 665 1284 665 1190 c 0,98,99
 665 1134 665 1134 626.5 1097 c 128,-1,100
 588 1060 588 1060 526 1060 c 0,101,102
 445 1060 445 1060 395 1117.5 c 128,-1,103
 345 1175 345 1175 345 1266 c 0,104,105
 345 1380 345 1380 419 1476.5 c 128,-1,106
 493 1573 493 1573 617 1595 c 1,85,86
EndSplineSet
EndChar

StartChar: Hbar
Encoding: 294 294 216
Width: 1624
GlyphClass: 2
Flags: W
LayerCount: 2
Fore
SplineSet
69 1176 m 1,0,-1
 700 1176 l 1,1,2
 705 1159 705 1159 705 1158 c 0,3,4
 705 1139 705 1139 670.5 1128.5 c 128,-1,5
 636 1118 636 1118 594.5 1113 c 128,-1,6
 553 1108 553 1108 518.5 1087.5 c 128,-1,7
 484 1067 484 1067 484 1030 c 2,8,-1
 484 925 l 1,9,-1
 1141 925 l 1,10,-1
 1141 1030 l 2,11,12
 1141 1065 1141 1065 1108.5 1085.5 c 128,-1,13
 1076 1106 1076 1106 1036.5 1111.5 c 128,-1,14
 997 1117 997 1117 964.5 1128.5 c 128,-1,15
 932 1140 932 1140 932 1159 c 0,16,17
 932 1163 932 1163 936 1176 c 1,18,-1
 1555 1176 l 1,19,20
 1560 1159 1560 1159 1560 1158 c 0,21,22
 1560 1140 1560 1140 1528 1129 c 128,-1,23
 1496 1118 1496 1118 1458 1112 c 128,-1,24
 1420 1106 1420 1106 1388 1085 c 128,-1,25
 1356 1064 1356 1064 1356 1030 c 2,26,-1
 1356 124 l 2,27,28
 1356 89 1356 89 1388.5 72 c 128,-1,29
 1421 55 1421 55 1459.5 53 c 128,-1,30
 1498 51 1498 51 1530.5 43 c 128,-1,31
 1563 35 1563 35 1563 17 c 0,32,33
 1563 12 1563 12 1559 0 c 1,34,-1
 936 0 l 1,35,36
 931 12 931 12 931 18 c 0,37,38
 931 39 931 39 964 47 c 128,-1,39
 997 55 997 55 1036 55 c 128,-1,40
 1075 55 1075 55 1108 73 c 128,-1,41
 1141 91 1141 91 1141 130 c 2,42,-1
 1141 576 l 1,43,-1
 484 576 l 1,44,-1
 484 124 l 2,45,46
 484 89 484 89 519 72 c 128,-1,47
 554 55 554 55 596 53 c 128,-1,48
 638 51 638 51 673 43 c 128,-1,49
 708 35 708 35 708 17 c 0,50,51
 708 12 708 12 704 0 c 1,52,-1
 69 0 l 1,53,54
 64 12 64 12 64 18 c 0,55,56
 64 36 64 36 85 43.5 c 128,-1,57
 106 51 106 51 136 53 c 128,-1,58
 166 55 166 55 196.5 59 c 128,-1,59
 227 63 227 63 248 80.5 c 128,-1,60
 269 98 269 98 269 130 c 2,61,-1
 269 1030 l 2,62,63
 269 1064 269 1064 237 1084.5 c 128,-1,64
 205 1105 205 1105 167 1110.5 c 128,-1,65
 129 1116 129 1116 97 1128 c 128,-1,66
 65 1140 65 1140 65 1159 c 0,67,68
 65 1163 65 1163 69 1176 c 1,0,-1
484 636 m 1,69,-1
 1141 636 l 1,70,-1
 1141 807 l 1,71,-1
 484 807 l 1,72,-1
 484 636 l 1,69,-1
EndSplineSet
EndChar

StartChar: hbar
Encoding: 295 295 217
Width: 1240
GlyphClass: 2
Flags: W
LayerCount: 2
Fore
SplineSet
603 960 m 1,0,-1
 1 960 l 1,1,-1
 1 1088 l 1,2,-1
 603 1088 l 1,3,-1
 603 960 l 1,0,-1
1012 568 m 2,4,-1
 1012 221 l 2,5,6
 1012 170 1012 170 1024 133 c 1,7,8
 1030 104 1030 104 1056.5 88.5 c 128,-1,9
 1083 73 1083 73 1118.5 65 c 128,-1,10
 1154 57 1154 57 1164 50 c 1,11,-1
 1162 0 l 1,12,-1
 670 0 l 1,13,14
 668 34 668 34 668 50 c 1,15,16
 677 54 677 54 718.5 65 c 128,-1,17
 760 76 760 76 785.5 92 c 128,-1,18
 811 108 811 108 817 136 c 0,19,20
 826 179 826 179 826 214 c 2,21,-1
 826 577 l 2,22,23
 826 687 826 687 779.5 752.5 c 128,-1,24
 733 818 733 818 634 818 c 0,25,26
 503 818 503 818 375 684 c 1,27,-1
 375 233 l 2,28,29
 375 186 375 186 384 137 c 0,30,31
 390 107 390 107 418.5 91 c 128,-1,32
 447 75 447 75 492 65.5 c 128,-1,33
 537 56 537 56 549 50 c 1,34,-1
 548 0 l 1,35,-1
 15 0 l 1,36,37
 13 34 13 34 13 50 c 1,38,39
 22 59 22 59 55.5 64 c 128,-1,40
 89 69 89 69 118.5 78.5 c 128,-1,41
 148 88 148 88 154 109 c 1,42,43
 188 150 188 150 188 233 c 2,44,-1
 188 1164 l 1,45,46
 175 1184 175 1184 132 1207.5 c 128,-1,47
 89 1231 89 1231 52 1244 c 1,48,-1
 16 1258 l 1,49,-1
 17 1293 l 1,50,-1
 303 1369 l 1,51,-1
 375 1376 l 1,52,-1
 375 768 l 1,53,54
 455 847 455 847 530 886.5 c 128,-1,55
 605 926 605 926 705 926 c 0,56,57
 844 926 844 926 928 837.5 c 128,-1,58
 1012 749 1012 749 1012 568 c 2,4,-1
EndSplineSet
EndChar

StartChar: dotlessi
Encoding: 305 305 227
Width: 589
GlyphClass: 2
Flags: W
LayerCount: 2
Fore
SplineSet
219 181 m 2,0,-1
 219 707 l 1,1,2
 202 736 202 736 140.5 756.5 c 128,-1,3
 79 777 79 777 67 791 c 1,4,5
 67 800 67 800 69 826 c 1,6,-1
 346 906 l 1,7,-1
 405 912 l 1,8,-1
 405 220 l 2,9,10
 405 169 405 169 415 135 c 1,11,12
 420 105 420 105 449 89 c 128,-1,13
 478 73 478 73 514 65 c 128,-1,14
 550 57 550 57 559 50 c 1,15,16
 559 34 559 34 557 0 c 1,17,-1
 49 0 l 1,18,19
 47 18 47 18 47 50 c 1,20,21
 58 56 58 56 91.5 67 c 128,-1,22
 125 78 125 78 150.5 88 c 128,-1,23
 176 98 176 98 197.5 122.5 c 128,-1,24
 219 147 219 147 219 181 c 2,0,-1
EndSplineSet
EndChar

